<svg width="540" height="426" viewBox="0 0 540 426" fill="none" xmlns="http://www.w3.org/2000/svg">
<g clip-path="url(#clip0_3618_3698)">
<path d="M42.1344 196.65C47.3677 202.479 53.2395 202.813 63.2214 206.355C78.2077 211.675 97.283 227.588 88.0031 245.628C84.2719 252.878 76.271 256.978 68.3162 258.687C52.1856 262.161 34.7259 257.229 22.7342 245.877C12.4888 236.187 6.48616 222.039 6.71119 207.894C6.85544 199.086 11.3559 184.207 19.6703 179.681C29.6388 174.255 33.6758 182.526 37.7762 190.195C39.2245 192.913 40.6458 195.001 42.1344 196.65Z" fill="#F4F7FD"/>
<path d="M98.4067 74.2793C79.4131 99.0834 64.2978 137.818 84.8264 166.273C97.3999 183.701 122.079 193.441 141.797 182.166C157.357 173.272 163.526 155.686 172.943 141.447C183.301 125.788 196.217 117.804 213.676 111.663C235.713 103.911 273.015 84.4952 253.559 54.9767C249.526 48.8566 243.532 44.2948 237.225 40.5991C199.196 18.3168 150.617 27.2481 117.453 54.3897C110.828 59.8069 104.291 66.6009 98.4067 74.2793Z" fill="#F4F7FD"/>
<path d="M288.724 111.015C260.251 137.037 267.371 181.254 248.956 213.097C243.812 221.989 237.312 230.221 233.904 239.913C226.734 260.298 240.71 279.061 260.812 282.911C280.463 286.677 302.815 280.182 320.158 271.023C359.552 250.218 373.132 200.75 378.156 159.637C380.038 144.242 379.137 127.925 371.7 114.323C355.057 83.8763 314.799 89.8099 291.512 108.62C290.547 109.401 289.618 110.199 288.724 111.015Z" fill="#F4F7FD"/>
<path d="M117.203 246.695C116.156 248.075 115.329 249.609 114.75 251.243C103.403 283.123 167.102 277.022 150.066 247.977C143.19 236.253 124.919 236.502 117.203 246.695Z" fill="#F4F7FD"/>
<path d="M13.5962 424.613H523.777C527.031 399.792 524.96 376.607 520.6 351.958C518.446 339.772 515.338 327.665 510.022 316.5C504.106 304.083 495.562 293.071 486.013 283.192C463.813 260.222 435.43 242.828 404.273 236.026C373.116 229.223 339.233 233.503 311.943 250.055C277.403 271.002 252.739 310.818 212.938 317.51C197.598 320.091 181.931 317.213 166.623 314.447C142.465 310.08 117.614 305.977 93.5207 310.7C69.1717 315.474 46.7404 329.495 31.7348 349.321C16.7293 369.147 11.6499 399.792 13.5962 424.613Z" fill="#F4F7FD"/>
<path d="M117.427 243.064L122.236 244.835L122.853 247.13L129.007 252.434C129.41 252.78 129.697 253.242 129.83 253.757C129.964 254.271 129.938 254.815 129.756 255.314L114.071 249.546C113.891 249.48 113.729 249.374 113.595 249.236C113.462 249.098 113.361 248.932 113.301 248.75C113.241 248.567 113.222 248.373 113.247 248.183C113.272 247.992 113.339 247.81 113.444 247.649L117.427 243.064Z" fill="#102A54"/>
<path d="M123.621 240.663L122.24 244.829L117.426 243.059L118.262 239.459L123.621 240.663Z" fill="#FFC0B1"/>
<path d="M51.1072 267.343L55.275 270.339L55.2615 272.715L59.7755 279.471C60.0702 279.913 60.2237 280.434 60.2155 280.966C60.2072 281.498 60.0376 282.015 59.7293 282.447L46.1489 272.686C45.9932 272.574 45.8647 272.428 45.7729 272.26C45.6811 272.091 45.6284 271.904 45.6188 271.712C45.6092 271.52 45.6429 271.329 45.7173 271.152C45.7918 270.975 45.9052 270.817 46.0489 270.69L51.1072 267.343Z" fill="#102A54"/>
<path d="M57.712 266.697L55.2752 270.341L51.1055 267.345L52.8691 264.101L57.712 266.697Z" fill="#FFC0B1"/>
<path d="M100.76 188.361C101.71 188.029 137.377 186.064 142.757 190.739C148.136 195.414 124.928 242.181 124.928 242.181L116.425 240.663L127.465 202.83C127.465 202.83 98.0247 215.487 88.9659 211.709C79.9072 207.932 82.1767 188.361 82.1767 188.361H100.76Z" fill="#0C203F"/>
<path d="M82.1771 188.36L75.686 225.421L51.5352 264.38L57.9013 267.905C57.9013 267.905 85.4602 236.501 88.3567 233.932C91.2531 231.363 108.315 192.209 108.315 192.209L82.1771 188.36Z" fill="#102A54"/>
<path d="M75.9504 150.817L64.6722 155.581C63.8101 155.945 62.9746 156.37 62.1719 156.851L36.8652 172.008L39.0578 176.724L66.8763 165.229C67.3529 165.032 67.8395 164.86 68.3342 164.715L78.2795 161.799L75.9504 150.817Z" fill="#FFC0B1"/>
<path d="M36.8652 172.01C36.8652 172.01 32.3474 172.589 32.0435 173.241C31.7396 173.894 30.5664 177.644 30.5664 178.053C30.5664 178.462 33.4879 180.983 34.5745 180.848C34.9592 180.8 35.717 180.234 36.5402 179.526C36.8806 179.609 37.2332 179.628 37.5807 179.584C38.35 179.377 39.7694 176.432 39.7694 176.432C39.7694 176.432 37.8942 171.857 36.8652 172.01Z" fill="#FFC0B1"/>
<path d="M36.5393 179.729C36.5252 179.731 36.511 179.731 36.4969 179.729C33.4889 179.104 33.3735 178.988 33.3254 178.938C33.2906 178.901 33.2665 178.856 33.256 178.806C33.2455 178.757 33.2489 178.705 33.2658 178.658C33.3466 178.326 34.0005 177.473 34.5352 177.307C34.9833 177.168 36.3161 177.239 36.8931 177.28C36.8412 176.861 36.7624 176.015 36.8931 175.423C36.3277 175.257 34.6967 174.743 34.0678 174.182C34.033 174.144 34.0134 174.095 34.0126 174.044C34.0119 173.993 34.0302 173.944 34.0639 173.906C34.0976 173.868 34.1443 173.843 34.1948 173.838C34.2454 173.833 34.2961 173.846 34.3371 173.877C35.0179 174.485 37.1701 175.079 37.1912 175.085C37.2184 175.091 37.2438 175.104 37.2657 175.121C37.2876 175.138 37.3056 175.16 37.3182 175.185C37.3309 175.21 37.3386 175.237 37.3409 175.264C37.3432 175.292 37.3401 175.319 37.3317 175.345C37.1086 176.015 37.3317 177.453 37.3317 177.469C37.3363 177.499 37.334 177.53 37.325 177.56C37.316 177.589 37.3005 177.616 37.2797 177.639C37.2587 177.661 37.233 177.679 37.2044 177.69C37.1758 177.701 37.145 177.706 37.1143 177.704C36.5662 177.66 35.0545 177.573 34.6563 177.704C34.3159 177.809 33.8312 178.403 33.6947 178.669C34.1294 178.803 35.5699 179.121 36.5796 179.332C36.6324 179.343 36.6785 179.374 36.7081 179.419C36.7377 179.465 36.7482 179.52 36.7374 179.573C36.7286 179.618 36.7038 179.659 36.6674 179.688C36.631 179.717 36.5855 179.731 36.5393 179.729Z" fill="#102A54"/>
<path d="M99.5873 145.043C99.1479 145.043 98.7132 144.952 98.3106 144.775C97.908 144.599 97.5461 144.34 97.2478 144.017C96.9494 143.693 96.7209 143.311 96.5768 142.894C96.4326 142.477 96.3759 142.035 96.4101 141.596L97.2717 130.458H101.778L102.77 141.561C102.809 142.004 102.756 142.45 102.614 142.871C102.471 143.292 102.243 143.679 101.944 144.006C101.644 144.334 101.28 144.595 100.874 144.774C100.469 144.952 100.03 145.044 99.5873 145.043Z" fill="#FFC0B1"/>
<path d="M96.4337 121.172H110.685L110.566 122.058C110.147 125.127 110.034 128.231 110.23 131.323C110.328 132.8 110.23 134.56 109.487 135.983C108.047 138.776 104.692 140.025 101.846 138.712C98.9994 137.4 94.5374 133.232 96.4337 121.172Z" fill="#FFC0B1"/>
<path d="M105.755 131.637H104.439C104.399 131.637 104.361 131.621 104.333 131.593C104.305 131.565 104.289 131.526 104.289 131.487C104.289 131.447 104.305 131.408 104.333 131.38C104.361 131.352 104.399 131.336 104.439 131.336H105.755C105.81 131.336 105.866 131.324 105.916 131.299C105.966 131.274 106.009 131.238 106.043 131.194C106.077 131.149 106.1 131.097 106.11 131.042C106.12 130.987 106.118 130.93 106.103 130.877L104.962 126.74C104.956 126.721 104.953 126.7 104.955 126.68C104.956 126.659 104.962 126.639 104.972 126.621C104.981 126.603 104.994 126.587 105.01 126.574C105.026 126.562 105.044 126.552 105.064 126.547C105.083 126.541 105.104 126.54 105.124 126.542C105.144 126.545 105.164 126.552 105.181 126.562C105.199 126.573 105.214 126.587 105.226 126.603C105.238 126.62 105.246 126.639 105.251 126.659L106.393 130.795C106.42 130.894 106.424 130.998 106.404 131.098C106.385 131.199 106.343 131.293 106.281 131.375C106.219 131.456 106.14 131.522 106.048 131.568C105.957 131.613 105.857 131.637 105.755 131.637Z" fill="#102A54"/>
<path d="M103.37 127.129C103.37 127.273 103.328 127.413 103.248 127.532C103.169 127.652 103.056 127.745 102.924 127.8C102.792 127.855 102.646 127.869 102.506 127.841C102.366 127.813 102.237 127.744 102.136 127.642C102.035 127.541 101.966 127.411 101.938 127.271C101.91 127.13 101.924 126.984 101.979 126.851C102.034 126.719 102.126 126.605 102.245 126.526C102.364 126.446 102.504 126.403 102.647 126.403C102.839 126.403 103.023 126.48 103.158 126.616C103.294 126.752 103.37 126.937 103.37 127.129Z" fill="#102A54"/>
<path d="M108.538 126.987C108.538 127.131 108.496 127.272 108.417 127.392C108.337 127.512 108.224 127.605 108.091 127.66C107.959 127.716 107.813 127.73 107.672 127.702C107.531 127.674 107.402 127.605 107.3 127.503C107.199 127.401 107.13 127.271 107.102 127.13C107.074 126.989 107.088 126.842 107.143 126.709C107.199 126.576 107.292 126.462 107.411 126.383C107.531 126.303 107.671 126.26 107.815 126.261C108.007 126.261 108.19 126.338 108.326 126.474C108.461 126.61 108.538 126.794 108.538 126.987Z" fill="#102A54"/>
<path d="M102.53 139.118C102.514 139.121 102.499 139.121 102.484 139.118C102.399 139.091 100.387 138.417 98.9966 136.776C98.9839 136.761 98.9742 136.744 98.9681 136.725C98.9621 136.706 98.9598 136.686 98.9614 136.667C98.963 136.647 98.9685 136.628 98.9775 136.61C98.9865 136.592 98.9989 136.577 99.0139 136.564C99.0288 136.551 99.046 136.542 99.0646 136.536C99.0833 136.529 99.1029 136.527 99.1224 136.529C99.1419 136.53 99.1608 136.536 99.1782 136.545C99.1956 136.554 99.211 136.566 99.2236 136.581C100.558 138.156 102.557 138.824 102.576 138.832C102.61 138.843 102.638 138.866 102.657 138.897C102.675 138.927 102.682 138.963 102.677 138.998C102.671 139.034 102.653 139.066 102.626 139.089C102.6 139.112 102.565 139.125 102.53 139.125V139.118Z" fill="#102A54"/>
<path d="M106.889 133.601C106.778 133.58 104.389 133.76 102.956 132.092C102.956 132.092 102.862 134.144 104.437 134.572C106.012 135.001 106.889 133.601 106.889 133.601Z" fill="white"/>
<path d="M105.434 133.618H105.42C103.918 133.477 102.885 132.24 102.841 132.187C102.829 132.172 102.819 132.154 102.813 132.135C102.807 132.116 102.805 132.096 102.807 132.077C102.809 132.057 102.815 132.038 102.824 132.02C102.834 132.002 102.846 131.987 102.861 131.974C102.877 131.961 102.894 131.952 102.913 131.946C102.932 131.94 102.952 131.938 102.972 131.94C102.992 131.942 103.011 131.948 103.028 131.957C103.046 131.966 103.061 131.979 103.074 131.994C103.074 132.006 104.074 133.187 105.447 133.315C105.487 133.317 105.525 133.334 105.551 133.364C105.578 133.393 105.592 133.432 105.591 133.472C105.589 133.512 105.571 133.55 105.542 133.577C105.512 133.604 105.474 133.618 105.434 133.616V133.618Z" fill="#102A54"/>
<path d="M116.875 119.648C116.815 119.484 116.745 119.324 116.666 119.168C116.021 117.905 114.819 116.987 113.502 116.519C112.791 116.272 112.049 116.122 111.298 116.076C110.924 116.049 110.55 116.046 110.176 116.066C110.023 116.066 109.174 116.259 109.09 116.187C107.832 115.064 105.884 114.908 104.203 114.989C103.579 115.018 102.929 115.091 102.408 115.433C102.348 115.472 102.289 115.514 102.233 115.56C99.4925 114.57 98.3289 117.683 96.0517 118.178C95.342 118.328 94.6073 118.143 93.8842 118.178C93.411 118.208 92.9489 118.335 92.5255 118.549C92.1022 118.763 91.7263 119.061 91.4204 119.425C90.7934 120.175 90.5088 121.162 89.9587 121.965C89.0182 123.353 87.445 124.1 86.291 125.279C83.6753 127.947 84.2177 132.74 86.0448 135.683C87.2469 137.613 89.2913 139.061 91.5493 139.301C93.8072 139.54 96.2133 138.457 97.3442 136.482C98.6751 134.166 98.1135 131.271 98.2827 128.588C98.3674 127.306 98.702 125.924 99.7175 125.14C100.871 124.252 102.493 124.412 103.843 123.885C104.302 123.704 104.726 123.443 105.095 123.113C105.677 123.632 106.323 124.071 107.018 124.422C108.557 125.181 110.355 125.364 112.05 125.128C113.54 124.922 115.571 124.378 116.541 123.131C117.275 122.167 117.277 120.741 116.875 119.648Z" fill="#102A54"/>
<path d="M156.382 125.642L153.571 124.528C153.352 124.441 153.117 124.402 152.882 124.414C152.647 124.427 152.417 124.49 152.209 124.6C152 124.711 151.818 124.865 151.675 125.052C151.532 125.239 151.43 125.456 151.378 125.686L150.114 131.338L140.042 154.036L127.26 151.104L124.627 161.913L141.79 163.896C142.503 163.978 143.224 163.906 143.906 163.685C144.715 163.425 145.445 162.964 146.028 162.345C146.612 161.726 147.031 160.969 147.247 160.145L154.29 133.187L156.958 129.346L157.408 127.166C157.408 126.839 157.311 126.518 157.128 126.246C156.946 125.974 156.686 125.764 156.382 125.642Z" fill="#FFC0B1"/>
<path d="M155.765 130.901C155.755 130.903 155.743 130.903 155.733 130.901C155.713 130.897 155.695 130.889 155.679 130.878C155.663 130.867 155.649 130.852 155.638 130.835C155.628 130.819 155.621 130.8 155.617 130.78C155.614 130.761 155.615 130.741 155.619 130.722L156.127 128.477C156.144 128.416 156.179 128.362 156.227 128.322C156.275 128.282 156.333 128.257 156.396 128.251C156.458 128.244 156.521 128.257 156.576 128.287C156.631 128.317 156.675 128.363 156.704 128.419L157.089 129.289C157.105 129.326 157.106 129.368 157.092 129.405C157.078 129.443 157.049 129.473 157.013 129.489C156.976 129.506 156.935 129.507 156.897 129.492C156.86 129.478 156.83 129.45 156.814 129.413L156.429 128.54L155.902 130.789C155.894 130.82 155.877 130.848 155.852 130.868C155.827 130.888 155.797 130.9 155.765 130.901Z" fill="#102A54"/>
<path d="M142.273 158.73C142.233 158.733 142.193 158.724 142.159 158.704C142.124 158.683 142.097 158.653 142.081 158.616L139.852 154.136C139.839 154.112 139.831 154.085 139.829 154.058C139.827 154.031 139.829 154.004 139.837 153.978C139.845 153.952 139.859 153.928 139.876 153.907C139.893 153.886 139.914 153.869 139.938 153.856C139.962 153.843 139.989 153.835 140.016 153.833C140.043 153.83 140.07 153.833 140.096 153.841C140.122 153.849 140.146 153.863 140.167 153.88C140.187 153.897 140.205 153.919 140.217 153.943L142.446 158.425C142.459 158.449 142.466 158.475 142.468 158.502C142.47 158.529 142.467 158.556 142.458 158.582C142.45 158.607 142.437 158.631 142.419 158.652C142.402 158.672 142.38 158.689 142.356 158.701C142.331 158.716 142.303 158.726 142.273 158.73Z" fill="#102A54"/>
<path d="M108.323 143.464C108.323 143.464 99.4409 139.941 96.3982 141.13L96.2713 141.182L73.5918 150.689L76.4594 163.801L89.9994 161.263C89.7052 162.65 89.4474 163.984 89.2455 165.214C88.5742 169.314 87.2453 173.277 85.3104 176.95L77.098 192.548C75.6093 200.175 108.153 199.331 108.153 199.331C114.308 193.276 115.847 163.179 115.847 163.179L129.694 163.951L132.241 151.246L108.323 143.464Z" fill="#E6515C"/>
<path d="M89.9981 161.467H89.9538C89.9274 161.461 89.9024 161.45 89.8803 161.434C89.8582 161.419 89.8393 161.399 89.8249 161.376C89.8104 161.353 89.8006 161.327 89.796 161.3C89.7914 161.274 89.7921 161.246 89.798 161.22C89.8192 161.127 91.8944 151.885 93.4523 147.262C93.4752 147.219 93.5128 147.185 93.5582 147.167C93.6036 147.149 93.654 147.148 93.7003 147.163C93.7465 147.179 93.7857 147.211 93.8107 147.253C93.8358 147.295 93.8451 147.345 93.8369 147.393C92.2983 151.997 90.2231 161.218 90.2019 161.31C90.1909 161.356 90.1647 161.396 90.1276 161.425C90.0905 161.453 90.0447 161.468 89.9981 161.467Z" fill="#102A54"/>
<path d="M117.398 163.44H117.383L110.017 163.041C109.988 163.042 109.96 163.037 109.934 163.026C109.907 163.015 109.883 162.999 109.863 162.979C109.844 162.959 109.828 162.934 109.818 162.908C109.808 162.881 109.803 162.852 109.805 162.824C109.806 162.795 109.814 162.767 109.827 162.742C109.839 162.716 109.857 162.694 109.879 162.676C109.901 162.657 109.926 162.644 109.954 162.636C109.981 162.628 110.01 162.626 110.038 162.63L117.406 163.029C117.457 163.036 117.504 163.061 117.537 163.1C117.571 163.139 117.588 163.189 117.587 163.24C117.586 163.292 117.565 163.341 117.529 163.378C117.494 163.415 117.446 163.437 117.394 163.44H117.398Z" fill="#102A54"/>
<path d="M124.503 227.611L121.526 228.059L112.925 225.381C112.87 225.364 112.812 225.359 112.755 225.367C112.697 225.375 112.643 225.396 112.595 225.428C112.547 225.461 112.506 225.503 112.477 225.554C112.448 225.604 112.43 225.66 112.425 225.717C112.401 225.978 112.449 226.24 112.562 226.475C112.676 226.71 112.851 226.91 113.069 227.053L115.518 228.653L107.711 228.509C107.438 228.492 107.164 228.534 106.909 228.632C106.653 228.731 106.422 228.883 106.23 229.079C106.039 229.275 105.891 229.51 105.798 229.768C105.705 230.027 105.668 230.302 105.69 230.576L105.882 232.956C105.913 233.341 106.06 233.708 106.302 234.009C106.545 234.309 106.873 234.529 107.242 234.639L112.689 236.26C113.046 236.367 113.427 236.367 113.785 236.26L122.792 233.529L125.306 233.363L124.503 227.611Z" fill="#FFC0B1"/>
<path d="M116.674 232.697C116.624 232.697 116.577 232.679 116.541 232.645C115.195 231.36 115.316 228.752 115.322 228.642C115.323 228.616 115.329 228.592 115.34 228.569C115.351 228.546 115.367 228.525 115.385 228.508C115.404 228.491 115.426 228.478 115.45 228.47C115.474 228.461 115.499 228.458 115.524 228.459C115.55 228.461 115.574 228.467 115.597 228.478C115.62 228.489 115.64 228.504 115.657 228.523C115.674 228.542 115.687 228.564 115.696 228.588C115.704 228.612 115.708 228.638 115.706 228.663C115.706 228.688 115.581 231.203 116.806 232.365C116.834 232.392 116.853 232.426 116.861 232.464C116.869 232.501 116.866 232.54 116.851 232.576C116.837 232.612 116.813 232.642 116.781 232.664C116.749 232.685 116.712 232.697 116.674 232.697Z" fill="#102A54"/>
<path d="M199.04 170.582L206.319 171.532C207.28 171.657 208.168 172.114 208.83 172.824C209.491 173.535 209.885 174.455 209.945 175.426C210.089 177.798 210.329 180.871 210.714 182.857C211.052 184.594 211.195 186.693 210.539 188.492C209.254 192.018 205.471 194.008 201.901 192.887C198.697 191.877 193.518 186.926 194.016 174.812C194.043 174.193 194.197 173.587 194.47 173.032C194.743 172.477 195.127 171.985 195.6 171.587C196.072 171.189 196.622 170.895 197.214 170.722C197.807 170.549 198.428 170.501 199.04 170.582Z" fill="#FFC0B1"/>
<path d="M196.01 201.282C195.454 201.201 194.92 201.006 194.442 200.708C193.964 200.41 193.553 200.017 193.234 199.552C192.915 199.087 192.696 198.56 192.589 198.006C192.483 197.452 192.492 196.882 192.616 196.331L195.745 182.385L201.451 183.215L200.663 197.456C200.632 198.023 200.483 198.577 200.227 199.084C199.971 199.59 199.613 200.037 199.176 200.397C198.738 200.757 198.231 201.021 197.686 201.174C197.141 201.326 196.57 201.363 196.01 201.282Z" fill="#FFC0B1"/>
<path d="M204.125 183.663C204.074 183.666 204.024 183.649 203.985 183.615C203.947 183.581 203.924 183.533 203.92 183.482C203.917 183.431 203.934 183.381 203.968 183.342C204.002 183.304 204.049 183.28 204.1 183.277L205.771 183.061C205.842 183.052 205.91 183.027 205.969 182.988C206.028 182.948 206.077 182.895 206.112 182.833C206.148 182.771 206.169 182.702 206.174 182.63C206.178 182.559 206.166 182.488 206.139 182.422L204.023 177.357C204.013 177.333 204.008 177.308 204.008 177.283C204.008 177.257 204.013 177.232 204.023 177.209C204.033 177.185 204.047 177.164 204.065 177.146C204.082 177.128 204.104 177.113 204.127 177.104C204.15 177.094 204.175 177.089 204.201 177.089C204.226 177.089 204.251 177.094 204.275 177.103C204.298 177.113 204.319 177.127 204.337 177.145C204.355 177.163 204.369 177.185 204.379 177.208L206.495 182.273C206.545 182.394 206.566 182.524 206.558 182.655C206.55 182.786 206.512 182.912 206.446 183.026C206.381 183.139 206.291 183.236 206.183 183.308C206.074 183.381 205.951 183.428 205.821 183.445L204.15 183.659L204.125 183.663Z" fill="#102A54"/>
<path d="M202.058 178.112C202.081 178.294 202.049 178.479 201.967 178.643C201.886 178.807 201.757 178.943 201.599 179.034C201.44 179.125 201.258 179.167 201.075 179.154C200.893 179.141 200.718 179.075 200.574 178.962C200.429 178.85 200.321 178.697 200.263 178.523C200.205 178.349 200.199 178.162 200.247 177.985C200.295 177.808 200.394 177.649 200.532 177.528C200.67 177.408 200.84 177.331 201.021 177.307C201.265 177.276 201.511 177.343 201.706 177.494C201.9 177.645 202.027 177.867 202.058 178.112Z" fill="#102A54"/>
<path d="M208.591 177.087C208.614 177.269 208.583 177.454 208.501 177.618C208.42 177.783 208.292 177.919 208.133 178.01C207.974 178.101 207.792 178.143 207.61 178.131C207.427 178.118 207.253 178.052 207.108 177.94C206.963 177.827 206.855 177.675 206.796 177.501C206.738 177.327 206.732 177.139 206.78 176.962C206.828 176.785 206.927 176.626 207.065 176.505C207.202 176.385 207.373 176.307 207.554 176.284C207.798 176.253 208.044 176.32 208.238 176.47C208.432 176.621 208.559 176.843 208.591 177.087Z" fill="#102A54"/>
<path d="M202.117 176.733L198.34 177.217C198.273 177.227 198.205 177.223 198.14 177.206C198.074 177.189 198.013 177.159 197.959 177.118C197.906 177.077 197.861 177.026 197.827 176.968C197.793 176.909 197.771 176.844 197.763 176.777C197.753 176.71 197.757 176.641 197.774 176.576C197.791 176.51 197.821 176.449 197.862 176.395C197.903 176.341 197.955 176.296 198.013 176.262C198.072 176.228 198.136 176.206 198.203 176.198L201.981 175.713C202.047 175.704 202.115 175.707 202.181 175.724C202.246 175.741 202.307 175.771 202.361 175.812C202.415 175.853 202.46 175.904 202.494 175.963C202.527 176.021 202.549 176.086 202.558 176.153C202.567 176.221 202.563 176.289 202.546 176.354C202.529 176.42 202.499 176.482 202.458 176.535C202.417 176.589 202.366 176.634 202.307 176.668C202.249 176.702 202.184 176.724 202.117 176.733Z" fill="#102A54"/>
<path d="M209.385 175.6L205.608 176.084C205.541 176.095 205.473 176.091 205.407 176.074C205.342 176.057 205.28 176.028 205.227 175.987C205.173 175.946 205.128 175.894 205.094 175.835C205.061 175.777 205.039 175.712 205.031 175.644C205.021 175.577 205.025 175.509 205.042 175.444C205.058 175.378 205.088 175.316 205.129 175.262C205.17 175.209 205.221 175.163 205.279 175.13C205.338 175.096 205.402 175.074 205.469 175.065L209.248 174.581C209.315 174.571 209.383 174.574 209.449 174.591C209.514 174.608 209.576 174.638 209.629 174.679C209.683 174.72 209.728 174.771 209.762 174.83C209.796 174.889 209.817 174.954 209.825 175.021C209.835 175.088 209.831 175.156 209.814 175.222C209.798 175.288 209.768 175.349 209.727 175.403C209.686 175.457 209.634 175.503 209.576 175.536C209.517 175.57 209.452 175.592 209.385 175.6Z" fill="#102A54"/>
<path d="M202.09 184.606C202.09 184.606 204.571 185.774 207.244 185.631C207.244 185.631 204.319 188.955 202.09 184.606Z" fill="white"/>
<path d="M205.714 185.777H205.697C204.314 185.655 202.972 185.237 201.762 184.553C201.727 184.523 201.704 184.483 201.696 184.438C201.688 184.393 201.697 184.346 201.72 184.307C201.743 184.268 201.779 184.238 201.822 184.223C201.865 184.208 201.912 184.208 201.954 184.225C203.116 184.873 204.4 185.272 205.724 185.394C205.775 185.397 205.823 185.419 205.857 185.457C205.892 185.495 205.91 185.545 205.908 185.596C205.905 185.647 205.883 185.695 205.845 185.73C205.808 185.765 205.758 185.783 205.707 185.78L205.714 185.777Z" fill="#102A54"/>
<path d="M196.275 166.754C196.275 166.754 199.962 161.309 204.703 163.923C209.444 166.536 215.51 171.659 215.51 171.659C215.51 171.659 211.471 175.134 209.946 175.427C208.421 175.72 197.444 171.792 197.444 171.792L194.486 182.067C194.486 182.067 189.938 174.031 190.511 170.903C191.084 167.774 196.275 166.754 196.275 166.754Z" fill="#102A54"/>
<path d="M196.409 181.055C196.85 182.902 196.332 184.612 195.255 184.871C194.178 185.129 192.947 183.842 192.501 181.995C192.055 180.147 192.58 178.437 193.655 178.179C194.73 177.92 195.969 179.207 196.409 181.055Z" fill="#FFC0B1"/>
<path d="M200.94 192.762C200.914 192.762 200.888 192.757 200.865 192.746C200.782 192.712 198.853 191.864 197.574 189.37C197.556 189.326 197.556 189.276 197.573 189.231C197.59 189.187 197.623 189.15 197.665 189.128C197.707 189.106 197.756 189.101 197.803 189.113C197.849 189.125 197.888 189.154 197.914 189.195C199.128 191.557 200.992 192.383 201.015 192.393C201.054 192.411 201.087 192.442 201.106 192.481C201.126 192.52 201.132 192.565 201.124 192.607C201.115 192.65 201.092 192.689 201.059 192.717C201.025 192.745 200.983 192.761 200.94 192.762Z" fill="#102A54"/>
<path d="M195.352 182.942H195.342C195.293 182.94 195.247 182.918 195.213 182.883C195.179 182.847 195.16 182.799 195.16 182.749C195.256 180.738 193.579 179.018 193.563 179.001C193.543 178.983 193.527 178.962 193.515 178.938C193.504 178.914 193.497 178.888 193.496 178.862C193.495 178.835 193.5 178.809 193.509 178.784C193.519 178.759 193.534 178.736 193.552 178.718C193.571 178.699 193.594 178.684 193.618 178.674C193.643 178.665 193.669 178.66 193.696 178.661C193.722 178.662 193.748 178.669 193.772 178.68C193.796 178.692 193.817 178.708 193.835 178.729C193.91 178.804 195.646 180.587 195.542 182.769C195.538 182.816 195.516 182.86 195.48 182.892C195.445 182.924 195.399 182.942 195.352 182.942Z" fill="#102A54"/>
<path d="M266.204 219.865L232.687 218.18C231.933 218.118 231.207 217.871 230.571 217.462L200.568 198.159V198.194L194.157 196.353L185.154 258.7L209.58 264.298C209.58 264.298 212.254 241.094 211.94 224.921L224.728 229.515C227.622 230.553 230.71 230.932 233.767 230.624L266.288 227.329L266.204 219.865Z" fill="#3C94F8"/>
<path d="M257.578 346.994L262.684 344.357L265.037 345.585L274.057 344.525C274.647 344.457 275.243 344.57 275.767 344.851C276.291 345.131 276.718 345.565 276.99 346.095L260.353 354.686C260.163 354.785 259.953 354.839 259.739 354.844C259.524 354.85 259.312 354.806 259.117 354.718C258.921 354.629 258.748 354.498 258.611 354.333C258.473 354.168 258.375 353.974 258.322 353.766L257.578 346.994Z" fill="#102A54"/>
<path d="M259.765 340.688L262.685 344.357L257.578 346.994L254.434 343.583L259.765 340.688Z" fill="#FFC0B1"/>
<path d="M140.147 340.404L143.265 345.245L142.278 347.716L144.217 356.619C144.345 357.201 144.292 357.81 144.066 358.362C143.84 358.914 143.451 359.383 142.951 359.707L132.792 343.939C132.676 343.758 132.602 343.553 132.575 343.339C132.549 343.125 132.571 342.908 132.639 342.704C132.708 342.5 132.821 342.314 132.971 342.161C133.121 342.007 133.304 341.889 133.506 341.815L140.147 340.404Z" fill="#102A54"/>
<path d="M146.613 341.967L143.262 345.244L140.145 340.405L143.216 336.927L146.613 341.967Z" fill="#FFC0B1"/>
<path d="M170.682 255.52L172.263 299.987L140.629 337.322L147.387 343.42L185.132 313.924C187.878 311.777 190.039 308.969 191.412 305.759C192.161 304.01 192.666 302.165 192.912 300.277L198.23 259.527L170.682 255.52Z" fill="#102A54"/>
<path d="M205.857 258.41L235.631 292.886L262.917 340.286L252.241 346.685L222.641 304.761L186.57 278.104C186.57 278.104 169.347 274.987 171.993 252.432L205.857 258.41Z" fill="#102A54"/>
<path d="M194.998 284.338L196.075 271.984C196.075 271.984 206.653 292.961 206.461 292.81C206.269 292.66 194.998 284.338 194.998 284.338Z" fill="#0C203F"/>
<path d="M192.67 195.895C192.67 195.895 198.126 198.431 200.586 198.157C200.586 198.157 206.712 207.312 208.256 216.656C210.139 228.035 205.85 258.408 205.85 258.408L176.787 254.806L192.67 195.895Z" fill="white"/>
<path d="M200.584 198.157C200.305 198.157 192.121 195.744 192.121 195.744C192.121 195.744 196.674 200.496 198.343 200.518C200.012 200.539 200.584 198.157 200.584 198.157Z" fill="#80C0FF"/>
<path d="M196.636 198.862C196.082 197.998 195.348 197.265 194.485 196.713C193.621 196.162 192.648 195.806 191.634 195.669C190.62 195.533 189.588 195.619 188.61 195.922C187.632 196.226 186.732 196.738 185.971 197.425C185.859 197.528 185.75 197.634 185.638 197.74L158.447 217.062C157.613 217.655 156.682 218.098 155.696 218.371L122.387 226.078L123.943 234.226L159.391 231.163C161.569 230.921 163.701 230.36 165.717 229.497L174.179 225.87C173.229 230.684 172.833 234.095 172.833 234.095L160.443 259.926L192.3 271.023C192.3 271.023 198.718 236.78 200.763 224.978C202.203 216.711 200.449 204.805 196.636 198.862Z" fill="#3C94F8"/>
<path d="M174.189 226.061C174.146 226.06 174.104 226.046 174.071 226.019C174.037 225.992 174.013 225.954 174.003 225.912C173.993 225.87 173.998 225.826 174.016 225.787C174.034 225.748 174.064 225.716 174.103 225.696L188.72 218.305C188.765 218.286 188.815 218.285 188.86 218.302C188.906 218.319 188.943 218.352 188.965 218.396C188.987 218.439 188.992 218.49 188.978 218.537C188.965 218.583 188.934 218.623 188.893 218.648L174.276 226.039C174.249 226.054 174.219 226.061 174.189 226.061Z" fill="#102A54"/>
<path d="M191.93 252.366L179.043 247.822L178.574 249.089L191.405 253.715L191.93 252.366Z" fill="#102A54"/>
<path d="M200.013 197.994C200.013 197.994 204.592 220.912 189.509 235.555L188.48 242.697L195.299 239.151C195.299 239.151 210.252 219.575 200.586 198.164L200.013 197.994Z" fill="#102A54"/>
<path d="M211.93 225.113C211.879 225.113 211.83 225.093 211.794 225.056C211.758 225.02 211.737 224.971 211.737 224.92C211.737 224.845 211.753 217.218 210.091 212.952C210.073 212.905 210.074 212.852 210.094 212.805C210.114 212.759 210.152 212.722 210.199 212.703C210.222 212.694 210.247 212.689 210.273 212.689C210.298 212.69 210.323 212.695 210.346 212.705C210.369 212.715 210.39 212.73 210.408 212.748C210.426 212.766 210.44 212.788 210.449 212.811C212.138 217.137 212.122 224.835 212.122 224.912C212.123 224.938 212.119 224.964 212.11 224.988C212.101 225.013 212.087 225.035 212.069 225.054C212.051 225.072 212.029 225.087 212.005 225.098C211.981 225.108 211.956 225.113 211.93 225.113Z" fill="#102A54"/>
<path d="M289.856 213.442L274.338 209.541C273.689 209.378 273.032 209.773 272.87 210.424L267.161 233.303C266.999 233.954 267.392 234.613 268.041 234.776L283.559 238.677C284.207 238.839 284.864 238.444 285.027 237.794L290.736 214.914C290.898 214.264 290.504 213.605 289.856 213.442Z" fill="#80C0FF"/>
<path d="M288.783 215.406L274.162 211.73L268.958 232.586L283.579 236.261L288.783 215.406Z" fill="white"/>
<path d="M287.183 216.868L274.887 213.777L274.626 214.824L286.922 217.915L287.183 216.868Z" fill="#F4F7FD"/>
<path d="M286.625 219.123L274.328 216.032L274.067 217.079L286.364 220.17L286.625 219.123Z" fill="#F4F7FD"/>
<path d="M286.058 221.378L273.762 218.287L273.501 219.334L285.797 222.425L286.058 221.378Z" fill="#F4F7FD"/>
<path d="M285.496 223.633L273.199 220.542L272.938 221.589L285.235 224.679L285.496 223.633Z" fill="#F4F7FD"/>
<path d="M284.933 225.888L272.637 222.797L272.376 223.844L284.672 226.934L284.933 225.888Z" fill="#F4F7FD"/>
<path d="M284.369 228.141L272.072 225.05L271.811 226.096L284.108 229.187L284.369 228.141Z" fill="#F4F7FD"/>
<path d="M283.81 230.394L271.514 227.304L271.252 228.35L283.549 231.441L283.81 230.394Z" fill="#F4F7FD"/>
<path d="M283.248 232.649L270.951 229.559L270.69 230.605L282.987 233.696L283.248 232.649Z" fill="#F4F7FD"/>
<path d="M284.964 211.175L279.718 209.856C279.573 209.82 279.426 209.908 279.389 210.054L278.62 213.138C278.583 213.284 278.672 213.432 278.817 213.468L284.063 214.787C284.208 214.823 284.356 214.735 284.392 214.589L285.162 211.505C285.198 211.359 285.11 211.211 284.964 211.175Z" fill="#0C203F"/>
<path d="M266.215 220.704L270.025 219.287C270.483 219.12 270.984 219.12 271.442 219.287L276.551 221.121C276.618 221.146 276.678 221.188 276.725 221.243C276.771 221.298 276.802 221.365 276.814 221.436C276.826 221.507 276.82 221.58 276.795 221.648C276.77 221.716 276.727 221.776 276.672 221.822L276.347 222.09C276.062 222.326 275.709 222.461 275.341 222.476L269.825 222.669L268.688 227.221L266.276 226.136L266.215 220.704Z" fill="#FFC0B1"/>
<path d="M96.6763 245.309C98.013 244.633 99.5613 244.516 101.056 244.508C102.402 244.508 103.764 244.579 105.056 244.954C106.349 245.328 107.581 246.025 108.416 247.077C109.512 248.465 109.822 250.318 109.88 252.096C109.937 253.873 109.782 255.655 110.107 257.396C110.416 259.06 111.161 260.66 111.126 262.353C111.086 264.349 109.972 266.138 109.203 267.982C108.281 270.205 107.843 272.6 107.918 275.006C106.718 274.388 105.372 274.111 104.027 274.207C103.191 274.269 102.346 274.473 101.527 274.311C100.64 274.137 99.894 273.56 99.1189 273.095C98.3438 272.63 97.4129 272.255 96.5513 272.531C95.7339 270.408 95.7185 267.949 95.7955 265.667C95.8801 263.158 95.9647 260.649 96.3186 258.153C96.4667 257.112 96.6629 256.08 96.7686 255.035C96.8735 253.839 96.9139 252.638 96.8898 251.437C96.886 249.391 96.7321 247.353 96.6763 245.309Z" fill="#102A54"/>
<path d="M115.637 333.207L114.978 338.564C114.954 338.758 114.887 338.944 114.781 339.108C114.675 339.272 114.533 339.409 114.366 339.51C114.2 339.611 114.012 339.673 113.818 339.69C113.624 339.708 113.429 339.681 113.247 339.612L104.977 336.471V333.207H115.637Z" fill="#FFB841"/>
<path d="M84.9776 333.644L142.023 332.832C142.696 332.82 143.338 332.541 143.807 332.056C144.276 331.57 144.533 330.917 144.523 330.241L144 293.226C143.988 292.551 143.709 291.907 143.225 291.437C142.742 290.967 142.092 290.708 141.419 290.717L84.3814 291.514C83.708 291.526 83.0669 291.806 82.5983 292.291C82.1297 292.777 81.8718 293.429 81.8811 294.105L82.4042 331.118C82.4118 331.795 82.6872 332.442 83.1697 332.916C83.6523 333.389 84.3026 333.651 84.9776 333.644Z" fill="#80C0FF"/>
<path d="M113.105 311.259C112.038 311.26 110.993 310.956 110.091 310.383L82.2552 292.729C82.2216 292.707 82.1978 292.673 82.1891 292.634C82.1805 292.595 82.1876 292.554 82.2091 292.52C82.2305 292.487 82.2644 292.463 82.3034 292.454C82.3423 292.445 82.3831 292.452 82.4168 292.474L110.251 310.13C111.127 310.685 112.146 310.972 113.182 310.957C114.218 310.942 115.228 310.625 116.088 310.045L143.41 291.605C143.426 291.594 143.445 291.586 143.464 291.582C143.483 291.578 143.503 291.578 143.523 291.582C143.542 291.586 143.56 291.593 143.577 291.604C143.593 291.615 143.607 291.629 143.618 291.646C143.64 291.679 143.648 291.719 143.641 291.759C143.633 291.798 143.61 291.832 143.578 291.854L116.255 310.296C115.324 310.924 114.227 311.259 113.105 311.259Z" fill="#102A54"/>
<path d="M69.4707 320.446L78.6544 279.577C78.7931 278.691 79.1044 277.841 79.5705 277.075C80.0365 276.31 80.6483 275.644 81.3707 275.117C82.0932 274.589 82.9123 274.209 83.7811 273.999C84.6499 273.788 85.5514 273.752 86.4342 273.892L103.025 276.509C104.168 276.689 105.247 277.159 106.158 277.875C107.07 278.59 107.785 279.527 108.235 280.598L113.841 291.102L107.987 291.185L104.434 325.967L69.4707 320.446Z" fill="white"/>
<path d="M88.2357 274.02C87.6779 277.587 90.1186 280.843 93.6728 281.405C97.2271 281.966 100.549 279.619 101.106 276.052L88.2357 274.02Z" fill="#FFC0B1"/>
<path d="M94.1945 279.061C94.7127 279.143 95.2421 279.116 95.7495 278.983C96.2569 278.849 96.7313 278.612 97.1429 278.286C97.5545 277.959 97.8945 277.551 98.1414 277.087C98.3883 276.622 98.5368 276.111 98.5777 275.587L99.6182 262.295L94.306 261.459L91.0941 274.365C90.966 274.879 90.9459 275.414 91.0353 275.937C91.1246 276.459 91.3214 276.957 91.6131 277.399C91.9047 277.84 92.2849 278.216 92.7294 278.503C93.1738 278.789 93.6728 278.979 94.1945 279.061Z" fill="#FFC0B1"/>
<path d="M91.2671 248.555L108.071 251.209L107.767 252.232C106.702 255.768 105.993 259.403 105.651 263.082C105.494 264.842 105.044 266.898 103.92 268.44C101.707 271.463 97.5197 272.312 94.4078 270.234C91.2959 268.155 86.8031 262.418 91.2671 248.555Z" fill="#FFC0B1"/>
<path d="M100.444 262.637C100.402 262.637 100.36 262.634 100.319 262.627L98.7665 262.382C98.7196 262.374 98.6775 262.348 98.6495 262.31C98.6216 262.271 98.61 262.223 98.6174 262.176C98.6248 262.129 98.6506 262.087 98.689 262.059C98.7274 262.031 98.7753 262.019 98.8223 262.027L100.374 262.272C100.44 262.282 100.507 262.277 100.57 262.258C100.634 262.238 100.692 262.204 100.74 262.158C100.788 262.112 100.825 262.055 100.847 261.993C100.87 261.93 100.878 261.863 100.871 261.797L100.294 256.705C100.288 256.657 100.302 256.61 100.331 256.573C100.361 256.535 100.404 256.511 100.451 256.506C100.498 256.501 100.546 256.514 100.583 256.544C100.62 256.574 100.644 256.617 100.649 256.664L101.226 261.754C101.239 261.865 101.228 261.977 101.194 262.084C101.161 262.19 101.105 262.288 101.031 262.371C100.957 262.454 100.867 262.521 100.766 262.567C100.664 262.612 100.555 262.636 100.444 262.637Z" fill="#102A54"/>
<path d="M98.3457 256.871C98.3193 257.04 98.2434 257.198 98.1277 257.324C98.0119 257.45 97.8616 257.539 97.6955 257.579C97.5295 257.619 97.3553 257.609 97.1949 257.55C97.0346 257.491 96.8953 257.386 96.7947 257.247C96.694 257.109 96.6366 256.943 96.6296 256.772C96.6227 256.601 96.6664 256.431 96.7555 256.285C96.8445 256.139 96.9748 256.022 97.1298 255.95C97.2848 255.878 97.4576 255.854 97.6263 255.881C97.7385 255.898 97.846 255.937 97.9429 255.997C98.0398 256.056 98.1241 256.134 98.1909 256.226C98.2578 256.318 98.3059 256.422 98.3324 256.533C98.359 256.643 98.3635 256.758 98.3457 256.871Z" fill="#102A54"/>
<path d="M104.455 257.662C104.429 257.831 104.353 257.989 104.237 258.115C104.121 258.241 103.971 258.33 103.805 258.37C103.639 258.411 103.465 258.4 103.304 258.341C103.144 258.282 103.005 258.177 102.904 258.038C102.803 257.9 102.746 257.735 102.739 257.563C102.732 257.392 102.776 257.222 102.865 257.076C102.954 256.93 103.084 256.813 103.239 256.741C103.394 256.669 103.567 256.645 103.736 256.672C103.848 256.689 103.955 256.728 104.052 256.788C104.149 256.847 104.233 256.925 104.3 257.017C104.367 257.109 104.415 257.213 104.442 257.324C104.468 257.435 104.473 257.549 104.455 257.662Z" fill="#102A54"/>
<path d="M95.6063 255.598C95.5099 255.598 95.4157 255.569 95.3361 255.515C95.2565 255.46 95.1953 255.383 95.1606 255.292C95.126 255.202 95.1195 255.103 95.1421 255.009C95.1647 254.915 95.2152 254.83 95.287 254.766C97.0084 253.222 99.2202 254.606 99.3144 254.665C99.4129 254.737 99.4803 254.844 99.5029 254.964C99.5255 255.084 99.5015 255.208 99.4359 255.311C99.3703 255.414 99.268 255.488 99.1499 255.517C99.0319 255.547 98.907 255.53 98.8009 255.47C98.7317 255.428 97.1026 254.413 95.916 255.47C95.832 255.55 95.7217 255.595 95.6063 255.598Z" fill="#102A54"/>
<path d="M101.857 256.14C101.761 256.14 101.667 256.111 101.588 256.056C101.508 256.001 101.447 255.923 101.413 255.833C101.378 255.743 101.372 255.644 101.394 255.55C101.416 255.456 101.467 255.371 101.538 255.306C103.259 253.762 105.471 255.148 105.565 255.208C105.622 255.24 105.672 255.283 105.711 255.335C105.751 255.387 105.779 255.446 105.795 255.509C105.811 255.572 105.813 255.638 105.803 255.703C105.792 255.767 105.769 255.829 105.734 255.884C105.699 255.938 105.653 255.986 105.599 256.022C105.545 256.059 105.485 256.084 105.421 256.096C105.357 256.108 105.291 256.107 105.228 256.092C105.164 256.078 105.105 256.051 105.052 256.013C104.983 255.968 103.354 254.955 102.167 256.013C102.083 256.092 101.973 256.137 101.857 256.14Z" fill="#102A54"/>
<path d="M98.0635 264.216C98.0635 264.216 100.179 265.204 101.966 264.293C101.966 264.293 102.253 266.501 100.043 266.328C97.8327 266.154 98.0635 264.216 98.0635 264.216Z" fill="white"/>
<path d="M99.5928 266.438C99.5762 266.44 99.5594 266.44 99.5428 266.438C99.0475 266.322 98.6089 266.034 98.305 265.625C98.0012 265.216 97.8516 264.712 97.883 264.202L97.908 263.965L98.1292 264.056C100.437 265.007 101.857 264.156 101.87 264.146C101.91 264.121 101.959 264.112 102.006 264.123C102.052 264.133 102.093 264.162 102.118 264.202C102.144 264.243 102.152 264.292 102.142 264.338C102.131 264.385 102.103 264.426 102.062 264.451C102.001 264.488 100.591 265.355 98.2427 264.484C98.2773 264.909 98.4927 265.76 99.6428 266.092C99.6852 266.103 99.7221 266.129 99.7464 266.166C99.7708 266.202 99.781 266.247 99.7751 266.29C99.7691 266.334 99.7475 266.373 99.7143 266.402C99.681 266.431 99.6385 266.446 99.5947 266.445L99.5928 266.438Z" fill="#102A54"/>
<path d="M94.7477 281.807C94.4323 281.807 94.1015 281.792 93.7553 281.757C93.7318 281.755 93.709 281.748 93.6882 281.736C93.6674 281.725 93.6491 281.71 93.6342 281.691C93.6192 281.673 93.6081 281.652 93.6013 281.629C93.5945 281.606 93.5923 281.583 93.5947 281.559C93.5971 281.536 93.6041 281.513 93.6153 281.492C93.6265 281.471 93.6417 281.452 93.66 281.438C93.6783 281.423 93.6994 281.411 93.722 281.405C93.7446 281.398 93.7683 281.395 93.7918 281.398C100.121 282.033 100.995 276.437 101.029 276.2C101.032 276.176 101.04 276.153 101.052 276.133C101.064 276.112 101.08 276.094 101.099 276.08C101.118 276.066 101.14 276.056 101.163 276.05C101.186 276.044 101.21 276.043 101.233 276.047C101.28 276.054 101.322 276.079 101.351 276.117C101.379 276.155 101.392 276.203 101.385 276.25C101.375 276.308 100.527 281.807 94.7477 281.807Z" fill="#102A54"/>
<path d="M116.414 358.817C115.574 353.453 104.436 325.966 104.436 325.966L90.9825 323.843L69.4724 320.447C63.991 324.065 62.11 357.582 62.11 357.582L37.7188 405.786L46.2659 409.357C46.2659 409.357 78.3714 365.231 80.2678 360.641C81.1352 358.541 83.4528 350.656 85.7127 342.719C91.5691 353.964 100.02 362.629 100.02 362.629L98.8007 412.816H107.99C107.99 412.816 117.253 364.181 116.414 358.817Z" fill="#102A54"/>
<path d="M85.707 342.719L86.8841 334.567L94.0003 355.528C94.0003 355.528 87.3053 346.892 85.707 342.719Z" fill="#0C203F"/>
<path d="M105.348 277.33L107.986 291.186H116.466C116.466 291.186 110.904 278.816 105.348 277.33Z" fill="#FFB841"/>
<path d="M90.9781 308.647C90.4011 306.91 85.7525 273.594 85.7525 273.594C85.7525 273.594 78.871 274.02 74.6436 280.736C70.8086 286.822 59.2207 334.559 59.2207 334.559C59.2207 334.559 77.1497 332.571 79.0787 331.423C79.6961 331.054 80.6039 324.981 81.5501 316.901C82.1722 317.743 82.9248 318.48 83.7792 319.082C85.0439 319.974 86.5025 320.55 88.0336 320.762L114.802 324.479L116.462 318.204C116.462 318.204 91.5455 310.392 90.9781 308.647Z" fill="#FFB841"/>
<path d="M116.345 318.671L117.075 318.911C117.355 319.004 117.655 319.013 117.939 318.938C119.033 318.654 121.426 317.635 121.799 317.78C122.263 317.948 125.749 319.99 125.453 320.994C125.346 321.358 123.653 324.765 122.389 324.854C121.126 324.943 118.391 325.109 117.885 324.854C117.379 324.599 115.012 323.727 115.012 323.727L116.345 318.671Z" fill="#FFC0B1"/>
<path d="M125.102 321.886H123.992C123.952 321.886 123.914 321.871 123.886 321.842C123.858 321.814 123.842 321.776 123.842 321.736C123.842 321.696 123.858 321.658 123.886 321.63C123.914 321.602 123.952 321.586 123.992 321.586H125.102C125.141 321.586 125.18 321.602 125.208 321.63C125.236 321.658 125.252 321.696 125.252 321.736C125.252 321.776 125.236 321.814 125.208 321.842C125.18 321.871 125.141 321.886 125.102 321.886Z" fill="#102A54"/>
<path d="M124.299 323.026H123.189C123.149 323.026 123.111 323.01 123.083 322.982C123.055 322.954 123.039 322.916 123.039 322.876C123.039 322.836 123.055 322.798 123.083 322.77C123.111 322.741 123.149 322.726 123.189 322.726H124.299C124.319 322.726 124.338 322.729 124.356 322.737C124.374 322.745 124.391 322.756 124.405 322.77C124.419 322.784 124.43 322.8 124.437 322.818C124.445 322.837 124.449 322.856 124.449 322.876C124.449 322.896 124.445 322.915 124.437 322.933C124.43 322.951 124.419 322.968 124.405 322.982C124.391 322.996 124.374 323.007 124.356 323.015C124.338 323.022 124.319 323.026 124.299 323.026Z" fill="#102A54"/>
<path d="M123.465 324.162H122.353C122.313 324.162 122.275 324.146 122.247 324.118C122.219 324.09 122.203 324.051 122.203 324.012C122.203 323.992 122.207 323.973 122.215 323.954C122.222 323.936 122.233 323.92 122.247 323.906C122.261 323.892 122.278 323.881 122.296 323.874C122.314 323.867 122.334 323.863 122.353 323.863H123.465C123.484 323.863 123.504 323.867 123.522 323.874C123.54 323.881 123.556 323.892 123.57 323.906C123.584 323.92 123.595 323.936 123.602 323.955C123.609 323.973 123.613 323.992 123.613 324.012C123.613 324.031 123.609 324.051 123.602 324.069C123.595 324.087 123.584 324.104 123.57 324.118C123.556 324.132 123.54 324.143 123.522 324.15C123.504 324.158 123.484 324.162 123.465 324.162Z" fill="#102A54"/>
<path d="M81.5507 317.058C81.5275 317.058 81.5046 317.053 81.4839 317.042C81.4631 317.032 81.4452 317.017 81.4314 316.998C80.0631 315.035 78.99 312.881 78.2465 310.605C77.0444 306.901 74.7345 296.842 74.7115 296.742C74.7067 296.722 74.7057 296.702 74.7088 296.682C74.7118 296.662 74.7188 296.644 74.7292 296.626C74.7396 296.609 74.7533 296.595 74.7695 296.583C74.7857 296.571 74.804 296.563 74.8234 296.559C74.8428 296.554 74.8629 296.553 74.8825 296.557C74.9021 296.56 74.9209 296.568 74.9377 296.578C74.9545 296.589 74.969 296.603 74.9803 296.619C74.9917 296.636 74.9997 296.654 75.0038 296.674C75.0269 296.774 77.3329 306.819 78.5311 310.512C79.2651 312.757 80.3233 314.882 81.6719 316.818C81.6955 316.85 81.7056 316.89 81.6998 316.93C81.694 316.969 81.6729 317.005 81.6411 317.029C81.6147 317.048 81.5831 317.058 81.5507 317.058Z" fill="#102A54"/>
<path d="M101.983 250.249C101.698 250.75 101.305 251.18 100.831 251.507C100.357 251.834 99.8163 252.049 99.2482 252.136C98.1923 252.291 97.0729 251.996 96.0709 252.364C94.8842 252.802 94.1995 254.049 93.8322 255.26C93.4648 256.47 93.2937 257.769 92.6532 258.863C92.1224 259.769 91.2838 260.506 90.9665 261.51C90.7145 262.311 90.8338 263.18 90.9992 264.004C91.2086 265.041 91.4901 266.062 91.8416 267.059C92.1128 267.831 92.4186 268.59 92.5859 269.393C92.8307 270.639 92.6911 271.929 92.1858 273.093C91.1328 272.27 89.8748 271.753 88.5489 271.597C87.6334 271.491 86.6737 271.555 85.8313 271.182C84.535 270.603 83.8657 269.187 83.3849 267.851C83.2365 267.358 83.0203 266.888 82.7425 266.455C82.1655 265.668 81.2231 265.276 80.3922 264.772C79.5613 264.268 78.7516 263.469 78.8074 262.498C78.8142 262.395 78.8277 262.293 78.8478 262.191C79.0614 261.078 79.5841 260.047 80.3557 259.219C81.1923 258.306 82.0866 257.429 82.8675 256.507C84.4658 254.615 85.4736 252.302 86.7679 250.189C88.0623 248.075 89.799 246.05 92.1532 245.319C92.7913 245.131 93.4489 245.017 94.113 244.981C94.7779 244.921 95.4481 244.965 96.0998 245.11C97.7788 245.531 99.0309 246.894 100.181 248.199C100.845 248.93 101.329 249.511 101.983 250.249Z" fill="#102A54"/>
<path d="M101.616 249.189C101.599 250.275 101.641 251.505 102.445 252.231C102.727 252.463 103.043 252.651 103.382 252.788C104.255 253.188 105.195 253.586 105.753 254.369C106.176 254.964 106.33 255.705 106.559 256.394C106.788 257.083 107.186 257.794 107.861 258.066C109.101 256.419 109.448 254.265 109.486 252.202C109.503 251.237 109.475 250.252 109.073 249.383C108.607 248.382 107.692 247.658 106.72 247.139C106.196 246.838 105.622 246.635 105.026 246.54C103.432 246.334 101.651 247.567 101.616 249.189Z" fill="#102A54"/>
<path d="M97.7167 271.633C96.6954 271.633 95.3106 271.401 94.2855 270.353C94.2532 270.319 94.2355 270.273 94.2364 270.226C94.2372 270.179 94.2566 270.134 94.2902 270.101C94.3238 270.068 94.369 270.05 94.416 270.05C94.463 270.05 94.508 270.069 94.5413 270.102C96.1934 271.789 98.9899 271.146 99.0168 271.139C99.0632 271.128 99.1121 271.135 99.1528 271.16C99.1935 271.185 99.2228 271.225 99.2342 271.272C99.2423 271.318 99.2334 271.366 99.2089 271.406C99.1845 271.446 99.1463 271.476 99.1014 271.49C98.6462 271.587 98.182 271.635 97.7167 271.633Z" fill="#102A54"/>
<path d="M100.433 415.629L106.17 415.913L107.591 418.159L115.927 421.777C116.472 422.013 116.932 422.411 117.246 422.917C117.559 423.423 117.712 424.013 117.683 424.608L98.996 423.682C98.7818 423.672 98.5727 423.613 98.3844 423.51C98.1961 423.407 98.0334 423.263 97.9086 423.088C97.7837 422.913 97.6999 422.712 97.6633 422.5C97.6268 422.288 97.6386 422.07 97.6977 421.864L100.433 415.629Z" fill="#102A54"/>
<path d="M106.505 412.813L106.171 415.919L100.435 415.635L100.42 412.813H106.505Z" fill="#FFC0B1"/>
<path d="M37.882 409.038L43.2557 411.071L43.925 413.646L50.7565 419.649C51.2035 420.041 51.5205 420.561 51.6652 421.139C51.8099 421.717 51.7753 422.326 51.5662 422.884L34.0642 416.263C33.8644 416.187 33.6841 416.068 33.5368 415.912C33.3894 415.757 33.2788 415.571 33.2132 415.367C33.1476 415.163 33.1287 414.946 33.1578 414.734C33.1869 414.522 33.2634 414.318 33.3815 414.14L37.882 409.038Z" fill="#102A54"/>
<path d="M44.5221 408.62L43.2585 411.071L37.8848 409.039L38.8983 406.271L44.5221 408.62Z" fill="#FFC0B1"/>
<path d="M581.458 425.669H-49.0005C-49.2694 425.657 -49.5236 425.542 -49.7098 425.346C-49.896 425.151 -50 424.892 -50 424.621C-50 424.351 -49.896 424.091 -49.7098 423.896C-49.5236 423.701 -49.2694 423.586 -49.0005 423.574H581.456C581.725 423.586 581.979 423.701 582.165 423.896C582.351 424.091 582.455 424.351 582.455 424.621C582.455 424.892 582.351 425.151 582.165 425.346C581.979 425.542 581.725 425.657 581.456 425.669H581.458Z" fill="#102A54"/>
<path d="M129.533 374.16L146.618 374.058L163.704 374L197.874 373.952L232.043 373.998L249.128 374.058L266.212 374.16L249.128 374.262L232.043 374.32L197.874 374.368L163.704 374.32L146.618 374.262L129.533 374.16Z" fill="#102A54"/>
<path d="M185.254 333.207L207.358 333.105L229.463 333.047L273.674 332.999L317.882 333.047L339.987 333.105L362.093 333.207L339.987 333.309L317.882 333.369L273.674 333.415L229.463 333.367L207.358 333.309L185.254 333.207Z" fill="#102A54"/>
<path d="M132.229 362.136L116.473 362.238L100.719 362.296L69.2101 362.346L37.7007 362.297L21.947 362.238L6.19141 362.136L21.947 362.034L37.7007 361.976L69.2101 361.928L100.719 361.976L116.473 362.036L132.229 362.136Z" fill="#102A54"/>
<path d="M271.748 299.469L255.995 299.571L240.239 299.629L208.73 299.679L177.22 299.63L161.467 299.571L145.713 299.469L161.467 299.367L177.22 299.309L208.73 299.261L240.239 299.309L255.995 299.369L271.748 299.469Z" fill="#102A54"/>
<path d="M40.8906 219.158C43.7217 219.112 46.5528 219.091 49.3839 219.056L57.8752 218.998C63.5374 218.964 69.1996 218.968 74.8618 218.95L91.8464 218.998L100.34 219.056C103.171 219.091 106 219.11 108.831 219.158C106 219.206 103.171 219.226 100.34 219.26L91.8464 219.318L74.8618 219.366C69.1996 219.349 63.5374 219.353 57.8752 219.318L49.3839 219.26C46.5528 219.226 43.7256 219.204 40.8906 219.158Z" fill="#102A54"/>
<path d="M94.6309 180.377L105.124 180.275L115.618 180.217L136.603 180.169L157.588 180.215L168.082 180.275L178.573 180.377L168.082 180.479L157.588 180.537L136.603 180.585L115.618 180.537L105.124 180.479L94.6309 180.377Z" fill="#102A54"/>
<path d="M30.8496 193.199C33.0883 193.153 35.327 193.132 37.5658 193.097L44.2819 193.039C48.7574 193.005 53.2348 193.009 57.7123 192.991C62.1897 193.007 66.6671 193.005 71.1446 193.039L77.8607 193.097C80.0994 193.132 82.3381 193.151 84.5769 193.199C82.3381 193.247 80.0994 193.267 77.8607 193.301L71.1446 193.361C66.6671 193.394 62.1897 193.392 57.7123 193.407C53.2348 193.39 48.7574 193.394 44.2819 193.359L37.5677 193.301C35.327 193.263 33.0883 193.245 30.8496 193.199Z" fill="#102A54"/>
<path d="M504.724 286.244C516.888 217.082 503.513 156.9 474.852 151.822C446.191 146.745 413.095 198.696 400.932 267.858C388.769 337.019 402.143 397.202 430.804 402.279C459.466 407.356 492.561 355.406 504.724 286.244Z" fill="#102A54"/>
<path d="M495.498 284.611C507.661 215.45 494.287 155.267 465.625 150.19C436.964 145.112 403.869 197.063 391.705 266.225C379.542 335.386 392.916 395.569 421.578 400.646C450.239 405.724 483.334 353.773 495.498 284.611Z" fill="#E6515C"/>
<path d="M471.056 280.055C478.48 237.841 470.317 201.107 452.823 198.008C435.329 194.909 415.129 226.618 407.705 268.833C400.28 311.048 408.443 347.782 425.937 350.881C443.431 353.98 463.631 322.27 471.056 280.055Z" fill="white"/>
<path d="M451.07 276.224C454.726 255.437 450.706 237.348 442.092 235.822C433.478 234.296 423.531 249.911 419.875 270.698C416.22 291.486 420.239 309.575 428.853 311.101C437.467 312.627 447.414 297.012 451.07 276.224Z" fill="#E6515C"/>
<path d="M435.758 272.876H435.71L337.857 263.24C337.793 263.233 337.73 263.214 337.674 263.184C337.617 263.154 337.566 263.112 337.526 263.062C337.485 263.012 337.454 262.954 337.435 262.893C337.416 262.831 337.41 262.766 337.416 262.701C337.423 262.637 337.442 262.574 337.472 262.517C337.502 262.46 337.544 262.41 337.593 262.369C337.643 262.328 337.701 262.297 337.762 262.278C337.824 262.259 337.889 262.253 337.953 262.259L435.804 271.895C435.93 271.906 436.047 271.966 436.131 272.062C436.214 272.157 436.257 272.282 436.251 272.409C436.245 272.536 436.19 272.655 436.099 272.743C436.007 272.83 435.885 272.878 435.758 272.878V272.876Z" fill="#102A54"/>
<path d="M340.84 257.16L344.309 263.126L339.659 268.218L317.166 265.796L321.817 260.704L318.349 254.737L340.84 257.16Z" fill="#102A54"/>
<path d="M435.186 264.833C435.142 264.833 435.098 264.825 435.057 264.812L356.009 239.193C355.954 239.179 355.902 239.154 355.857 239.119C355.812 239.085 355.775 239.041 355.747 238.991C355.72 238.941 355.703 238.886 355.697 238.829C355.692 238.772 355.698 238.715 355.716 238.66C355.733 238.606 355.762 238.556 355.799 238.513C355.837 238.47 355.883 238.436 355.934 238.411C355.986 238.387 356.042 238.374 356.099 238.372C356.156 238.371 356.212 238.381 356.265 238.402L435.313 264.02C435.406 264.052 435.485 264.115 435.536 264.199C435.588 264.283 435.607 264.383 435.592 264.481C435.577 264.578 435.528 264.667 435.453 264.732C435.379 264.796 435.284 264.832 435.186 264.833Z" fill="#102A54"/>
<path d="M359.567 234.717L361.36 240.269L356.609 243.631L338.479 237.57L343.229 234.208L341.435 228.658L359.567 234.717Z" fill="#102A54"/>
<path d="M338.202 292.041C338.077 292.044 337.955 291.998 337.862 291.913C337.769 291.828 337.712 291.711 337.702 291.585C337.693 291.459 337.733 291.334 337.813 291.237C337.892 291.139 338.006 291.076 338.131 291.06L435.386 276.552C435.513 276.539 435.639 276.575 435.739 276.654C435.84 276.732 435.906 276.845 435.925 276.972C435.943 277.098 435.913 277.226 435.839 277.33C435.766 277.434 435.655 277.505 435.531 277.529L338.276 292.035L338.202 292.041Z" fill="#102A54"/>
<path d="M336.499 286.318L341.392 291.175L338.217 297.304L315.868 300.824L319.043 294.696L314.15 289.837L336.499 286.318Z" fill="#102A54"/>
<path d="M469.987 424.611C469.987 424.611 537.158 388.789 544.724 351.647C544.724 351.647 507.285 368.568 471.237 399.846C471.237 399.846 504.481 374.641 504.481 334.557C504.481 334.557 463.632 369.018 447.596 396.81C447.596 396.81 451.827 360.208 442.451 342.22C442.451 342.22 426.415 368.265 430.046 402.882C430.046 402.882 413.465 384.352 389.53 376.16C389.53 376.16 396.157 406.224 415.219 413.815C415.219 413.815 393.132 405.009 371.043 406.224C371.043 406.224 378.736 424.602 397.669 424.602L469.987 424.611Z" fill="#6CB597"/>
<path d="M430.205 424.612C430.205 424.612 422.333 420.41 415.973 403.231C415.973 403.231 431.111 408.334 437.598 413.921C437.598 413.921 446.788 400.698 460.662 389.485C460.662 389.485 464.807 405.038 455.258 416.25C455.258 416.25 472.402 407.371 501.671 404.211C501.671 404.211 490.577 421.036 473.998 424.612H430.205Z" fill="#102A54"/>
<g clip-path="url(#clip1_3618_3698)">
<path d="M508.923 61.1702C510.07 61.1702 511 60.2367 511 59.0851C511 57.9335 510.07 57 508.923 57C507.776 57 506.846 57.9335 506.846 59.0851C506.846 60.2367 507.776 61.1702 508.923 61.1702Z" fill="#005264"/>
<path d="M488.018 59.0856C488.015 58.6696 488.135 58.2622 488.363 57.9149C488.591 57.5676 488.917 57.2961 489.299 57.1348C489.681 56.9736 490.102 56.9299 490.509 57.0093C490.915 57.0886 491.29 57.2874 491.584 57.5805C491.878 57.8736 492.078 58.2478 492.16 58.6555C492.242 59.0633 492.202 59.4863 492.044 59.8709C491.886 60.2554 491.618 60.5843 491.273 60.8158C490.929 61.0472 490.524 61.1707 490.11 61.1707C489.557 61.1707 489.028 60.9515 488.636 60.5609C488.244 60.1703 488.022 59.64 488.018 59.0856V59.0856Z" fill="#005264"/>
<path d="M471.384 61.1702C472.531 61.1702 473.461 60.2367 473.461 59.0851C473.461 57.9335 472.531 57 471.384 57C470.237 57 469.307 57.9335 469.307 59.0851C469.307 60.2367 470.237 61.1702 471.384 61.1702Z" fill="#005264"/>
<path d="M452.616 61.1702C453.763 61.1702 454.693 60.2367 454.693 59.0851C454.693 57.9335 453.763 57 452.616 57C451.469 57 450.539 57.9335 450.539 59.0851C450.539 60.2367 451.469 61.1702 452.616 61.1702Z" fill="#005264"/>
<path d="M433.847 61.1702C434.994 61.1702 435.924 60.2367 435.924 59.0851C435.924 57.9335 434.994 57 433.847 57C432.7 57 431.77 57.9335 431.77 59.0851C431.77 60.2367 432.7 61.1702 433.847 61.1702Z" fill="#005264"/>
<path d="M415.077 61.1702C416.224 61.1702 417.154 60.2367 417.154 59.0851C417.154 57.9335 416.224 57 415.077 57C413.93 57 413 57.9335 413 59.0851C413 60.2367 413.93 61.1702 415.077 61.1702Z" fill="#005264"/>
<path d="M508.923 73.0853C510.07 73.0853 511 72.1517 511 71.0001C511 69.8486 510.07 68.915 508.923 68.915C507.776 68.915 506.846 69.8486 506.846 71.0001C506.846 72.1517 507.776 73.0853 508.923 73.0853Z" fill="#005264"/>
<path d="M488.018 71.0006C488.015 70.5847 488.135 70.1772 488.363 69.8299C488.591 69.4826 488.917 69.2111 489.299 69.0499C489.681 68.8887 490.102 68.845 490.509 68.9243C490.915 69.0036 491.29 69.2024 491.584 69.4955C491.878 69.7886 492.078 70.1628 492.16 70.5706C492.242 70.9783 492.202 71.4013 492.044 71.7859C491.886 72.1705 491.618 72.4994 491.273 72.7308C490.929 72.9622 490.524 73.0857 490.11 73.0857C489.557 73.0857 489.028 72.8666 488.636 72.4759C488.244 72.0853 488.022 71.555 488.018 71.0006V71.0006Z" fill="#005264"/>
<path d="M471.384 73.0853C472.531 73.0853 473.461 72.1517 473.461 71.0001C473.461 69.8486 472.531 68.915 471.384 68.915C470.237 68.915 469.307 69.8486 469.307 71.0001C469.307 72.1517 470.237 73.0853 471.384 73.0853Z" fill="#005264"/>
<path d="M452.616 73.0853C453.763 73.0853 454.693 72.1517 454.693 71.0001C454.693 69.8486 453.763 68.915 452.616 68.915C451.469 68.915 450.539 69.8486 450.539 71.0001C450.539 72.1517 451.469 73.0853 452.616 73.0853Z" fill="#005264"/>
<path d="M433.847 73.0853C434.994 73.0853 435.924 72.1517 435.924 71.0001C435.924 69.8486 434.994 68.915 433.847 68.915C432.7 68.915 431.77 69.8486 431.77 71.0001C431.77 72.1517 432.7 73.0853 433.847 73.0853Z" fill="#005264"/>
<path d="M415.077 73.0853C416.224 73.0853 417.154 72.1517 417.154 71.0001C417.154 69.8486 416.224 68.915 415.077 68.915C413.93 68.915 413 69.8486 413 71.0001C413 72.1517 413.93 73.0853 415.077 73.0853Z" fill="#005264"/>
<path d="M508.923 84.9856C510.07 84.9856 511 84.0521 511 82.9005C511 81.749 510.07 80.8154 508.923 80.8154C507.776 80.8154 506.846 81.749 506.846 82.9005C506.846 84.0521 507.776 84.9856 508.923 84.9856Z" fill="#005264"/>
<path d="M488.018 82.9001C488.015 82.4841 488.135 82.0766 488.363 81.7293C488.591 81.382 488.917 81.1106 489.299 80.9493C489.681 80.7881 490.102 80.7444 490.509 80.8237C490.915 80.903 491.29 81.1019 491.584 81.3949C491.878 81.688 492.078 82.0622 492.16 82.47C492.242 82.8777 492.202 83.3007 492.044 83.6853C491.886 84.0699 491.618 84.3988 491.273 84.6302C490.929 84.8616 490.524 84.9852 490.11 84.9852C489.557 84.9852 489.028 84.766 488.636 84.3753C488.244 83.9847 488.022 83.4544 488.018 82.9001V82.9001Z" fill="#005264"/>
<path d="M471.384 84.9856C472.531 84.9856 473.461 84.0521 473.461 82.9005C473.461 81.749 472.531 80.8154 471.384 80.8154C470.237 80.8154 469.307 81.749 469.307 82.9005C469.307 84.0521 470.237 84.9856 471.384 84.9856Z" fill="#005264"/>
<path d="M452.616 84.9856C453.763 84.9856 454.693 84.0521 454.693 82.9005C454.693 81.749 453.763 80.8154 452.616 80.8154C451.469 80.8154 450.539 81.749 450.539 82.9005C450.539 84.0521 451.469 84.9856 452.616 84.9856Z" fill="#005264"/>
<path d="M433.847 84.9856C434.994 84.9856 435.924 84.0521 435.924 82.9005C435.924 81.749 434.994 80.8154 433.847 80.8154C432.7 80.8154 431.77 81.749 431.77 82.9005C431.77 84.0521 432.7 84.9856 433.847 84.9856Z" fill="#005264"/>
<path d="M415.077 84.9856C416.224 84.9856 417.154 84.0521 417.154 82.9005C417.154 81.749 416.224 80.8154 415.077 80.8154C413.93 80.8154 413 81.749 413 82.9005C413 84.0521 413.93 84.9856 415.077 84.9856Z" fill="#005264"/>
</g>
<g clip-path="url(#clip2_3618_3698)">
<path fill-rule="evenodd" clip-rule="evenodd" d="M79.9993 51.467L57.7526 64.2334L35.5059 76.9997V51.467V25.9375L57.7526 38.7039L79.9993 51.467Z" fill="#F4F7FD"/>
<path fill-rule="evenodd" clip-rule="evenodd" d="M33.2975 8C37.1037 8.00342 40.8601 8.85961 44.2874 10.5049C47.7147 12.1502 50.7248 14.5422 53.0936 17.5032C55.4625 20.4641 57.1293 23.9177 57.97 27.6071C58.8107 31.2965 58.8037 35.1269 57.9495 38.8132L55.4211 37.365C56.1535 33.5728 55.8865 29.6569 54.6461 25.9976C53.4058 22.3383 51.2343 19.06 48.3425 16.4812C45.4507 13.9025 41.937 12.1109 38.1428 11.2805C34.3485 10.4502 30.4026 10.6093 26.6885 11.7424C22.9744 12.8755 19.6183 14.944 16.9462 17.7471C14.2741 20.5503 12.3769 23.9926 11.4389 27.7397C10.5009 31.4869 10.554 35.4115 11.5929 39.1322C12.6319 42.853 14.6215 46.2434 17.3685 48.9741C25.2132 56.7676 35.593 55.4152 35.5065 55.4218V58.1894C35.5764 58.1894 34.0993 58.2588 33.2975 58.2852C26.5882 58.2852 20.1537 55.6363 15.4095 50.9211C10.6653 46.206 8 39.8109 8 33.1426C8 26.4744 10.6653 20.0793 15.4095 15.3641C20.1537 10.6489 26.5882 8 33.2975 8V8Z" fill="#F4F7FD"/>
</g>
</g>
<defs>
<clipPath id="clip0_3618_3698">
<rect width="540" height="426" fill="white"/>
</clipPath>
<clipPath id="clip1_3618_3698">
<rect width="98" height="28" fill="white" transform="translate(413 57)"/>
</clipPath>
<clipPath id="clip2_3618_3698">
<rect width="72" height="69" fill="white" transform="translate(8 8)"/>
</clipPath>
</defs>
</svg>
