<?xml version="1.0" encoding="utf-8"?>
<!-- Generator: Adobe Illustrator 25.4.1, SVG Export Plug-In . SVG Version: 6.00 Build 0)  -->
<svg version="1.1" id="Layer_1" xmlns="http://www.w3.org/2000/svg" xmlns:xlink="http://www.w3.org/1999/xlink" x="0px" y="0px"
	 viewBox="0 0 346.33 112.65" style="enable-background:new 0 0 346.33 112.65;" xml:space="preserve">
<style type="text/css">
	.st0{display:none;}
	.st1{display:inline;}
	.st2{fill:url(#SVGID_1_);}
	.st3{fill:url(#SVGID_00000105420331936190331740000000902547552485445806_);}
	.st4{fill:#164B77;}
	.st5{fill:url(#SVGID_00000149367840433835134300000016165906499460552883_);}
	.st6{fill:url(#SVGID_00000084502181449587541490000015646020290559974529_);}
	.st7{fill:url(#SVGID_00000176728721066615997120000013714680328798620324_);}
	.st8{fill:#FFFFFF;}
</style>
<g id="Logo" class="st0">
	<g id="XMLID_5_" class="st1">
		<g id="XMLID_59_">
			<g>
				
					<linearGradient id="SVGID_1_" gradientUnits="userSpaceOnUse" x1="47.9921" y1="131.2808" x2="26.7926" y2="228.9436" gradientTransform="matrix(0.9992 0.0392 0.0392 -0.9992 -7.2923 244.7209)">
					<stop  offset="0" style="stop-color:#40BFB4"/>
					<stop  offset="0.2315" style="stop-color:#00B7AA"/>
					<stop  offset="1" style="stop-color:#27004B"/>
				</linearGradient>
				<path class="st2" d="M60.71,94.91c-1-1.29-1.94-2.5-2.94-3.79c-1.18,0.92-2.29,1.77-3.37,2.66c-0.13,0.11-0.18,0.52-0.08,0.66
					c0.82,1.13,1.69,2.22,2.6,3.41C58.22,96.85,59.42,95.91,60.71,94.91z M40.73,107.61c0.82,1.06,1.57,2.01,2.38,3.06
					c1.04-0.81,2-1.56,3.05-2.37c-0.81-1.04-1.56-2-2.37-3.05C42.72,106.06,41.76,106.81,40.73,107.61z M40.51,99.48
					c1.78-1.37,3.5-2.71,5.3-4.1c-1.48-1.91-2.88-3.72-4.35-5.61c1.91-1.49,3.75-2.92,5.7-4.44c-1-1.28-1.96-2.51-2.92-3.73
					c-1.18-1.5-1.18-1.51,0.32-2.67c1.37-1.07,2.74-2.12,4.19-3.24c1.25,1.61,2.5,3.13,3.64,4.72c0.58,0.81,1.02,0.94,1.8,0.24
					c1.12-0.99,2.35-1.86,3.61-2.85c-0.22-0.31-0.38-0.59-0.58-0.84c-4.57-5.84-9.23-11.63-13.7-17.55
					c-4.4-5.82-8.4-11.91-10.95-18.83c-1.82-4.95-2.9-10.02-2.4-15.33c0.14-1.49,0.4-2.98,0.76-4.44c0.36-1.45,0.91-2.86,1.45-4.5
					c-0.23,0.25-0.37,0.39-0.5,0.54C21.38,29.36,10.87,41.88,0.32,54.36c-0.56,0.67-0.28,1.04,0.1,1.53
					c5.59,7.21,11.18,14.43,16.77,21.64c4.71,6.08,9.42,12.15,14.14,18.22c0.24,0.31,0.5,0.61,0.83,1.02
					c1.35-1.03,2.59-1.98,3.91-2.99C37.55,95.69,38.98,97.52,40.51,99.48z M38.83,98.82c-1.09,0.85-2.05,1.6-3.11,2.43
					c0.83,1.07,1.6,2.06,2.42,3.12c1.07-0.83,2.03-1.58,3.13-2.42C40.47,100.91,39.7,99.93,38.83,98.82z M59.87,87.73
					c1.24-0.96,2.38-1.84,3.62-2.81c-0.95-1.22-1.84-2.37-2.81-3.62c-1.21,0.93-2.35,1.82-3.63,2.8
					C58,85.33,58.91,86.49,59.87,87.73z M60.66,90.29c0.66,0.84,1.27,1.63,1.96,2.51c0.87-0.67,1.64-1.27,2.51-1.94
					c-0.66-0.85-1.26-1.62-1.95-2.51C62.33,88.99,61.56,89.59,60.66,90.29z M55.86,99.46c-0.58-0.75-1.06-1.42-1.61-2.04
					c-0.13-0.15-0.57-0.23-0.73-0.13c-0.71,0.48-1.37,1.03-2.12,1.61c0.72,0.93,1.31,1.68,1.96,2.52
					C54.23,100.73,55,100.13,55.86,99.46z M48.89,97.54c1.41-1.09,2.72-2.11,4.17-3.23c-1.09-1.4-2.13-2.75-3.24-4.18
					c-1.41,1.09-2.72,2.11-4.17,3.24C46.77,94.81,47.8,96.14,48.89,97.54z M57.83,87.49c-1.59-2.04-3.12-4.01-4.73-6.07
					c-1.8,1.4-3.47,2.67-5.1,4c-0.17,0.13-0.27,0.64-0.15,0.8c1.39,1.87,2.83,3.71,4.34,5.66C54.08,90.39,55.91,88.97,57.83,87.49z
					 M60.96,97.87c0.71,0.92,1.38,1.8,2.12,2.75c0.95-0.73,1.81-1.39,2.77-2.12c-0.73-0.93-1.39-1.79-2.16-2.76
					C62.74,96.48,61.91,97.13,60.96,97.87z M70.92,100.42c0.58,0.76,1.12,1.45,1.77,2.29c0.77-0.6,1.49-1.15,2.29-1.78
					c-0.62-0.8-1.16-1.5-1.77-2.29C72.43,99.24,71.73,99.78,70.92,100.42z M47.96,97.73c-1.67,1.3-3.22,2.5-4.88,3.8
					c1.28,1.65,2.5,3.22,3.8,4.89c1.65-1.28,3.22-2.5,4.89-3.79C50.49,100.97,49.27,99.41,47.96,97.73z M77.99,103.54
					c-0.47,0.35-0.88,0.66-1.38,1.04c0.38,0.49,0.7,0.92,1.08,1.42c0.49-0.38,0.91-0.7,1.44-1.1
					C78.71,104.4,78.38,104.01,77.99,103.54z M66.6,95.01c0.58,0.76,1.12,1.45,1.75,2.28c0.77-0.6,1.48-1.16,2.28-1.79
					c-0.61-0.78-1.16-1.48-1.78-2.27C68.04,93.87,67.37,94.4,66.6,95.01z M70.68,107.24c0.42,0.56,0.82,1.08,1.27,1.67
					c0.58-0.46,1.07-0.84,1.63-1.29c-0.43-0.56-0.8-1.05-1.24-1.62C71.79,106.41,71.32,106.76,70.68,107.24z M48.92,108.51
					c0.97,1.25,1.84,2.38,2.81,3.63c1.22-0.95,2.38-1.85,3.63-2.82c-0.96-1.24-1.85-2.38-2.82-3.63
					C51.31,106.65,50.17,107.54,48.92,108.51z M58.65,99.54c-1.19,0.92-2.31,1.79-3.55,2.75c0.96,1.24,1.81,2.34,2.75,3.54
					c1.2-0.93,2.32-1.79,3.55-2.75C60.48,101.9,59.61,100.78,58.65,99.54z M59.23,109.64c0.82,1.06,1.55,2,2.33,3.01
					c1.01-0.79,1.94-1.51,2.99-2.32c-0.78-1.01-1.52-1.97-2.32-3.01C61.2,108.11,60.27,108.84,59.23,109.64z M62.99,103.83
					c0.78,1,1.51,1.94,2.32,2.99c1.01-0.78,1.97-1.52,3.02-2.32c-0.81-1.04-1.54-1.97-2.34-3
					C64.97,102.29,64.03,103.02,62.99,103.83z"/>
			</g>
		</g>
		<g id="XMLID_7_">
			<g>
				
					<linearGradient id="SVGID_00000109713640439581882200000005918543019931508640_" gradientUnits="userSpaceOnUse" x1="11.4073" y1="74.5303" x2="79.826" y2="6.1117" gradientTransform="matrix(1 2.300000e-03 -2.300000e-03 1 -0.2868 0.5724)">
					<stop  offset="0" style="stop-color:#40BFB4"/>
					<stop  offset="0.2315" style="stop-color:#00B7AA"/>
					<stop  offset="1" style="stop-color:#27004B"/>
				</linearGradient>
				<path style="fill:url(#SVGID_00000109713640439581882200000005918543019931508640_);" d="M54.15,30.86
					c1.69-2,3.31-3.9,4.98-5.87c-1.85-1.56-3.62-3.06-5.46-4.61c-1.59,1.88-3.1,3.66-4.57,5.47c-0.12,0.15-0.04,0.66,0.12,0.81
					C50.79,28.04,52.4,29.39,54.15,30.86z M62.31,17.69c-1.25-1.05-2.41-2.03-3.67-3.09c-0.96,1.14-1.87,2.2-2.74,3.29
					c-0.1,0.13-0.07,0.55,0.05,0.66c1.04,0.93,2.11,1.83,3.25,2.8C60.27,20.1,61.26,18.94,62.31,17.69z M49.69,14.34
					c1.37-1.62,2.66-3.14,4.01-4.73c-1.62-1.37-3.14-2.65-4.73-3.99c-1.37,1.62-2.65,3.13-4,4.73
					C46.58,11.71,48.08,12.98,49.69,14.34z M55.95,14.91c0.57-0.59,1.09-1.25,1.7-1.97c-0.82-0.7-1.57-1.33-2.42-2.05
					c-0.68,0.8-1.3,1.54-2.06,2.43c0.72,0.61,1.36,1.19,2.05,1.69C55.37,15.12,55.81,15.06,55.95,14.91z M57.56,3.07
					c-1.21-1.02-2.33-1.97-3.51-2.97c-1.02,1.21-1.94,2.29-2.96,3.51c1.21,1.02,2.31,1.96,3.5,2.97
					C55.61,5.38,56.55,4.27,57.56,3.07z M75.69,5.52c-0.54-0.47-1.01-0.87-1.57-1.35c-0.48,0.57-0.89,1.08-1.34,1.62
					c0.62,0.51,1.08,0.88,1.6,1.3C74.84,6.53,75.24,6.06,75.69,5.52z M47.2,18.6c1.41,1.19,2.67,2.26,4.03,3.41
					c1.16-1.38,2.26-2.68,3.41-4.04c-1.41-1.19-2.68-2.26-4.03-3.4C49.46,15.93,48.37,17.22,47.2,18.6z M66.78,2.44
					C65.77,1.59,64.87,0.82,63.89,0c-0.82,0.97-1.58,1.88-2.45,2.91c1,0.85,1.91,1.61,2.9,2.44C65.18,4.35,65.96,3.42,66.78,2.44z
					 M60.44,12.98c1.01-1.19,1.92-2.28,2.9-3.43c-1.19-1-2.27-1.91-3.44-2.89c-0.98,1.17-1.88,2.23-2.89,3.43
					C58.21,11.09,59.29,12,60.44,12.98z M48.32,3.71c-1.02-0.86-1.94-1.64-2.95-2.5c-0.85,1.01-1.64,1.93-2.5,2.96
					c1,0.85,1.93,1.63,2.95,2.49C46.68,5.65,47.47,4.73,48.32,3.71z M67.4,5.98C66.54,7,65.78,7.91,64.96,8.88
					c1.01,0.85,1.92,1.62,2.9,2.45c0.85-1,1.61-1.9,2.46-2.9C69.31,7.58,68.38,6.8,67.4,5.98z M72.74,12.61
					c0.78,0.67,1.46,1.24,2.21,1.88c0.65-0.77,1.21-1.44,1.86-2.22c-0.78-0.66-1.47-1.24-2.21-1.87
					C73.93,11.2,73.36,11.88,72.74,12.61z M68.2,17.83c0.75,0.64,1.4,1.2,2.18,1.87c0.65-0.77,1.23-1.44,1.87-2.19
					c-0.77-0.65-1.46-1.24-2.2-1.88C69.38,16.43,68.81,17.1,68.2,17.83z M79.74,7.31c-0.4,0.48-0.74,0.9-1.14,1.37
					c0.49,0.4,0.89,0.73,1.34,1.1c0.41-0.45,0.76-0.84,1.19-1.31C80.62,8.05,80.21,7.71,79.74,7.31z M62.68,14.74
					c0.92,0.78,1.73,1.47,2.64,2.24c0.8-0.94,1.5-1.77,2.27-2.67c-0.93-0.77-1.76-1.46-2.68-2.23C64.14,13,63.43,13.85,62.68,14.74z
					 M53.41,31.84c-1.21,1.55-2.52,3.01-3.84,4.57c-1.4-1.18-2.73-2.29-4.06-3.41c-1.45-1.23-1.45-1.23-0.21-2.69
					c1.01-1.19,2.02-2.37,3.07-3.61c-1.89-1.6-3.66-3.11-5.51-4.68c1.54-1.83,3.02-3.58,4.58-5.42c-1.74-1.46-3.41-2.87-5.12-4.31
					c-1.61,1.89-3.12,3.66-4.68,5.49c-1.28-1.06-2.48-2.06-3.78-3.15c-0.35,0.4-0.62,0.69-0.88,0.99
					c-4.96,5.87-9.92,11.75-14.88,17.62C12.22,40.22,6.34,47.2,0.46,54.17c-0.4,0.48-0.7,0.84-0.17,1.53
					C10.31,68.61,20.3,81.55,30.3,94.48c0.12,0.16,0.25,0.3,0.47,0.56c-0.47-1.66-0.96-3.09-1.26-4.56c-0.3-1.47-0.5-2.97-0.57-4.47
					c-0.28-5.32,1.01-10.35,3.03-15.21C34.8,64,39.05,58.08,43.69,52.44c4.71-5.73,9.6-11.31,14.41-16.96
					c0.21-0.24,0.38-0.51,0.61-0.81c-1.22-1.04-2.41-1.96-3.49-3C54.46,30.94,54.02,31.05,53.41,31.84z M58.21,28.33
					c1.23,1.04,2.34,1.97,3.51,2.95c1.02-1.21,1.95-2.32,2.95-3.5c-1.2-1.01-2.31-1.94-3.5-2.95
					C60.16,26.03,59.21,27.15,58.21,28.33z M43.19,9.85c-1.06-0.89-2-1.68-3.03-2.55c-0.87,1.02-1.67,1.98-2.55,3.01
					c1.02,0.87,1.95,1.66,3.01,2.56C41.53,11.8,42.33,10.85,43.19,9.85z M62.06,22.31c0.88,0.73,1.62,1.36,2.43,2.04
					c0.73-0.86,1.36-1.6,2.05-2.43c-0.84-0.71-1.59-1.33-2.43-2.04C63.41,20.73,62.76,21.49,62.06,22.31z"/>
			</g>
		</g>
	</g>
	<g id="XMLID_10_" class="st1">
		<path id="XMLID_46_" class="st4" d="M316.76,15.67c0.88,0,1.79,0,2.68,0c0.64,0,1.01,0,1.44,0c0.88,0,1.65-0.03,2.32,0.6
			c0.88,0.64,1.08,1.39,1.14,2.48c0,0.67-0.03,1.47-0.67,2.14c0,0-0.21,0.21-0.28,0.28c0.07,0.07,0.5,0.26,0.57,0.33
			c0.88,0.88,1.08,1.91,1.01,3c-0.07,0.88-0.67,1.7-1.34,2.12c-0.67,0.42-1.6,0.56-2.27,0.56c-1.37,0-2.81,0-4.18,0
			c0,0-0.28,0-0.34,0c-0.07,0-0.29-0.23-0.29-0.29c0-0.07,0-0.34,0-0.41c0-2.38-0.03-4.67-0.03-7.26c0-1.01,0.03-2.32,0.03-3.33
			C316.55,15.88,316.7,15.73,316.76,15.67z M318.93,20.19c0.67,0.06,1.45,0.02,2.33-0.05c0.36-0.03,0.56-0.31,0.62-0.38
			c0.42-0.42,0.49-1.04,0.06-1.68c-0.28-0.28-0.73-0.42-1.01-0.42c-0.67,0-1.16,0-1.8,0l-0.21,0.15
			C318.93,18.69,318.93,19.31,318.93,20.19z M318.93,24.99c0.07,0,0.36,0,0.64,0c0.64,0,1.16,0,1.79,0c0.43-0.07,0.74-0.1,1-0.31
			c0.64-0.43,0.65-1.47,0.02-1.89c-0.38-0.18-0.67-0.28-1.09-0.28c-0.64,0-1.32,0-1.99,0c0,0-0.29,0-0.36,0
			C318.93,23.39,318.93,24.11,318.93,24.99z"/>
		<path id="XMLID_68_" class="st4" d="M329.22,15.52c0.67,0,1.53,0,2.21,0c1.37,0,2.54,0.29,3.43,1.31
			c0.64,0.67,0.85,1.68,0.92,2.56c0.07,1.29,0.18,2.56-0.1,3.85c-0.07,0.64-0.21,1.34-0.49,1.98c-0.64,0.88-1.11,1.17-1.99,1.6
			c-0.06,0.07-0.6,0.23-0.67,0.23c-0.64,0.07-1.13,0.16-1.8,0.16c-1.09,0-2.3,0-3.4,0c-0.06,0-0.21,0-0.28,0
			c-0.42-0.07-0.42-0.21-0.42-0.49c0-1.09,0-2.19,0-3.2c0-2.38,0-4.95,0-7.33c0-0.67,0.03-0.67,0.7-0.67
			C327.96,15.52,328.55,15.52,329.22,15.52z M328.83,24.62c0.88,0,1.71-0.02,2.6-0.08c0.88,0,1.48-0.33,1.78-1.04
			c0.28-1.01,0.26-2.25,0.26-3.26c-0.06-0.42-0.16-1.08-0.39-1.44c-0.42-0.67-0.91-0.88-1.8-0.88c-0.67,0-1.42,0-2.09,0
			c0,0-0.28,0.11-0.29,0.21C328.89,20.23,328.76,22.3,328.83,24.62z"/>
	</g>
	<g id="XMLID_26_" class="st1">
		<path id="XMLID_4_" class="st4" d="M65.84,68.03c0.64,0.12,1.38,0.24,2.22,0.36c0.84,0.12,1.7,0.21,2.58,0.27
			c0.88,0.06,1.75,0.09,2.61,0.09c0.86,0,1.65-0.02,2.37-0.06c1.68-0.12,3.02-0.43,4.04-0.93c1.02-0.5,1.66-1.12,1.92-1.86
			c0.26-0.74,0.08-1.57-0.54-2.49c-0.62-0.92-1.75-1.84-3.38-2.75c-2.28-1.28-4.04-2.64-5.3-4.07c-1.26-1.44-1.99-3.33-2.19-5.69
			c-0.12-1.12-0.02-2.27,0.3-3.44c0.32-1.18,0.76-2.23,1.32-3.15c0.88-1.56,2.06-2.9,3.53-4.04c1.48-1.14,3.11-2.09,4.91-2.85
			c1.8-0.76,3.67-1.35,5.63-1.77c1.96-0.42,3.81-0.71,5.57-0.87c2.08-0.2,4.04-0.26,5.9-0.18c1.86,0.08,3.82,0.22,5.9,0.42
			l-3.11,12.22c-0.68-0.16-1.53-0.29-2.55-0.39c-1.02-0.1-2.07-0.13-3.15-0.09c-1.08,0.04-2.13,0.14-3.15,0.3
			c-1.02,0.16-1.87,0.4-2.55,0.72c-1.08,0.56-2.05,1.33-2.91,2.31c-0.86,0.98-1.27,2.11-1.23,3.38c0,0.72,0.29,1.36,0.87,1.92
			c0.58,0.56,1.27,1.08,2.07,1.56c0.8,0.48,1.61,0.91,2.43,1.29c0.82,0.38,1.47,0.75,1.95,1.11c0.64,0.48,1.3,0.96,1.98,1.44
			c0.68,0.48,1.29,1.01,1.83,1.59c0.54,0.58,0.95,1.23,1.23,1.95c0.28,0.72,0.36,1.54,0.24,2.46c-0.08,0.64-0.26,1.3-0.54,1.97
			c-0.28,0.68-0.6,1.3-0.96,1.86c-1.64,2.2-3.72,3.9-6.26,5.12c-2.54,1.22-5.25,2.07-8.15,2.55c-2.9,0.48-5.83,0.67-8.81,0.57
			c-2.98-0.1-5.72-0.39-8.24-0.87L65.84,68.03z"/>
		<path id="XMLID_33_" class="st4" d="M127.85,34.01c3.11-0.04,5.79,0.5,8.03,1.62c2.24,1.12,4,2.66,5.3,4.61
			c1.3,1.96,2.11,4.28,2.43,6.98c0.32,2.7,0.14,5.62-0.54,8.78c-0.76,3.52-1.94,6.71-3.53,9.58c-1.6,2.88-3.53,5.34-5.81,7.4
			c-2.28,2.06-4.87,3.66-7.79,4.79c-2.92,1.14-6.07,1.71-9.46,1.71c-2.88,0-5.35-0.59-7.43-1.77c-2.08-1.18-3.72-2.76-4.94-4.76
			c-1.22-2-2.01-4.32-2.37-6.98c-0.36-2.66-0.26-5.46,0.3-8.42c0.72-3.83,1.9-7.21,3.53-10.12c1.64-2.92,3.6-5.36,5.9-7.34
			c2.3-1.98,4.84-3.47,7.64-4.49C121.89,34.58,124.81,34.05,127.85,34.01z M124.61,47.72c-1.32,0-2.55,0.3-3.68,0.9
			c-1.14,0.6-2.16,1.4-3.06,2.4c-0.9,1-1.67,2.14-2.31,3.42c-0.64,1.28-1.12,2.6-1.44,3.95c-0.36,1.28-0.49,2.53-0.39,3.74
			c0.1,1.22,0.38,2.32,0.84,3.29c0.46,0.98,1.1,1.77,1.92,2.37c0.82,0.6,1.79,0.88,2.91,0.84c1.12-0.04,2.25-0.37,3.39-0.99
			c1.14-0.62,2.19-1.42,3.17-2.39c0.98-0.98,1.84-2.12,2.58-3.42c0.74-1.3,1.29-2.67,1.65-4.1c0.32-1.36,0.44-2.65,0.36-3.86
			c-0.08-1.22-0.35-2.29-0.81-3.21c-0.46-0.92-1.12-1.64-1.98-2.16C126.9,47.99,125.85,47.72,124.61,47.72z"/>
		<path id="XMLID_36_" class="st4" d="M160.79,54.37c1-0.16,2.13-0.28,3.38-0.36c1.26-0.08,2.53-0.14,3.8-0.18
			c1.28-0.04,2.53-0.06,3.75-0.06c1.22,0,2.29,0,3.2,0c-0.44,1.52-0.89,3.11-1.35,4.79c-0.46,1.68-0.99,3.28-1.59,4.79
			c-0.84-0.04-1.87-0.07-3.08-0.09c-1.22-0.02-2.48-0.02-3.77,0c-1.3,0.02-2.56,0.06-3.77,0.12c-1.22,0.06-2.27,0.13-3.14,0.21
			c-0.88,2.24-1.72,4.5-2.52,6.8c-0.8,2.3-1.62,4.79-2.46,7.46c-1.64,0.28-3.22,0.42-4.73,0.42c-1.52,0-3.37,0-5.57,0
			c0.84-3.56,1.68-7.06,2.52-10.51c0.84-3.45,1.7-6.92,2.58-10.39c0.88-3.48,1.83-6.98,2.85-10.51c1.02-3.53,2.13-7.16,3.32-10.87
			c2.04-0.32,4.28-0.57,6.74-0.75c2.46-0.18,4.96-0.32,7.52-0.42c2.56-0.1,5.06-0.14,7.52-0.12c2.46,0.02,4.72,0.05,6.8,0.09
			c-0.68,1.96-1.41,3.95-2.19,5.99c-0.78,2.04-1.55,4.03-2.3,5.99c-1-0.04-2.17-0.05-3.5-0.03c-1.34,0.02-2.71,0.05-4.1,0.09
			c-1.4,0.04-2.79,0.1-4.16,0.18c-1.38,0.08-2.6,0.14-3.68,0.18c-0.32,1.16-0.65,2.38-0.99,3.65
			C161.5,52.12,161.15,53.3,160.79,54.37z"/>
		<path id="XMLID_38_" class="st4" d="M186.49,35.26c2.4-0.2,4.91-0.36,7.55-0.48c2.63-0.12,5.31-0.21,8.03-0.27
			c2.72-0.06,5.44-0.07,8.18-0.03c2.74,0.04,5.42,0.14,8.06,0.3c-0.64,2.16-1.25,4.26-1.83,6.32c-0.58,2.06-1.09,4.1-1.53,6.14
			c-1.4-0.08-2.88-0.13-4.46-0.15c-1.58-0.02-3.19,0.01-4.82,0.09c-0.72,2.48-1.47,5.01-2.25,7.61c-0.78,2.6-1.56,5.21-2.34,7.85
			c-0.78,2.64-1.55,5.26-2.3,7.88c-0.76,2.62-1.46,5.14-2.1,7.58c-1.8-0.16-3.7-0.22-5.72-0.18c-2.02,0.04-3.92,0.14-5.72,0.3
			c0.6-2.36,1.21-4.81,1.83-7.37c0.62-2.55,1.24-5.16,1.86-7.82c0.62-2.66,1.25-5.31,1.89-7.97c0.64-2.66,1.3-5.26,1.98-7.82
			c-1.52-0.08-3.09-0.09-4.73-0.03c-1.64,0.06-3.21,0.13-4.73,0.21c0.32-2,0.73-4.01,1.23-6.05
			C185.04,39.34,185.69,37.3,186.49,35.26z"/>
		<path id="XMLID_40_" class="st4" d="M236.03,35.03c-1.24,3.71-2.42,7.37-3.54,10.96c-1.12,3.59-2.2,7.16-3.23,10.69
			c-1.04,3.54-2.07,7.09-3.08,10.66c-1.02,3.58-2.07,7.22-3.15,10.93c-1.92-0.2-3.87-0.3-5.87-0.3c-2,0-3.95,0.1-5.87,0.3
			c0.8-3.59,1.62-7.13,2.46-10.6c0.84-3.47,1.72-6.97,2.64-10.48c0.92-3.51,1.9-7.05,2.93-10.6c1.04-3.55,2.18-7.21,3.42-10.96
			c2.16-0.44,4.37-0.67,6.65-0.69C231.66,34.92,233.88,34.95,236.03,35.03z"/>
		<path id="XMLID_42_" class="st4" d="M248.43,54.37c1-0.16,2.13-0.28,3.38-0.36c1.26-0.08,2.53-0.14,3.8-0.18
			c1.28-0.04,2.53-0.06,3.74-0.06c1.22,0,2.29,0,3.21,0c-0.44,1.52-0.89,3.11-1.35,4.79c-0.46,1.68-0.99,3.28-1.59,4.79
			c-0.84-0.04-1.87-0.07-3.08-0.09c-1.22-0.02-2.48-0.02-3.77,0c-1.3,0.02-2.56,0.06-3.78,0.12c-1.22,0.06-2.27,0.13-3.14,0.21
			c-0.88,2.24-1.72,4.5-2.51,6.8c-0.8,2.3-1.62,4.79-2.46,7.46c-1.64,0.28-3.21,0.42-4.73,0.42c-1.52,0-3.37,0-5.57,0
			c0.84-3.56,1.68-7.06,2.51-10.51c0.84-3.45,1.7-6.92,2.58-10.39c0.88-3.48,1.83-6.98,2.84-10.51c1.02-3.53,2.13-7.16,3.33-10.87
			c2.04-0.32,4.28-0.57,6.74-0.75c2.46-0.18,4.96-0.32,7.52-0.42c2.56-0.1,5.06-0.14,7.52-0.12c2.46,0.02,4.72,0.05,6.8,0.09
			c-0.68,1.96-1.41,3.95-2.19,5.99c-0.78,2.04-1.55,4.03-2.31,5.99c-1-0.04-2.17-0.05-3.5-0.03c-1.34,0.02-2.71,0.05-4.1,0.09
			c-1.4,0.04-2.79,0.1-4.16,0.18c-1.38,0.08-2.6,0.14-3.68,0.18c-0.32,1.16-0.65,2.38-0.99,3.65
			C249.14,52.12,248.79,53.3,248.43,54.37z"/>
		<path id="XMLID_44_" class="st4" d="M308.94,35.26c-2,3.63-3.95,7.16-5.84,10.57c-1.9,3.42-3.8,6.85-5.69,10.3
			c-1.9,3.45-3.83,7.01-5.81,10.66c-1.98,3.65-4.06,7.54-6.26,11.65c-2.15-0.12-4.17-0.17-6.05-0.15c-1.88,0.02-3.73,0.11-5.57,0.27
			c0.76-1.56,1.59-3.29,2.48-5.21c0.9-1.92,1.87-3.93,2.91-6.05c-0.4,0.08-0.93,0.1-1.59,0.06c-0.66-0.04-1.17-0.02-1.53,0.06
			c-0.2-1.2-0.45-2.95-0.75-5.27c-0.3-2.32-0.59-4.94-0.87-7.88c-0.28-2.94-0.55-6.06-0.81-9.38c-0.26-3.31-0.45-6.53-0.57-9.64
			c1-0.12,2.07-0.21,3.2-0.27c1.14-0.06,2.29-0.09,3.45-0.09s2.3,0.03,3.42,0.09c1.12,0.06,2.16,0.15,3.11,0.27
			c-0.16,1.52-0.27,3.11-0.33,4.76c-0.06,1.66-0.09,3.32-0.09,5c0,1.68,0.03,3.34,0.09,4.97c0.06,1.64,0.15,3.2,0.27,4.67
			c0.76-1.6,1.57-3.24,2.43-4.94c0.86-1.7,1.7-3.38,2.52-5.06c0.82-1.68,1.62-3.28,2.39-4.82c0.78-1.54,1.51-2.94,2.19-4.22
			c2.36-0.32,4.6-0.49,6.74-0.51C304.51,35.1,306.7,35.15,308.94,35.26z"/>
	</g>
	<g id="XMLID_9_" class="st1">
		
			<linearGradient id="SVGID_00000040563035680638807710000007710342739390107783_" gradientUnits="userSpaceOnUse" x1="305.2971" y1="21.6973" x2="346.3264" y2="21.6973">
			<stop  offset="0" style="stop-color:#40BFB4"/>
			<stop  offset="0" style="stop-color:#00B7AA"/>
			<stop  offset="1" style="stop-color:#2A1553"/>
			<stop  offset="1" style="stop-color:#27004B"/>
			<stop  offset="1" style="stop-color:#28004C"/>
		</linearGradient>
		<path style="fill:url(#SVGID_00000040563035680638807710000007710342739390107783_);" d="M325.81,42.21L305.3,21.7l20.52-20.51
			l20.51,20.51L325.81,42.21z M307.42,21.7l18.39,18.39l18.39-18.39L325.81,3.3L307.42,21.7z"/>
	</g>
</g>
<g id="Logo_1_">
	<g id="XMLID_174_">
		<g id="XMLID_199_">
			<g>
				
					<linearGradient id="SVGID_00000078023708194283198060000015627156189469756815_" gradientUnits="userSpaceOnUse" x1="47.9921" y1="131.2808" x2="26.7926" y2="228.9436" gradientTransform="matrix(0.9992 0.0392 0.0392 -0.9992 -7.2923 244.7209)">
					<stop  offset="0" style="stop-color:#40BFB4"/>
					<stop  offset="0.2315" style="stop-color:#00B7AA"/>
					<stop  offset="1" style="stop-color:#27004B"/>
				</linearGradient>
				<path style="fill:url(#SVGID_00000078023708194283198060000015627156189469756815_);" d="M55.86,99.46
					c-0.58-0.75-1.06-1.42-1.61-2.04c-0.13-0.15-0.57-0.23-0.73-0.13c-0.71,0.48-1.37,1.03-2.12,1.61c0.72,0.93,1.31,1.68,1.96,2.52
					C54.23,100.73,55,100.13,55.86,99.46z M60.71,94.91c-1-1.29-1.94-2.5-2.94-3.79c-1.18,0.92-2.29,1.77-3.37,2.66
					c-0.13,0.11-0.18,0.52-0.08,0.66c0.82,1.13,1.69,2.22,2.6,3.41C58.22,96.85,59.42,95.91,60.71,94.91z M38.83,98.82
					c-1.09,0.85-2.05,1.6-3.11,2.43c0.83,1.07,1.6,2.06,2.42,3.12c1.07-0.83,2.03-1.58,3.13-2.42
					C40.47,100.91,39.7,99.93,38.83,98.82z M40.51,99.48c1.78-1.37,3.5-2.71,5.3-4.1c-1.48-1.91-2.88-3.72-4.35-5.61
					c1.91-1.49,3.75-2.92,5.7-4.44c-1-1.28-1.96-2.51-2.92-3.73c-1.18-1.5-1.18-1.51,0.32-2.67c1.37-1.07,2.74-2.12,4.19-3.24
					c1.25,1.61,2.5,3.13,3.64,4.72c0.58,0.81,1.02,0.94,1.8,0.24c1.12-0.99,2.35-1.86,3.61-2.85c-0.22-0.31-0.38-0.59-0.58-0.84
					c-4.57-5.84-9.23-11.63-13.7-17.55c-4.4-5.82-8.4-11.91-10.95-18.83c-1.82-4.95-2.9-10.02-2.4-15.33
					c0.14-1.49,0.4-2.98,0.76-4.44c0.36-1.45,0.91-2.86,1.45-4.5c-0.23,0.25-0.37,0.39-0.5,0.54C21.38,29.36,10.87,41.88,0.32,54.36
					c-0.56,0.67-0.28,1.04,0.1,1.53c5.59,7.21,11.18,14.43,16.77,21.64c4.71,6.08,9.42,12.15,14.14,18.22
					c0.24,0.31,0.5,0.61,0.83,1.02c1.35-1.03,2.59-1.98,3.91-2.99C37.55,95.69,38.98,97.52,40.51,99.48z M59.87,87.73
					c1.24-0.96,2.38-1.84,3.62-2.81c-0.95-1.22-1.84-2.37-2.81-3.62c-1.21,0.93-2.35,1.82-3.63,2.8
					C58,85.33,58.91,86.49,59.87,87.73z M60.66,90.29c0.66,0.84,1.27,1.63,1.96,2.51c0.87-0.67,1.64-1.27,2.51-1.94
					c-0.66-0.85-1.26-1.62-1.95-2.51C62.33,88.99,61.56,89.59,60.66,90.29z M60.96,97.87c0.71,0.92,1.38,1.8,2.12,2.75
					c0.95-0.73,1.81-1.39,2.77-2.12c-0.73-0.93-1.39-1.79-2.16-2.76C62.74,96.48,61.91,97.13,60.96,97.87z M57.83,87.49
					c-1.59-2.04-3.12-4.01-4.73-6.07c-1.8,1.4-3.47,2.67-5.1,4c-0.17,0.13-0.27,0.64-0.15,0.8c1.39,1.87,2.83,3.71,4.34,5.66
					C54.08,90.39,55.91,88.97,57.83,87.49z M48.89,97.54c1.41-1.09,2.72-2.11,4.17-3.23c-1.09-1.4-2.13-2.75-3.24-4.18
					c-1.41,1.09-2.72,2.11-4.17,3.24C46.77,94.81,47.8,96.14,48.89,97.54z M70.92,100.42c0.58,0.76,1.12,1.45,1.77,2.29
					c0.77-0.6,1.49-1.15,2.29-1.78c-0.62-0.8-1.16-1.5-1.77-2.29C72.43,99.24,71.73,99.78,70.92,100.42z M70.68,107.24
					c0.42,0.56,0.82,1.08,1.27,1.67c0.58-0.46,1.07-0.84,1.63-1.29c-0.43-0.56-0.8-1.05-1.24-1.62
					C71.79,106.41,71.32,106.76,70.68,107.24z M40.73,107.61c0.82,1.06,1.57,2.01,2.38,3.06c1.04-0.81,2-1.56,3.05-2.37
					c-0.81-1.04-1.56-2-2.37-3.05C42.72,106.06,41.76,106.81,40.73,107.61z M77.99,103.54c-0.47,0.35-0.88,0.66-1.38,1.04
					c0.38,0.49,0.7,0.92,1.08,1.42c0.49-0.38,0.91-0.7,1.44-1.1C78.71,104.4,78.38,104.01,77.99,103.54z M62.99,103.83
					c0.78,1,1.51,1.94,2.32,2.99c1.01-0.78,1.97-1.52,3.02-2.32c-0.81-1.04-1.54-1.97-2.34-3
					C64.97,102.29,64.03,103.02,62.99,103.83z M66.6,95.01c0.58,0.76,1.12,1.45,1.75,2.28c0.77-0.6,1.48-1.16,2.28-1.79
					c-0.61-0.78-1.16-1.48-1.78-2.27C68.04,93.87,67.37,94.4,66.6,95.01z M48.92,108.51c0.97,1.25,1.84,2.38,2.81,3.63
					c1.22-0.95,2.38-1.85,3.63-2.82c-0.96-1.24-1.85-2.38-2.82-3.63C51.31,106.65,50.17,107.54,48.92,108.51z M47.96,97.73
					c-1.67,1.3-3.22,2.5-4.88,3.8c1.28,1.65,2.5,3.22,3.8,4.89c1.65-1.28,3.22-2.5,4.89-3.79C50.49,100.97,49.27,99.41,47.96,97.73z
					 M58.65,99.54c-1.19,0.92-2.31,1.79-3.55,2.75c0.96,1.24,1.81,2.34,2.75,3.54c1.2-0.93,2.32-1.79,3.55-2.75
					C60.48,101.9,59.61,100.78,58.65,99.54z M59.23,109.64c0.82,1.06,1.55,2,2.33,3.01c1.01-0.79,1.94-1.51,2.99-2.32
					c-0.78-1.01-1.52-1.97-2.32-3.01C61.2,108.11,60.27,108.84,59.23,109.64z"/>
			</g>
		</g>
		<g id="XMLID_175_">
			<g>
				
					<linearGradient id="SVGID_00000150814997546804783550000012655497019946035099_" gradientUnits="userSpaceOnUse" x1="11.4073" y1="74.5303" x2="79.826" y2="6.1117" gradientTransform="matrix(1 2.300000e-03 -2.300000e-03 1 -0.2868 0.5724)">
					<stop  offset="0" style="stop-color:#40BFB4"/>
					<stop  offset="0.2315" style="stop-color:#00B7AA"/>
					<stop  offset="1" style="stop-color:#27004B"/>
				</linearGradient>
				<path style="fill:url(#SVGID_00000150814997546804783550000012655497019946035099_);" d="M62.31,17.69
					c-1.25-1.05-2.41-2.03-3.67-3.09c-0.96,1.14-1.87,2.2-2.74,3.29c-0.1,0.13-0.07,0.55,0.05,0.66c1.04,0.93,2.11,1.83,3.25,2.8
					C60.27,20.1,61.26,18.94,62.31,17.69z M57.56,3.07c-1.21-1.02-2.33-1.97-3.51-2.97c-1.02,1.21-1.94,2.29-2.96,3.51
					c1.21,1.02,2.31,1.96,3.5,2.97C55.61,5.38,56.55,4.27,57.56,3.07z M54.15,30.86c1.69-2,3.31-3.9,4.98-5.87
					c-1.85-1.56-3.62-3.06-5.46-4.61c-1.59,1.88-3.1,3.66-4.57,5.47c-0.12,0.15-0.04,0.66,0.12,0.81
					C50.79,28.04,52.4,29.39,54.15,30.86z M48.32,3.71c-1.02-0.86-1.94-1.64-2.95-2.5c-0.85,1.01-1.64,1.93-2.5,2.96
					c1,0.85,1.93,1.63,2.95,2.49C46.68,5.65,47.47,4.73,48.32,3.71z M49.69,14.34c1.37-1.62,2.66-3.14,4.01-4.73
					c-1.62-1.37-3.14-2.65-4.73-3.99c-1.37,1.62-2.65,3.13-4,4.73C46.58,11.71,48.08,12.98,49.69,14.34z M55.95,14.91
					c0.57-0.59,1.09-1.25,1.7-1.97c-0.82-0.7-1.57-1.33-2.42-2.05c-0.68,0.8-1.3,1.54-2.06,2.43c0.72,0.61,1.36,1.19,2.05,1.69
					C55.37,15.12,55.81,15.06,55.95,14.91z M60.44,12.98c1.01-1.19,1.92-2.28,2.9-3.43c-1.19-1-2.27-1.91-3.44-2.89
					c-0.98,1.17-1.88,2.23-2.89,3.43C58.21,11.09,59.29,12,60.44,12.98z M66.78,2.44C65.77,1.59,64.87,0.82,63.89,0
					c-0.82,0.97-1.58,1.88-2.45,2.91c1,0.85,1.91,1.61,2.9,2.44C65.18,4.35,65.96,3.42,66.78,2.44z M47.2,18.6
					c1.41,1.19,2.67,2.26,4.03,3.41c1.16-1.38,2.26-2.68,3.41-4.04c-1.41-1.19-2.68-2.26-4.03-3.4
					C49.46,15.93,48.37,17.22,47.2,18.6z M75.69,5.52c-0.54-0.47-1.01-0.87-1.57-1.35c-0.48,0.57-0.89,1.08-1.34,1.62
					c0.62,0.51,1.08,0.88,1.6,1.3C74.84,6.53,75.24,6.06,75.69,5.52z M67.4,5.98C66.54,7,65.78,7.91,64.96,8.88
					c1.01,0.85,1.92,1.62,2.9,2.45c0.85-1,1.61-1.9,2.46-2.9C69.31,7.58,68.38,6.8,67.4,5.98z M72.74,12.61
					c0.78,0.67,1.46,1.24,2.21,1.88c0.65-0.77,1.21-1.44,1.86-2.22c-0.78-0.66-1.47-1.24-2.21-1.87
					C73.93,11.2,73.36,11.88,72.74,12.61z M68.2,17.83c0.75,0.64,1.4,1.2,2.18,1.87c0.65-0.77,1.23-1.44,1.87-2.19
					c-0.77-0.65-1.46-1.24-2.2-1.88C69.38,16.43,68.81,17.1,68.2,17.83z M79.74,7.31c-0.4,0.48-0.74,0.9-1.14,1.37
					c0.49,0.4,0.89,0.73,1.34,1.1c0.41-0.45,0.76-0.84,1.19-1.31C80.62,8.05,80.21,7.71,79.74,7.31z M43.19,9.85
					c-1.06-0.89-2-1.68-3.03-2.55c-0.87,1.02-1.67,1.98-2.55,3.01c1.02,0.87,1.95,1.66,3.01,2.56C41.53,11.8,42.33,10.85,43.19,9.85
					z M58.21,28.33c1.23,1.04,2.34,1.97,3.51,2.95c1.02-1.21,1.95-2.32,2.95-3.5c-1.2-1.01-2.31-1.94-3.5-2.95
					C60.16,26.03,59.21,27.15,58.21,28.33z M53.41,31.84c-1.21,1.55-2.52,3.01-3.84,4.57c-1.4-1.18-2.73-2.29-4.06-3.41
					c-1.45-1.23-1.45-1.23-0.21-2.69c1.01-1.19,2.02-2.37,3.07-3.61c-1.89-1.6-3.66-3.11-5.51-4.68c1.54-1.83,3.02-3.58,4.58-5.42
					c-1.74-1.46-3.41-2.87-5.12-4.31c-1.61,1.89-3.12,3.66-4.68,5.49c-1.28-1.06-2.48-2.06-3.78-3.15c-0.35,0.4-0.62,0.69-0.88,0.99
					c-4.96,5.87-9.92,11.75-14.88,17.62C12.22,40.22,6.34,47.2,0.46,54.17c-0.4,0.48-0.7,0.84-0.17,1.53
					C10.31,68.61,20.3,81.55,30.3,94.48c0.12,0.16,0.25,0.3,0.47,0.56c-0.47-1.66-0.96-3.09-1.26-4.56c-0.3-1.47-0.5-2.97-0.57-4.47
					c-0.28-5.32,1.01-10.35,3.03-15.21C34.8,64,39.05,58.08,43.69,52.44c4.71-5.73,9.6-11.31,14.41-16.96
					c0.21-0.24,0.38-0.51,0.61-0.81c-1.22-1.04-2.41-1.96-3.49-3C54.46,30.94,54.02,31.05,53.41,31.84z M62.68,14.74
					c0.92,0.78,1.73,1.47,2.64,2.24c0.8-0.94,1.5-1.77,2.27-2.67c-0.93-0.77-1.76-1.46-2.68-2.23C64.14,13,63.43,13.85,62.68,14.74z
					 M62.06,22.31c0.88,0.73,1.62,1.36,2.43,2.04c0.73-0.86,1.36-1.6,2.05-2.43c-0.84-0.71-1.59-1.33-2.43-2.04
					C63.41,20.73,62.76,21.49,62.06,22.31z"/>
			</g>
		</g>
	</g>
	<g id="XMLID_166_">
		<path id="XMLID_170_" class="st8" d="M316.76,15.67c0.88,0,1.79,0,2.68,0c0.64,0,1.01,0,1.44,0c0.88,0,1.65-0.03,2.32,0.6
			c0.88,0.64,1.08,1.39,1.14,2.48c0,0.67-0.03,1.47-0.67,2.14c0,0-0.21,0.21-0.28,0.28c0.07,0.07,0.5,0.26,0.57,0.33
			c0.88,0.88,1.08,1.91,1.01,3c-0.07,0.88-0.67,1.7-1.34,2.12c-0.67,0.42-1.6,0.56-2.27,0.56c-1.37,0-2.81,0-4.18,0
			c0,0-0.28,0-0.34,0c-0.07,0-0.29-0.23-0.29-0.29c0-0.07,0-0.34,0-0.41c0-2.38-0.03-4.67-0.03-7.26c0-1.01,0.03-2.32,0.03-3.33
			C316.55,15.88,316.7,15.73,316.76,15.67z M318.93,20.19c0.67,0.06,1.45,0.02,2.33-0.05c0.36-0.03,0.56-0.31,0.62-0.38
			c0.42-0.42,0.49-1.04,0.06-1.68c-0.28-0.28-0.73-0.42-1.01-0.42c-0.67,0-1.16,0-1.8,0l-0.21,0.15
			C318.93,18.69,318.93,19.31,318.93,20.19z M318.93,24.99c0.07,0,0.36,0,0.64,0c0.64,0,1.16,0,1.79,0c0.43-0.07,0.74-0.1,1-0.31
			c0.64-0.43,0.65-1.47,0.02-1.89c-0.38-0.18-0.67-0.28-1.09-0.28c-0.64,0-1.32,0-1.99,0c0,0-0.29,0-0.36,0
			C318.93,23.39,318.93,24.11,318.93,24.99z"/>
		<path id="XMLID_167_" class="st8" d="M329.22,15.52c0.67,0,1.53,0,2.21,0c1.37,0,2.54,0.29,3.43,1.31
			c0.64,0.67,0.85,1.68,0.92,2.56c0.07,1.29,0.18,2.56-0.1,3.85c-0.07,0.64-0.21,1.34-0.49,1.98c-0.64,0.88-1.11,1.17-1.99,1.6
			c-0.06,0.07-0.6,0.23-0.67,0.23c-0.64,0.07-1.13,0.16-1.8,0.16c-1.09,0-2.3,0-3.4,0c-0.06,0-0.21,0-0.28,0
			c-0.42-0.07-0.42-0.21-0.42-0.49c0-1.09,0-2.19,0-3.2c0-2.38,0-4.95,0-7.33c0-0.67,0.03-0.67,0.7-0.67
			C327.96,15.52,328.55,15.52,329.22,15.52z M328.83,24.62c0.88,0,1.71-0.02,2.6-0.08c0.88,0,1.48-0.33,1.78-1.04
			c0.28-1.01,0.26-2.25,0.26-3.26c-0.06-0.42-0.16-1.08-0.39-1.44c-0.42-0.67-0.91-0.88-1.8-0.88c-0.67,0-1.42,0-2.09,0
			c0,0-0.28,0.11-0.29,0.21C328.89,20.23,328.76,22.3,328.83,24.62z"/>
	</g>
	<g id="XMLID_150_">
		<path id="XMLID_164_" class="st8" d="M65.84,68.03c0.64,0.12,1.38,0.24,2.22,0.36c0.84,0.12,1.7,0.21,2.58,0.27
			c0.88,0.06,1.75,0.09,2.61,0.09c0.86,0,1.65-0.02,2.37-0.06c1.68-0.12,3.02-0.43,4.04-0.93c1.02-0.5,1.66-1.12,1.92-1.86
			c0.26-0.74,0.08-1.57-0.54-2.49c-0.62-0.92-1.75-1.84-3.38-2.75c-2.28-1.28-4.04-2.64-5.3-4.07c-1.26-1.44-1.99-3.33-2.19-5.69
			c-0.12-1.12-0.02-2.27,0.3-3.44c0.32-1.18,0.76-2.23,1.32-3.15c0.88-1.56,2.06-2.9,3.53-4.04c1.48-1.14,3.11-2.09,4.91-2.85
			c1.8-0.76,3.67-1.35,5.63-1.77c1.96-0.42,3.81-0.71,5.57-0.87c2.08-0.2,4.04-0.26,5.9-0.18c1.86,0.08,3.82,0.22,5.9,0.42
			l-3.11,12.22c-0.68-0.16-1.53-0.29-2.55-0.39c-1.02-0.1-2.07-0.13-3.15-0.09c-1.08,0.04-2.13,0.14-3.15,0.3
			c-1.02,0.16-1.87,0.4-2.55,0.72c-1.08,0.56-2.05,1.33-2.91,2.31c-0.86,0.98-1.27,2.11-1.23,3.38c0,0.72,0.29,1.36,0.87,1.92
			c0.58,0.56,1.27,1.08,2.07,1.56c0.8,0.48,1.61,0.91,2.43,1.29c0.82,0.38,1.47,0.75,1.95,1.11c0.64,0.48,1.3,0.96,1.98,1.44
			c0.68,0.48,1.29,1.01,1.83,1.59c0.54,0.58,0.95,1.23,1.23,1.95c0.28,0.72,0.36,1.54,0.24,2.46c-0.08,0.64-0.26,1.3-0.54,1.97
			c-0.28,0.68-0.6,1.3-0.96,1.86c-1.64,2.2-3.72,3.9-6.26,5.12c-2.54,1.22-5.25,2.07-8.15,2.55c-2.9,0.48-5.83,0.67-8.81,0.57
			c-2.98-0.1-5.72-0.39-8.24-0.87L65.84,68.03z"/>
		<path id="XMLID_161_" class="st8" d="M127.85,34.01c3.11-0.04,5.79,0.5,8.03,1.62c2.24,1.12,4,2.66,5.3,4.61
			c1.3,1.96,2.11,4.28,2.43,6.98c0.32,2.7,0.14,5.62-0.54,8.78c-0.76,3.52-1.94,6.71-3.53,9.58c-1.6,2.88-3.53,5.34-5.81,7.4
			c-2.28,2.06-4.87,3.66-7.79,4.79c-2.92,1.14-6.07,1.71-9.46,1.71c-2.88,0-5.35-0.59-7.43-1.77c-2.08-1.18-3.72-2.76-4.94-4.76
			c-1.22-2-2.01-4.32-2.37-6.98c-0.36-2.66-0.26-5.46,0.3-8.42c0.72-3.83,1.9-7.21,3.53-10.12c1.64-2.92,3.6-5.36,5.9-7.34
			c2.3-1.98,4.84-3.47,7.64-4.49C121.89,34.58,124.81,34.05,127.85,34.01z M124.61,47.72c-1.32,0-2.55,0.3-3.68,0.9
			c-1.14,0.6-2.16,1.4-3.06,2.4c-0.9,1-1.67,2.14-2.31,3.42c-0.64,1.28-1.12,2.6-1.44,3.95c-0.36,1.28-0.49,2.53-0.39,3.74
			c0.1,1.22,0.38,2.32,0.84,3.29c0.46,0.98,1.1,1.77,1.92,2.37c0.82,0.6,1.79,0.88,2.91,0.84c1.12-0.04,2.25-0.37,3.39-0.99
			c1.14-0.62,2.19-1.42,3.17-2.39c0.98-0.98,1.84-2.12,2.58-3.42c0.74-1.3,1.29-2.67,1.65-4.1c0.32-1.36,0.44-2.65,0.36-3.86
			c-0.08-1.22-0.35-2.29-0.81-3.21c-0.46-0.92-1.12-1.64-1.98-2.16C126.9,47.99,125.85,47.72,124.61,47.72z"/>
		<path id="XMLID_159_" class="st8" d="M160.79,54.37c1-0.16,2.13-0.28,3.38-0.36c1.26-0.08,2.53-0.14,3.8-0.18
			c1.28-0.04,2.53-0.06,3.75-0.06c1.22,0,2.29,0,3.2,0c-0.44,1.52-0.89,3.11-1.35,4.79c-0.46,1.68-0.99,3.28-1.59,4.79
			c-0.84-0.04-1.87-0.07-3.08-0.09c-1.22-0.02-2.48-0.02-3.77,0c-1.3,0.02-2.56,0.06-3.77,0.12c-1.22,0.06-2.27,0.13-3.14,0.21
			c-0.88,2.24-1.72,4.5-2.52,6.8c-0.8,2.3-1.62,4.79-2.46,7.46c-1.64,0.28-3.22,0.42-4.73,0.42c-1.52,0-3.37,0-5.57,0
			c0.84-3.56,1.68-7.06,2.52-10.51c0.84-3.45,1.7-6.92,2.58-10.39c0.88-3.48,1.83-6.98,2.85-10.51c1.02-3.53,2.13-7.16,3.32-10.87
			c2.04-0.32,4.28-0.57,6.74-0.75c2.46-0.18,4.96-0.32,7.52-0.42c2.56-0.1,5.06-0.14,7.52-0.12c2.46,0.02,4.72,0.05,6.8,0.09
			c-0.68,1.96-1.41,3.95-2.19,5.99c-0.78,2.04-1.55,4.03-2.3,5.99c-1-0.04-2.17-0.05-3.5-0.03c-1.34,0.02-2.71,0.05-4.1,0.09
			c-1.4,0.04-2.79,0.1-4.16,0.18c-1.38,0.08-2.6,0.14-3.68,0.18c-0.32,1.16-0.65,2.38-0.99,3.65
			C161.5,52.12,161.15,53.3,160.79,54.37z"/>
		<path id="XMLID_157_" class="st8" d="M186.49,35.26c2.4-0.2,4.91-0.36,7.55-0.48c2.63-0.12,5.31-0.21,8.03-0.27
			c2.72-0.06,5.44-0.07,8.18-0.03c2.74,0.04,5.42,0.14,8.06,0.3c-0.64,2.16-1.25,4.26-1.83,6.32c-0.58,2.06-1.09,4.1-1.53,6.14
			c-1.4-0.08-2.88-0.13-4.46-0.15c-1.58-0.02-3.19,0.01-4.82,0.09c-0.72,2.48-1.47,5.01-2.25,7.61c-0.78,2.6-1.56,5.21-2.34,7.85
			c-0.78,2.64-1.55,5.26-2.3,7.88c-0.76,2.62-1.46,5.14-2.1,7.58c-1.8-0.16-3.7-0.22-5.72-0.18c-2.02,0.04-3.92,0.14-5.72,0.3
			c0.6-2.36,1.21-4.81,1.83-7.37c0.62-2.55,1.24-5.16,1.86-7.82c0.62-2.66,1.25-5.31,1.89-7.97c0.64-2.66,1.3-5.26,1.98-7.82
			c-1.52-0.08-3.09-0.09-4.73-0.03c-1.64,0.06-3.21,0.13-4.73,0.21c0.32-2,0.73-4.01,1.23-6.05
			C185.04,39.34,185.69,37.3,186.49,35.26z"/>
		<path id="XMLID_155_" class="st8" d="M236.03,35.03c-1.24,3.71-2.42,7.37-3.54,10.96c-1.12,3.59-2.2,7.16-3.23,10.69
			c-1.04,3.54-2.07,7.09-3.08,10.66c-1.02,3.58-2.07,7.22-3.15,10.93c-1.92-0.2-3.87-0.3-5.87-0.3c-2,0-3.95,0.1-5.87,0.3
			c0.8-3.59,1.62-7.13,2.46-10.6c0.84-3.47,1.72-6.97,2.64-10.48c0.92-3.51,1.9-7.05,2.93-10.6c1.04-3.55,2.18-7.21,3.42-10.96
			c2.16-0.44,4.37-0.67,6.65-0.69C231.66,34.92,233.88,34.95,236.03,35.03z"/>
		<path id="XMLID_153_" class="st8" d="M248.43,54.37c1-0.16,2.13-0.28,3.38-0.36c1.26-0.08,2.53-0.14,3.8-0.18
			c1.28-0.04,2.53-0.06,3.74-0.06c1.22,0,2.29,0,3.21,0c-0.44,1.52-0.89,3.11-1.35,4.79c-0.46,1.68-0.99,3.28-1.59,4.79
			c-0.84-0.04-1.87-0.07-3.08-0.09c-1.22-0.02-2.48-0.02-3.77,0c-1.3,0.02-2.56,0.06-3.78,0.12c-1.22,0.06-2.27,0.13-3.14,0.21
			c-0.88,2.24-1.72,4.5-2.51,6.8c-0.8,2.3-1.62,4.79-2.46,7.46c-1.64,0.28-3.21,0.42-4.73,0.42c-1.52,0-3.37,0-5.57,0
			c0.84-3.56,1.68-7.06,2.51-10.51c0.84-3.45,1.7-6.92,2.58-10.39c0.88-3.48,1.83-6.98,2.84-10.51c1.02-3.53,2.13-7.16,3.33-10.87
			c2.04-0.32,4.28-0.57,6.74-0.75c2.46-0.18,4.96-0.32,7.52-0.42c2.56-0.1,5.06-0.14,7.52-0.12c2.46,0.02,4.72,0.05,6.8,0.09
			c-0.68,1.96-1.41,3.95-2.19,5.99c-0.78,2.04-1.55,4.03-2.31,5.99c-1-0.04-2.17-0.05-3.5-0.03c-1.34,0.02-2.71,0.05-4.1,0.09
			c-1.4,0.04-2.79,0.1-4.16,0.18c-1.38,0.08-2.6,0.14-3.68,0.18c-0.32,1.16-0.65,2.38-0.99,3.65
			C249.14,52.12,248.79,53.3,248.43,54.37z"/>
		<path id="XMLID_151_" class="st8" d="M308.94,35.26c-2,3.63-3.95,7.16-5.84,10.57c-1.9,3.42-3.8,6.85-5.69,10.3
			c-1.9,3.45-3.83,7.01-5.81,10.66c-1.98,3.65-4.06,7.54-6.26,11.65c-2.15-0.12-4.17-0.17-6.05-0.15c-1.88,0.02-3.73,0.11-5.57,0.27
			c0.76-1.56,1.59-3.29,2.48-5.21c0.9-1.92,1.87-3.93,2.91-6.05c-0.4,0.08-0.93,0.1-1.59,0.06c-0.66-0.04-1.17-0.02-1.53,0.06
			c-0.2-1.2-0.45-2.95-0.75-5.27c-0.3-2.32-0.59-4.94-0.87-7.88c-0.28-2.94-0.55-6.06-0.81-9.38c-0.26-3.31-0.45-6.53-0.57-9.64
			c1-0.12,2.07-0.21,3.2-0.27c1.14-0.06,2.29-0.09,3.45-0.09s2.3,0.03,3.42,0.09c1.12,0.06,2.16,0.15,3.11,0.27
			c-0.16,1.52-0.27,3.11-0.33,4.76c-0.06,1.66-0.09,3.32-0.09,5c0,1.68,0.03,3.34,0.09,4.97c0.06,1.64,0.15,3.2,0.27,4.67
			c0.76-1.6,1.57-3.24,2.43-4.94c0.86-1.7,1.7-3.38,2.52-5.06c0.82-1.68,1.62-3.28,2.39-4.82c0.78-1.54,1.51-2.94,2.19-4.22
			c2.36-0.32,4.6-0.49,6.74-0.51C304.51,35.1,306.7,35.15,308.94,35.26z"/>
	</g>
	<g id="XMLID_2_">
		<path class="st8" d="M325.81,42.21L305.3,21.7l20.52-20.51l20.51,20.51L325.81,42.21z M307.42,21.7l18.39,18.39l18.39-18.39
			L325.81,3.3L307.42,21.7z"/>
	</g>
</g>
</svg>
