<svg version="1.1" id="Layer_1" xmlns="http://www.w3.org/2000/svg" xmlns:xlink="http://www.w3.org/1999/xlink" x="0px" y="0px" viewBox="0 0 234.6 288" style="" xml:space="preserve" class="">
<style type="text/css">
	.st0{fill:#fff;}
</style>
<g>
	<g>
		<path stroke="#0BB8AB" stroke-width="1" class="st0 TmVJohMH_0" d="M157.2,197.1c1.1,1.4,2.1,2.7,3.2,4.1c-1.4,1.1-2.7,2.1-4.1,3.2l-2.2-2.9l-0.9-1.2c1-0.7,1.9-1.5,2.9-2.2    L157.2,197.1 M157.6,194.3c-2.4,1.9-4.7,3.6-7.2,5.6c1.9,2.4,3.7,4.8,5.6,7.2c2.5-1.9,4.8-3.7,7.2-5.6    C161.3,199,159.5,196.8,157.6,194.3L157.6,194.3z"/>
	</g>
	<g>
		<path stroke="#0BB8AB" stroke-width="1" class="st0 TmVJohMH_1" d="M143.7,228.3c0.5,0.6,1,1.2,1.5,1.8l-1,0.8l-0.8,0.7l-1.5-1.9C142.5,229.2,143.1,228.8,143.7,228.3     M143.7,226.1c-0.2,0-0.3,0-0.4,0.1c-1.4,0.9-2.7,2.1-4.2,3.2c1.4,1.9,2.6,3.4,3.9,5c1.7-1.4,3.3-2.6,5-3.9    c-1.2-1.5-2.1-2.8-3.2-4.1C144.5,226.2,144.1,226.1,143.7,226.1L143.7,226.1z"/>
	</g>
	<g>
		<path stroke="#0BB8AB" stroke-width="1" class="st0 TmVJohMH_2" d="M151.4,216.7c1.2,1.5,2.3,2.9,3.4,4.4c-1.5,1.1-2.9,2.3-4.4,3.4l0,0c-1.2-1.5-2.3-2.9-3.3-4.4    c1.4-1.1,2.7-2.2,4.2-3.3C151.3,216.8,151.4,216.7,151.4,216.7 M151.8,213.9c-2.4,1.8-4.6,3.5-6.7,5.3c-0.3,0.2-0.4,1-0.2,1.3    c1.6,2.3,3.4,4.4,5.2,6.8c2.6-2,5-3.9,7.6-5.9C155.7,218.9,153.8,216.5,151.8,213.9L151.8,213.9z"/>
	</g>
	<g>
		<path stroke="#0BB8AB" stroke-width="1" class="st0 TmVJohMH_3" d="M113.6,232.1l1.5,1.9l1,1.2l-1.6,1.2l-1.5,1.1c-0.8-1-1.6-2-2.4-3.1C111.6,233.7,112.6,232.9,113.6,232.1     M114,229.3c-2.2,1.7-4.1,3.2-6.2,4.9c1.7,2.1,3.2,4.1,4.8,6.2c2.1-1.7,4.1-3.1,6.3-4.8C117.2,233.4,115.7,231.5,114,229.3    L114,229.3z"/>
	</g>
	<g>
		<path stroke="#0BB8AB" stroke-width="1" class="st0 TmVJohMH_4" d="M163.3,225.9c0.6,0.8,1.2,1.6,1.8,2.4l-2.1,1.6l-0.2,0.2l-0.5-0.6l-1.3-1.7l0.1-0.1    C161.8,227,162.5,226.5,163.3,225.9 M163.6,223.1c-1.9,1.5-3.5,2.8-5.5,4.3c1.4,1.8,2.8,3.6,4.2,5.5c1.9-1.5,3.6-2.8,5.5-4.2    C166.5,226.7,165.1,225,163.6,223.1L163.6,223.1z"/>
	</g>
	<g>
		<path stroke="#0BB8AB" stroke-width="1" class="st0 TmVJohMH_5" d="M162.2,211.1l0.4,0.5l1.1,1.4l-0.6,0.4c-0.4,0.3-0.8,0.7-1.3,1c-0.5-0.6-1-1.2-1.5-1.9L162.2,211.1     M162.6,208.3c-1.7,1.3-3.2,2.5-5,3.9c1.3,1.7,2.5,3.3,3.9,5c1.7-1.3,3.3-2.5,5-3.9C165.1,211.6,163.9,210.1,162.6,208.3    L162.6,208.3z"/>
	</g>
	<g>
		<path stroke="#0BB8AB" stroke-width="1" class="st0 TmVJohMH_6" d="M135.6,214.7l1.6,2.1c0.8,1,1.6,2.1,2.4,3.1l-1.9,1.5c-1.1,0.8-2.2,1.7-3.3,2.5l-2.8-3.6l-1.2-1.5l3-2.3    L135.6,214.7 M135.9,211.9c-2.8,2.2-5.4,4.2-8.3,6.5c2.2,2.9,4.3,5.5,6.5,8.3c2.8-2.2,5.4-4.2,8.3-6.5    C140.2,217.4,138.1,214.7,135.9,211.9L135.9,211.9z"/>
	</g>
	<g>
		<path stroke="#0BB8AB" stroke-width="1" class="st0 TmVJohMH_7" d="M142.1,197.3l3.2,4.1l3.8,4.9c-2,1.5-3.9,3-5.8,4.5l-2.3,1.8l-0.5-0.7c-2.2-2.9-4.3-5.6-6.4-8.3    c2.4-1.9,4.8-3.8,7.4-5.8L142.1,197.3 M142.5,194.5c-3.6,2.8-6.9,5.3-10.2,8c-0.3,0.3-0.5,1.3-0.3,1.6c2.8,3.7,5.7,7.4,8.7,11.3    c3.8-2.9,7.4-5.8,11.3-8.7C148.7,202.5,145.7,198.6,142.5,194.5L142.5,194.5z"/>
	</g>
	<g>
		<path stroke="#0BB8AB" stroke-width="1" class="st0 TmVJohMH_8" d="M123.5,244.9l1.3,1.7l1,1.3c-1,0.8-2,1.5-2.9,2.3l-2.3-2.9C121.5,246.4,122.5,245.6,123.5,244.9 M123.8,242.1    c-2.1,1.6-4,3.1-6.1,4.7c1.6,2.1,3.1,4,4.7,6.1c2.1-1.6,4-3.1,6.1-4.7C127,246.1,125.5,244.2,123.8,242.1L123.8,242.1z"/>
	</g>
	<g>
		<path stroke="#0BB8AB" stroke-width="1" class="st0 TmVJohMH_9" d="M173.6,220.9l0.7,0.9l0.4,0.5c-0.5,0.4-0.9,0.7-1.4,1.1c-0.4-0.5-0.7-0.9-1.1-1.4    C172.7,221.6,173.1,221.3,173.6,220.9 M173.9,218.1c-1.6,1.3-3,2.3-4.5,3.5c1.2,1.5,2.2,2.9,3.5,4.6c1.5-1.2,3-2.3,4.5-3.6    C176.2,221.1,175.2,219.7,173.9,218.1L173.9,218.1z"/>
	</g>
	<g>
		<path stroke="#0BB8AB" stroke-width="1" class="st0 TmVJohMH_10" d="M182.3,231.7c0.4,0.5,0.7,0.9,1.1,1.4l-0.4,0.3l-1,0.8l-0.5-0.6l-0.6-0.8    C181.3,232.4,181.8,232.1,182.3,231.7 M182.6,228.9c-1.5,1.2-2.9,2.3-4.6,3.6c1.2,1.5,2.2,2.9,3.5,4.6c1.5-1.2,3-2.3,4.6-3.5    C184.9,231.9,183.8,230.5,182.6,228.9L182.6,228.9z"/>
	</g>
	<g>
		<path stroke="#0BB8AB" stroke-width="1" class="st0 TmVJohMH_11" d="M131.8,229.9l1.8,2.3l3.4,4.3c-2.2,1.7-4.4,3.4-6.6,5.1c-1.7-2.2-3.4-4.4-5.1-6.6l2.7-2.1L131.8,229.9     M132.2,227.1c-3.3,2.6-6.4,5-9.8,7.6c2.6,3.3,5,6.4,7.6,9.8c3.3-2.6,6.4-5,9.8-7.6C137.2,233.5,134.8,230.4,132.2,227.1    L132.2,227.1z"/>
	</g>
	<g>
		<path stroke="#0BB8AB" stroke-width="1" class="st0 TmVJohMH_12" d="M192.2,238.7c-0.9,0.7-1.8,1.3-2.8,2.1c0.8,1,1.4,1.8,2.2,2.8c1-0.8,1.8-1.4,2.9-2.2    C193.6,240.4,192.9,239.6,192.2,238.7L192.2,238.7z"/>
	</g>
	<g>
		<path stroke="#0BB8AB" stroke-width="1" class="st0 TmVJohMH_13" d="M180.5,246.4c0,0,0.1,0.1,0.1,0.1l-0.1,0.1l-0.1-0.1L180.5,246.4 M180.9,243.6c-1.1,0.8-2,1.5-3.3,2.5    c0.8,1.1,1.6,2.2,2.5,3.3c1.2-0.9,2.1-1.7,3.2-2.6C182.5,245.7,181.7,244.7,180.9,243.6L180.9,243.6z"/>
	</g>
	<g>
		<path stroke="#0BB8AB" stroke-width="1" class="st0 TmVJohMH_14" d="M167.8,237.4c0.7,1,1.5,1.9,2.2,2.8c-1,0.7-1.9,1.5-2.9,2.2l-1.2-1.5l-1-1.3l2.7-2.1L167.8,237.4     M168.2,234.6c-2,1.6-3.9,3-6,4.6c1.6,2,3,3.9,4.6,6c2-1.6,3.9-3,6-4.6C171.3,238.5,169.8,236.7,168.2,234.6L168.2,234.6z"/>
	</g>
	<g>
		<path stroke="#0BB8AB" stroke-width="1" class="st0 TmVJohMH_15" d="M141,245.8l1.3,1.7l1.9,2.4c-1.4,1.1-2.7,2.1-4.1,3.2c-1.1-1.4-2.1-2.7-3.2-4.1c1.1-0.9,2.2-1.7,3.3-2.6    L141,245.8 M141.3,243c-2.5,1.9-4.7,3.7-7.2,5.6c1.9,2.5,3.7,4.8,5.6,7.2c2.4-1.9,4.8-3.7,7.3-5.6    C145,247.7,143.3,245.4,141.3,243L141.3,243z"/>
	</g>
	<g>
		<path stroke="#0BB8AB" stroke-width="1" class="st0 TmVJohMH_16" d="M153.2,233.5c1,1.3,2,2.6,3,3.9l-3.9,3l-0.6-0.8l-2.4-3.1L153.2,233.5 M153.5,230.7c-2.4,1.8-4.6,3.6-7.1,5.5    c1.9,2.5,3.6,4.7,5.5,7.1c2.4-1.9,4.6-3.6,7.1-5.5C157.2,235.4,155.5,233.2,153.5,230.7L153.5,230.7z"/>
	</g>
	<g>
		<path stroke="#0BB8AB" stroke-width="1" class="st0 TmVJohMH_17" d="M160.3,249l2.2,2.8l-1.7,1.3l-1.1,0.9l-2.2-2.8l2-1.5L160.3,249 M160.7,246.2c-2,1.6-3.9,3-6,4.6    c1.6,2.1,3.1,4,4.6,6c2-1.6,3.9-3,6-4.6C163.7,250.2,162.3,248.3,160.7,246.2L160.7,246.2z"/>
	</g>
</g>
<g>
	<g>
		<path stroke="#0BB8AB" stroke-width="1" class="st0 TmVJohMH_18" d="M120.3,59.2c2.4,2,4.8,4,7.2,6c-2.6,3.1-5.2,6.2-7.9,9.3l-1.3,1.5l1.5,1.3c1.5,1.3,2.9,2.5,4.4,3.7    c1.7,1.4,3.4,2.9,5.1,4.3c-0.7,0.9-1.5,1.7-2.2,2.6c-0.9,1-1.8,2.1-2.6,3.1c-1.5,1.7-2.4,2.8-2.3,4.3c0.1,1.5,1.2,2.4,2.9,3.9    c2.3,1.9,4.5,3.8,6.9,5.8l1.2,1l1.5,1.3l1.3-1.5c0.8-0.9,1.5-1.8,2.3-2.6c1.8-2.1,3.7-4.3,5.4-6.5c0.2-0.2,0.3-0.3,0.4-0.4    c0.1,0.1,0.2,0.2,0.3,0.3c1.6,1.5,3.2,2.9,5,4.3c0.2,0.2,0.4,0.4,0.7,0.5c0,0,0,0,0,0c-3,3.5-6,7-9,10.5    c-6.5,7.6-13.3,15.5-19.8,23.4c-2,2.4-3.8,4.6-5.5,6.9c-8.4,10.8-14.1,20.5-18.2,30.3c-4.8,11.5-6.7,21.4-6.2,31.3    c0.2,2.8,0.5,5.8,1.1,8.8c-4.7-6.1-9.4-12.2-14.2-18.3l-2.3-3c-12.5-16.2-25.5-33-38.3-49.4c0,0-0.1-0.1-0.1-0.1c0,0,0,0,0.1-0.1    c11.8-14,23.7-28.2,35.5-42.2c1.5-1.8,3-3.6,4.6-5.4c0.8-0.9,1.5-1.8,2.3-2.7l3-3.6c6.2-7.4,12.4-14.7,18.6-22l0,0l0.1-0.1    l0.1-0.1c0.2-0.2,0.4-0.4,0.6-0.7c0.2-0.2,0.4-0.5,0.6-0.7c0.1-0.2,0.3-0.3,0.4-0.5c1.1,0.9,2.2,1.9,3.3,2.8l2.7,2.3l1.5,1.3    l1.3-1.5l3.1-3.6C116.9,63.1,118.6,61.2,120.3,59.2 M120,56.4c-3.2,3.8-6.2,7.3-9.3,11c-2.6-2.1-5-4.1-7.6-6.3    c-0.7,0.8-1.2,1.4-1.7,2c-0.4,0.5-0.8,0.9-1.2,1.4l-0.1,0.1c-7.2,8.5-14.4,17.1-21.7,25.7c-2.3,2.7-4.5,5.4-6.8,8.1    c-11.8,14.1-23.7,28.1-35.5,42.2c-0.1,0.1-0.2,0.3-0.3,0.4c0,0.1-0.1,0.1-0.1,0.2c-0.1,0.1-0.1,0.2-0.1,0.3    c-0.1,0.1-0.1,0.3-0.1,0.4c0,0.1,0,0.2,0,0.3c0.1,0.3,0.2,0.6,0.5,1c13.6,17.5,27.1,34.9,40.6,52.4c6.7,8.7,13.4,17.3,20.2,26    c0.1,0,0.1,0.1,0.1,0.1c-0.9-3.3-1.9-6.2-2.5-9.1c-0.6-2.9-1-5.9-1.1-8.9c-0.6-10.6,2-20.7,6.1-30.4c4.5-10.9,10.8-20.6,18-29.8    c1.8-2.3,3.6-4.6,5.5-6.9c9.4-11.4,19.2-22.6,28.8-33.9c0.4-0.5,0.8-1,1.2-1.6c-2.5-2.1-4.8-3.9-7-6c-0.7-0.7-1.2-1-1.7-1    c-0.6,0-1.2,0.5-1.9,1.3c-2.4,3.1-5,6-7.6,9.1c-2.8-2.4-5.5-4.6-8.1-6.8c-2.9-2.5-2.9-2.5-0.4-5.4c2-2.4,4-4.7,6.1-7.2    c-3.8-3.2-7.3-6.2-11-9.3c3.1-3.6,6-7.1,9.1-10.8C126.8,62.1,123.5,59.3,120,56.4L120,56.4z"/>
	</g>
	<g>
		<g>
			<path stroke="#0BB8AB" stroke-width="1" class="st0 TmVJohMH_19" d="M153.8,63.8l0.8,0.7l3.4,2.9l-3.6,4.3c0,0-0.1-0.1-0.1-0.1c-1.4-1.2-2.8-2.3-4.1-3.5     C151.4,66.7,152.5,65.3,153.8,63.8 M153.5,61c-1.9,2.3-3.7,4.4-5.5,6.6c-0.2,0.3-0.1,1.1,0.1,1.3c2.1,1.9,4.2,3.6,6.5,5.6     c2.1-2.5,4.1-4.8,6.2-7.3C158.4,65.1,156,63.1,153.5,61L153.5,61z"/>
		</g>
		<g>
			<path stroke="#0BB8AB" stroke-width="1" class="st0 TmVJohMH_20" d="M143.8,75.4l2.7,2.3l5.1,4.3l-4.3,5.1l-3.1,3.6l-0.8-0.6c-2.4-2-4.7-4-7-6c2.1-2.6,4.3-5.1,6.5-7.8     L143.8,75.4 M143.6,72.6c-3.2,3.8-6.2,7.3-9.1,10.9c-0.2,0.3-0.1,1.3,0.2,1.6c3.1,2.8,6.4,5.5,9.9,8.4c3.4-4,6.6-7.8,9.9-11.7     C150.8,78.7,147.3,75.7,143.6,72.6L143.6,72.6z"/>
		</g>
		<g>
			<path stroke="#0BB8AB" stroke-width="1" class="st0 TmVJohMH_21" d="M144.6,34.9c1.3,1.1,2.6,2.2,4,3.3l-2.1,2.5l-1.2,1.5l-3-2.5l-1-0.8l2.9-3.4L144.6,34.9 M144.4,32.1     c-2,2.4-3.9,4.6-5.9,7c2.4,2,4.6,3.9,7,5.9c2-2.4,3.9-4.6,5.9-7C149,36,146.7,34.1,144.4,32.1L144.4,32.1z"/>
		</g>
		<g>
			<path stroke="#0BB8AB" stroke-width="1" class="st0 TmVJohMH_22" d="M134.4,45.9l2.9,2.5l3.4,2.9l-2.1,2.5l-3.3,3.9l-3.2-2.7l-3.2-2.7L134.4,45.9 M134.2,43.1     c-2.7,3.2-5.3,6.3-8,9.4c3.2,2.7,6.2,5.2,9.4,8c2.7-3.2,5.3-6.3,8-9.4C140.4,48.3,137.4,45.8,134.2,43.1L134.2,43.1z"/>
		</g>
		<g>
			<path stroke="#0BB8AB" stroke-width="1" class="st0 TmVJohMH_23" d="M184.7,43l0.1,0.1c0,0-0.1,0.1-0.1,0.1l-0.1-0.1L184.7,43 M184.4,40.2c-0.9,1.1-1.8,2.2-2.7,3.2     c1.2,1,2.2,1.8,3.2,2.6c0.9-1.1,1.7-2.1,2.6-3.1C186.5,42,185.6,41.1,184.4,40.2L184.4,40.2z"/>
		</g>
		<g>
			<path stroke="#0BB8AB" stroke-width="1" class="st0 TmVJohMH_24" d="M156.3,48l2.8,2.3l1,0.9l-3.2,3.8l-1.2-1l-2.6-2.2l0.5-0.7L156.3,48 M156,45.2c-2,2.3-3.8,4.5-5.8,6.8     c2.4,2,4.5,3.8,6.8,5.8c2-2.4,3.8-4.5,5.8-6.8C160.5,48.9,158.4,47.1,156,45.2L156,45.2z"/>
		</g>
		<g>
			<path stroke="#0BB8AB" stroke-width="1" class="st0 TmVJohMH_25" d="M146.9,56.4c0.6,0.5,1.2,1,1.8,1.5c-0.5,0.6-1,1.2-1.5,1.8c-0.6-0.5-1.2-1-1.8-1.5     C145.9,57.6,146.4,57,146.9,56.4 M146.7,53.6c-1.4,1.6-2.6,3.1-4.1,4.9c1.4,1.2,2.7,2.4,4.1,3.4c0.1,0.1,0.3,0.1,0.5,0.1     c0.4,0,0.8-0.1,1-0.3c1.1-1.2,2.2-2.5,3.4-3.9C149.9,56.3,148.4,55.1,146.7,53.6L146.7,53.6z"/>
		</g>
		<g>
			<path stroke="#0BB8AB" stroke-width="1" class="st0 TmVJohMH_26" d="M164.2,34.7L167,37c-0.6,0.8-1.3,1.5-1.9,2.3l-0.4,0.5l-1.2-1l-1.5-1.3L164.2,34.7 M164,31.9     c-1.6,1.9-3.2,3.8-4.9,5.8c2,1.7,3.8,3.2,5.8,4.9c1.7-2,3.2-3.8,4.9-5.8C167.8,35,166,33.5,164,31.9L164,31.9z"/>
		</g>
		<g>
			<path stroke="#0BB8AB" stroke-width="1" class="st0 TmVJohMH_27" d="M137.7,63.8c1.7,1.4,3.3,2.8,5,4.2l-2,2.4l-2.2,2.6l-2-1.7l-3-2.5C134.9,67.1,136.3,65.5,137.7,63.8      M137.5,61c-2.3,2.7-4.5,5.3-6.8,8.1c2.8,2.4,5.3,4.5,8.1,6.8c2.3-2.7,4.5-5.4,6.8-8.1C142.7,65.4,140.2,63.3,137.5,61L137.5,61z     "/>
		</g>
		<g>
			<path stroke="#0BB8AB" stroke-width="1" class="st0 TmVJohMH_28" d="M127.3,37.1c1,0.8,1.9,1.6,2.8,2.4l-2.4,2.8l-2.8-2.4L127.3,37.1 M127,34.3c-1.7,2-3.3,3.9-5,5.9     c2,1.7,3.9,3.3,5.9,5c1.7-2,3.3-3.9,5-5.9C130.9,37.6,129,36,127,34.3L127,34.3z"/>
		</g>
		<g>
			<path stroke="#0BB8AB" stroke-width="1" class="st0 TmVJohMH_29" d="M185.6,55.5l1.4,1.2l-1.2,1.4c-0.5-0.4-0.9-0.8-1.4-1.2l0.9-1.1L185.6,55.5 M185.4,52.6     c-1.4,1.6-2.5,3-3.7,4.4c1.6,1.3,2.9,2.5,4.4,3.7c1.3-1.5,2.4-2.9,3.7-4.4C188.3,55.1,186.9,53.9,185.4,52.6L185.4,52.6z"/>
		</g>
		<g>
			<path stroke="#0BB8AB" stroke-width="1" class="st0 TmVJohMH_30" d="M176.5,65.9l1.3,1.1l-0.7,0.9l-0.4,0.5c-0.3-0.3-0.7-0.6-1-0.9l-0.3-0.3C175.8,66.8,176.2,66.4,176.5,65.9      M176.3,63.1c-1.3,1.6-2.5,2.9-3.7,4.4c1.5,1.3,2.8,2.4,4.3,3.7c1.3-1.5,2.5-2.9,3.7-4.4C179.2,65.5,177.8,64.4,176.3,63.1     L176.3,63.1z"/>
		</g>
		<g>
			<path stroke="#0BB8AB" stroke-width="1" class="st0 TmVJohMH_31" d="M195.7,46.5c-0.8,1-1.5,1.8-2.3,2.7c1,0.8,1.8,1.5,2.7,2.2c0.8-0.9,1.5-1.7,2.4-2.6     C197.4,47.9,196.6,47.3,195.7,46.5L195.7,46.5z"/>
		</g>
		<g>
			<path stroke="#0BB8AB" stroke-width="1" class="st0 TmVJohMH_32" d="M171.3,46.6l1.1,0.9l1.7,1.4c-0.8,0.9-1.5,1.8-2.3,2.7l-2.7-2.3l0.9-1L171.3,46.6 M171,43.8     c-1.7,2-3.2,3.8-4.9,5.8c2,1.7,3.8,3.2,5.8,4.9c1.7-2,3.2-3.8,4.9-5.8C174.8,47,173,45.5,171,43.8L171,43.8z"/>
		</g>
		<g>
			<path stroke="#0BB8AB" stroke-width="1" class="st0 TmVJohMH_33" d="M116.8,49.3l3,2.5l-2.5,3l-2-1.7l-1-0.8l1.5-1.8L116.8,49.3 M116.6,46.5c-1.7,2-3.3,3.9-5.1,6     c2,1.7,3.9,3.3,6,5.1c1.8-2.1,3.4-4,5.1-6C120.5,49.8,118.7,48.2,116.6,46.5L116.6,46.5z"/>
		</g>
		<g>
			<path stroke="#0BB8AB" stroke-width="1" class="st0 TmVJohMH_34" d="M166.3,58.8c0.8,0.6,1.5,1.3,2.3,1.9l-1.9,2.3c-0.7-0.6-1.5-1.3-2.2-1.9l1.1-1.3L166.3,58.8 M166,56     c-1.5,1.8-3,3.5-4.5,5.3c1.8,1.6,3.4,2.9,5.3,4.5c1.6-1.9,3-3.5,4.5-5.3C169.5,58.9,167.9,57.5,166,56L166,56z"/>
		</g>
		<g>
			<path stroke="#0BB8AB" stroke-width="1" class="st0 TmVJohMH_35" d="M158.8,84.3l1.6,1.4l2.3,1.9l-0.9,1.1l-2.4,2.9l-1.1-0.9l-2.8-2.4l0.6-0.7L158.8,84.3 M158.6,81.5     c-2,2.4-3.9,4.6-5.9,7c2.5,2.1,4.7,3.9,7,5.9c2-2.4,3.9-4.6,5.9-7C163.2,85.3,161,83.5,158.6,81.5L158.6,81.5z"/>
		</g>
		<g>
			<path stroke="#0BB8AB" stroke-width="1" class="st0 TmVJohMH_36" d="M164.7,74.4l1.8,1.5l-1.5,1.8l-1.7-1.4l-0.1-0.1l0.7-0.8L164.7,74.4 M164.5,71.6c-1.4,1.7-2.7,3.2-4.1,4.8     c1.7,1.5,3.2,2.7,4.9,4.1c1.4-1.7,2.7-3.2,4.1-4.8C167.6,74.2,166.2,73,164.5,71.6L164.5,71.6z"/>
		</g>
	</g>
</g>
<g>
	<g>
		<path stroke="#0BB8AB" stroke-width="1" class="st0 TmVJohMH_37" d="M118.5,148.5c0.8,1,1.6,2.1,2.4,3.2c6.2,8.2,12.7,16.5,19,24.4c2.8,3.5,5.6,7.1,8.4,10.7c0,0,0,0,0,0    c-0.3,0.2-0.6,0.5-0.9,0.7c-1.7,1.3-3.3,2.5-4.9,3.9c-0.1,0.1-0.2,0.2-0.3,0.3c-0.1-0.1-0.2-0.2-0.3-0.4c-1.7-2.3-3.5-4.7-5.3-6.9    c-0.7-0.9-1.4-1.7-2-2.6l-1.2-1.6l-1.6,1.2c-2.9,2.2-5.6,4.4-8.4,6.5c-1.8,1.4-2.9,2.3-3.1,3.8c-0.2,1.5,0.7,2.6,2.1,4.4    c1.5,1.9,3,3.9,4.6,5.9c-2.7,2.1-5.2,4.1-7.8,6.1l-2,1.6l-1.6,1.2l1.2,1.6c1.2,1.5,2.4,3,3.5,4.6c1.3,1.7,2.6,3.4,3.9,5.1    c-1,0.7-1.9,1.5-2.9,2.2c-1.5,1.2-3,2.4-4.6,3.5c-0.9-1.2-1.8-2.4-2.8-3.5c-1.6-2.1-3.3-4.2-4.9-6.3l-1.2-1.6l-1.6,1.2l-1.7,1.3    c-1.2,0.9-2.4,1.8-3.5,2.7l-0.3-1c-0.3-1.1-0.6-2.1-0.9-3.1c-0.6-2-1.2-3.9-1.5-5.7c-0.6-2.9-0.9-5.7-1.1-8.3    c-0.5-9,1.4-18.1,5.8-28.7C106.6,166.3,111.5,157.9,118.5,148.5 M118.5,145.2c-7.9,10.4-13.5,19.6-17.3,28.9    c-4.5,10.9-6.4,20.3-5.9,29.5c0.1,2.8,0.5,5.7,1.1,8.6c0.4,1.9,1,3.8,1.6,5.9c0.3,1,0.6,2,0.9,3.1l1.1,3.8c2.6-2,5-3.8,7.6-5.8    c3,3.8,5.8,7.4,8.9,11.4c3.5-2.8,7-5.4,10.6-8.2c-2.9-3.8-5.8-7.4-8.7-11.2c3.8-3,7.5-5.8,11.4-8.9c-2-2.6-3.9-5-5.8-7.4    c-2.4-3-2.4-3,0.6-5.4c2.7-2.1,5.5-4.2,8.4-6.5c2.5,3.2,5,6.3,7.3,9.4c0.6,0.9,1.2,1.4,1.8,1.4c0.5,0,1.1-0.3,1.7-0.9    c2.2-2,4.7-3.7,7.2-5.7c-0.4-0.6-0.8-1.2-1.2-1.7c-9.1-11.7-18.4-23.2-27.3-35C121.1,148.8,119.8,147,118.5,145.2L118.5,145.2z"/>
	</g>
</g>
<style data-made-with="vivus-instant">.TmVJohMH_0{stroke-dasharray:58 60;stroke-dashoffset:59;animation:TmVJohMH_draw_0 4300ms linear 0ms infinite,TmVJohMH_fade 4300ms linear 0ms infinite;}.TmVJohMH_1{stroke-dasharray:35 37;stroke-dashoffset:36;animation:TmVJohMH_draw_1 4300ms linear 0ms infinite,TmVJohMH_fade 4300ms linear 0ms infinite;}.TmVJohMH_2{stroke-dasharray:60 62;stroke-dashoffset:61;animation:TmVJohMH_draw_2 4300ms linear 0ms infinite,TmVJohMH_fade 4300ms linear 0ms infinite;}.TmVJohMH_3{stroke-dasharray:48 50;stroke-dashoffset:49;animation:TmVJohMH_draw_3 4300ms linear 0ms infinite,TmVJohMH_fade 4300ms linear 0ms infinite;}.TmVJohMH_4{stroke-dasharray:40 42;stroke-dashoffset:41;animation:TmVJohMH_draw_4 4300ms linear 0ms infinite,TmVJohMH_fade 4300ms linear 0ms infinite;}.TmVJohMH_5{stroke-dasharray:35 37;stroke-dashoffset:36;animation:TmVJohMH_draw_5 4300ms linear 0ms infinite,TmVJohMH_fade 4300ms linear 0ms infinite;}.TmVJohMH_6{stroke-dasharray:69 71;stroke-dashoffset:70;animation:TmVJohMH_draw_6 4300ms linear 0ms infinite,TmVJohMH_fade 4300ms linear 0ms infinite;}.TmVJohMH_7{stroke-dasharray:102 104;stroke-dashoffset:103;animation:TmVJohMH_draw_7 4300ms linear 0ms infinite,TmVJohMH_fade 4300ms linear 0ms infinite;}.TmVJohMH_8{stroke-dasharray:46 48;stroke-dashoffset:47;animation:TmVJohMH_draw_8 4300ms linear 0ms infinite,TmVJohMH_fade 4300ms linear 0ms infinite;}.TmVJohMH_9{stroke-dasharray:31 33;stroke-dashoffset:32;animation:TmVJohMH_draw_9 4300ms linear 0ms infinite,TmVJohMH_fade 4300ms linear 0ms infinite;}.TmVJohMH_10{stroke-dasharray:31 33;stroke-dashoffset:32;animation:TmVJohMH_draw_10 4300ms linear 0ms infinite,TmVJohMH_fade 4300ms linear 0ms infinite;}.TmVJohMH_11{stroke-dasharray:83 85;stroke-dashoffset:84;animation:TmVJohMH_draw_11 4300ms linear 0ms infinite,TmVJohMH_fade 4300ms linear 0ms infinite;}.TmVJohMH_12{stroke-dasharray:15 17;stroke-dashoffset:16;animation:TmVJohMH_draw_12 4300ms linear 0ms infinite,TmVJohMH_fade 4300ms linear 0ms infinite;}.TmVJohMH_13{stroke-dasharray:17 19;stroke-dashoffset:18;animation:TmVJohMH_draw_13 4300ms linear 0ms infinite,TmVJohMH_fade 4300ms linear 0ms infinite;}.TmVJohMH_14{stroke-dasharray:45 47;stroke-dashoffset:46;animation:TmVJohMH_draw_14 4300ms linear 0ms infinite,TmVJohMH_fade 4300ms linear 0ms infinite;}.TmVJohMH_15{stroke-dasharray:58 60;stroke-dashoffset:59;animation:TmVJohMH_draw_15 4300ms linear 0ms infinite,TmVJohMH_fade 4300ms linear 0ms infinite;}.TmVJohMH_16{stroke-dasharray:56 58;stroke-dashoffset:57;animation:TmVJohMH_draw_16 4300ms linear 0ms infinite,TmVJohMH_fade 4300ms linear 0ms infinite;}.TmVJohMH_17{stroke-dasharray:45 47;stroke-dashoffset:46;animation:TmVJohMH_draw_17 4300ms linear 0ms infinite,TmVJohMH_fade 4300ms linear 0ms infinite;}.TmVJohMH_18{stroke-dasharray:902 904;stroke-dashoffset:903;animation:TmVJohMH_draw_18 4300ms linear 0ms infinite,TmVJohMH_fade 4300ms linear 0ms infinite;}.TmVJohMH_19{stroke-dasharray:60 62;stroke-dashoffset:61;animation:TmVJohMH_draw_19 4300ms linear 0ms infinite,TmVJohMH_fade 4300ms linear 0ms infinite;}.TmVJohMH_20{stroke-dasharray:102 104;stroke-dashoffset:103;animation:TmVJohMH_draw_20 4300ms linear 0ms infinite,TmVJohMH_fade 4300ms linear 0ms infinite;}.TmVJohMH_21{stroke-dasharray:58 60;stroke-dashoffset:59;animation:TmVJohMH_draw_21 4300ms linear 0ms infinite,TmVJohMH_fade 4300ms linear 0ms infinite;}.TmVJohMH_22{stroke-dasharray:83 85;stroke-dashoffset:84;animation:TmVJohMH_draw_22 4300ms linear 0ms infinite,TmVJohMH_fade 4300ms linear 0ms infinite;}.TmVJohMH_23{stroke-dasharray:18 20;stroke-dashoffset:19;animation:TmVJohMH_draw_23 4300ms linear 0ms infinite,TmVJohMH_fade 4300ms linear 0ms infinite;}.TmVJohMH_24{stroke-dasharray:56 58;stroke-dashoffset:57;animation:TmVJohMH_draw_24 4300ms linear 0ms infinite,TmVJohMH_fade 4300ms linear 0ms infinite;}.TmVJohMH_25{stroke-dasharray:35 37;stroke-dashoffset:36;animation:TmVJohMH_draw_25 4300ms linear 0ms infinite,TmVJohMH_fade 4300ms linear 0ms infinite;}.TmVJohMH_26{stroke-dasharray:45 47;stroke-dashoffset:46;animation:TmVJohMH_draw_26 4300ms linear 0ms infinite,TmVJohMH_fade 4300ms linear 0ms infinite;}.TmVJohMH_27{stroke-dasharray:69 71;stroke-dashoffset:70;animation:TmVJohMH_draw_27 4300ms linear 0ms infinite,TmVJohMH_fade 4300ms linear 0ms infinite;}.TmVJohMH_28{stroke-dasharray:46 48;stroke-dashoffset:47;animation:TmVJohMH_draw_28 4300ms linear 0ms infinite,TmVJohMH_fade 4300ms linear 0ms infinite;}.TmVJohMH_29{stroke-dasharray:31 33;stroke-dashoffset:32;animation:TmVJohMH_draw_29 4300ms linear 0ms infinite,TmVJohMH_fade 4300ms linear 0ms infinite;}.TmVJohMH_30{stroke-dasharray:30 32;stroke-dashoffset:31;animation:TmVJohMH_draw_30 4300ms linear 0ms infinite,TmVJohMH_fade 4300ms linear 0ms infinite;}.TmVJohMH_31{stroke-dasharray:15 17;stroke-dashoffset:16;animation:TmVJohMH_draw_31 4300ms linear 0ms infinite,TmVJohMH_fade 4300ms linear 0ms infinite;}.TmVJohMH_32{stroke-dasharray:45 47;stroke-dashoffset:46;animation:TmVJohMH_draw_32 4300ms linear 0ms infinite,TmVJohMH_fade 4300ms linear 0ms infinite;}.TmVJohMH_33{stroke-dasharray:48 50;stroke-dashoffset:49;animation:TmVJohMH_draw_33 4300ms linear 0ms infinite,TmVJohMH_fade 4300ms linear 0ms infinite;}.TmVJohMH_34{stroke-dasharray:40 42;stroke-dashoffset:41;animation:TmVJohMH_draw_34 4300ms linear 0ms infinite,TmVJohMH_fade 4300ms linear 0ms infinite;}.TmVJohMH_35{stroke-dasharray:58 60;stroke-dashoffset:59;animation:TmVJohMH_draw_35 4300ms linear 0ms infinite,TmVJohMH_fade 4300ms linear 0ms infinite;}.TmVJohMH_36{stroke-dasharray:35 37;stroke-dashoffset:36;animation:TmVJohMH_draw_36 4300ms linear 0ms infinite,TmVJohMH_fade 4300ms linear 0ms infinite;}.TmVJohMH_37{stroke-dasharray:499 501;stroke-dashoffset:500;animation:TmVJohMH_draw_37 4300ms linear 0ms infinite,TmVJohMH_fade 4300ms linear 0ms infinite;}@keyframes TmVJohMH_draw{100%{stroke-dashoffset:0;}}@keyframes TmVJohMH_fade{0%{stroke-opacity:1;}97.67441860465117%{stroke-opacity:1;}100%{stroke-opacity:0;}}@keyframes TmVJohMH_draw_0{2.3255813953488373%{stroke-dashoffset: 59}95.34883720930233%{ stroke-dashoffset: 0;}100%{ stroke-dashoffset: 0;}}@keyframes TmVJohMH_draw_1{2.3255813953488373%{stroke-dashoffset: 36}95.34883720930233%{ stroke-dashoffset: 0;}100%{ stroke-dashoffset: 0;}}@keyframes TmVJohMH_draw_2{2.3255813953488373%{stroke-dashoffset: 61}95.34883720930233%{ stroke-dashoffset: 0;}100%{ stroke-dashoffset: 0;}}@keyframes TmVJohMH_draw_3{2.3255813953488373%{stroke-dashoffset: 49}95.34883720930233%{ stroke-dashoffset: 0;}100%{ stroke-dashoffset: 0;}}@keyframes TmVJohMH_draw_4{2.3255813953488373%{stroke-dashoffset: 41}95.34883720930233%{ stroke-dashoffset: 0;}100%{ stroke-dashoffset: 0;}}@keyframes TmVJohMH_draw_5{2.3255813953488373%{stroke-dashoffset: 36}95.34883720930233%{ stroke-dashoffset: 0;}100%{ stroke-dashoffset: 0;}}@keyframes TmVJohMH_draw_6{2.3255813953488373%{stroke-dashoffset: 70}95.34883720930233%{ stroke-dashoffset: 0;}100%{ stroke-dashoffset: 0;}}@keyframes TmVJohMH_draw_7{2.3255813953488373%{stroke-dashoffset: 103}95.34883720930233%{ stroke-dashoffset: 0;}100%{ stroke-dashoffset: 0;}}@keyframes TmVJohMH_draw_8{2.3255813953488373%{stroke-dashoffset: 47}95.34883720930233%{ stroke-dashoffset: 0;}100%{ stroke-dashoffset: 0;}}@keyframes TmVJohMH_draw_9{2.3255813953488373%{stroke-dashoffset: 32}95.34883720930233%{ stroke-dashoffset: 0;}100%{ stroke-dashoffset: 0;}}@keyframes TmVJohMH_draw_10{2.3255813953488373%{stroke-dashoffset: 32}95.34883720930233%{ stroke-dashoffset: 0;}100%{ stroke-dashoffset: 0;}}@keyframes TmVJohMH_draw_11{2.3255813953488373%{stroke-dashoffset: 84}95.34883720930233%{ stroke-dashoffset: 0;}100%{ stroke-dashoffset: 0;}}@keyframes TmVJohMH_draw_12{2.3255813953488373%{stroke-dashoffset: 16}95.34883720930233%{ stroke-dashoffset: 0;}100%{ stroke-dashoffset: 0;}}@keyframes TmVJohMH_draw_13{2.3255813953488373%{stroke-dashoffset: 18}95.34883720930233%{ stroke-dashoffset: 0;}100%{ stroke-dashoffset: 0;}}@keyframes TmVJohMH_draw_14{2.3255813953488373%{stroke-dashoffset: 46}95.34883720930233%{ stroke-dashoffset: 0;}100%{ stroke-dashoffset: 0;}}@keyframes TmVJohMH_draw_15{2.3255813953488373%{stroke-dashoffset: 59}95.34883720930233%{ stroke-dashoffset: 0;}100%{ stroke-dashoffset: 0;}}@keyframes TmVJohMH_draw_16{2.3255813953488373%{stroke-dashoffset: 57}95.34883720930233%{ stroke-dashoffset: 0;}100%{ stroke-dashoffset: 0;}}@keyframes TmVJohMH_draw_17{2.3255813953488373%{stroke-dashoffset: 46}95.34883720930233%{ stroke-dashoffset: 0;}100%{ stroke-dashoffset: 0;}}@keyframes TmVJohMH_draw_18{2.3255813953488373%{stroke-dashoffset: 903}95.34883720930233%{ stroke-dashoffset: 0;}100%{ stroke-dashoffset: 0;}}@keyframes TmVJohMH_draw_19{2.3255813953488373%{stroke-dashoffset: 61}95.34883720930233%{ stroke-dashoffset: 0;}100%{ stroke-dashoffset: 0;}}@keyframes TmVJohMH_draw_20{2.3255813953488373%{stroke-dashoffset: 103}95.34883720930233%{ stroke-dashoffset: 0;}100%{ stroke-dashoffset: 0;}}@keyframes TmVJohMH_draw_21{2.3255813953488373%{stroke-dashoffset: 59}95.34883720930233%{ stroke-dashoffset: 0;}100%{ stroke-dashoffset: 0;}}@keyframes TmVJohMH_draw_22{2.3255813953488373%{stroke-dashoffset: 84}95.34883720930233%{ stroke-dashoffset: 0;}100%{ stroke-dashoffset: 0;}}@keyframes TmVJohMH_draw_23{2.3255813953488373%{stroke-dashoffset: 19}95.34883720930233%{ stroke-dashoffset: 0;}100%{ stroke-dashoffset: 0;}}@keyframes TmVJohMH_draw_24{2.3255813953488373%{stroke-dashoffset: 57}95.34883720930233%{ stroke-dashoffset: 0;}100%{ stroke-dashoffset: 0;}}@keyframes TmVJohMH_draw_25{2.3255813953488373%{stroke-dashoffset: 36}95.34883720930233%{ stroke-dashoffset: 0;}100%{ stroke-dashoffset: 0;}}@keyframes TmVJohMH_draw_26{2.3255813953488373%{stroke-dashoffset: 46}95.34883720930233%{ stroke-dashoffset: 0;}100%{ stroke-dashoffset: 0;}}@keyframes TmVJohMH_draw_27{2.3255813953488373%{stroke-dashoffset: 70}95.34883720930233%{ stroke-dashoffset: 0;}100%{ stroke-dashoffset: 0;}}@keyframes TmVJohMH_draw_28{2.3255813953488373%{stroke-dashoffset: 47}95.34883720930233%{ stroke-dashoffset: 0;}100%{ stroke-dashoffset: 0;}}@keyframes TmVJohMH_draw_29{2.3255813953488373%{stroke-dashoffset: 32}95.34883720930233%{ stroke-dashoffset: 0;}100%{ stroke-dashoffset: 0;}}@keyframes TmVJohMH_draw_30{2.3255813953488373%{stroke-dashoffset: 31}95.34883720930233%{ stroke-dashoffset: 0;}100%{ stroke-dashoffset: 0;}}@keyframes TmVJohMH_draw_31{2.3255813953488373%{stroke-dashoffset: 16}95.34883720930233%{ stroke-dashoffset: 0;}100%{ stroke-dashoffset: 0;}}@keyframes TmVJohMH_draw_32{2.3255813953488373%{stroke-dashoffset: 46}95.34883720930233%{ stroke-dashoffset: 0;}100%{ stroke-dashoffset: 0;}}@keyframes TmVJohMH_draw_33{2.3255813953488373%{stroke-dashoffset: 49}95.34883720930233%{ stroke-dashoffset: 0;}100%{ stroke-dashoffset: 0;}}@keyframes TmVJohMH_draw_34{2.3255813953488373%{stroke-dashoffset: 41}95.34883720930233%{ stroke-dashoffset: 0;}100%{ stroke-dashoffset: 0;}}@keyframes TmVJohMH_draw_35{2.3255813953488373%{stroke-dashoffset: 59}95.34883720930233%{ stroke-dashoffset: 0;}100%{ stroke-dashoffset: 0;}}@keyframes TmVJohMH_draw_36{2.3255813953488373%{stroke-dashoffset: 36}95.34883720930233%{ stroke-dashoffset: 0;}100%{ stroke-dashoffset: 0;}}@keyframes TmVJohMH_draw_37{2.3255813953488373%{stroke-dashoffset: 500}95.34883720930233%{ stroke-dashoffset: 0;}100%{ stroke-dashoffset: 0;}}</style></svg>