<svg width="48" height="48" viewBox="0 0 48 48" fill="none" xmlns="http://www.w3.org/2000/svg">
<g clip-path="url(#clip0_3612_8086)">
<path d="M23.8489 1C17.5142 1 12.3359 6.1783 12.3359 12.513C12.3359 18.8477 17.5142 24.026 23.8489 24.026C30.1836 24.026 35.3619 18.8477 35.3619 12.513C35.3619 6.1783 30.1836 1 23.8489 1Z" fill="url(#paint0_linear_3612_8086)" fill-opacity="0.9"/>
<path d="M43.9145 33.1752C43.6105 32.4392 43.2052 31.7523 42.7492 31.1144C40.4186 27.7779 36.8215 25.57 32.7682 25.0303C32.2616 24.9813 31.7043 25.0793 31.299 25.3737C29.171 26.8948 26.6378 27.6798 24.0031 27.6798C21.3685 27.6798 18.8353 26.8948 16.7073 25.3737C16.302 25.0793 15.7446 24.9321 15.238 25.0303C11.1848 25.57 7.53695 27.7779 5.25703 31.1144C4.80105 31.7523 4.39569 32.4883 4.09177 33.1752C3.9398 33.4696 3.99043 33.8131 4.14239 34.1075C4.54775 34.7944 5.05435 35.4814 5.51034 36.0701C6.21962 37.0024 6.97962 37.8365 7.84097 38.6215C8.55025 39.3084 9.36088 39.9463 10.1716 40.5841C14.1741 43.4791 18.9873 45 23.9525 45C28.9177 45 33.7309 43.479 37.7334 40.5841C38.5441 39.9954 39.3547 39.3084 40.0641 38.6215C40.8747 37.8365 41.6853 37.0023 42.3947 36.0701C42.9013 35.4323 43.3574 34.7944 43.7626 34.1075C44.0158 33.8131 44.0665 33.4695 43.9145 33.1752Z" fill="url(#paint1_linear_3612_8086)" fill-opacity="0.9"/>
<path d="M37.7795 27.8096C35.7579 28.0782 33.8142 28.764 32.0716 29.8235C30.329 30.883 28.8255 32.293 27.6566 33.9641C26.4876 35.6352 25.6787 37.531 25.281 39.5313C24.8834 41.5315 24.841 43.0088 25.2819 45L33.5 44C33.6661 43.8467 42.4052 40.5492 42.4052 40.5492C43.2102 40.1148 44.028 39.6931 44.8458 39.2714C43.7589 34.8009 41.2855 30.7888 37.7795 27.8096Z" fill="#164B77"/>
<path d="M37.7781 45.5836C42.0124 45.5836 45.4449 42.1511 45.4449 37.9168C45.4449 33.6825 42.0124 30.25 37.7781 30.25C33.5439 30.25 30.1113 33.6825 30.1113 37.9168C30.1113 42.1511 33.5439 45.5836 37.7781 45.5836Z" fill="#00B7AA"/>
<path d="M37.779 27.6943C35.7572 27.6943 33.7808 28.2939 32.0998 29.4171C30.4187 30.5404 29.1085 32.1369 28.3348 34.0048C27.5611 35.8727 27.3586 37.9281 27.7531 39.911C28.1475 41.894 29.1211 43.7154 30.5507 45.145C31.9803 46.5747 33.8018 47.5483 35.7848 47.9427C37.7677 48.3371 39.8231 48.1347 41.691 47.361C43.5589 46.5873 45.1554 45.277 46.2787 43.596C47.4019 41.9149 48.0014 39.9385 48.0014 37.9167C48.0014 35.2056 46.9244 32.6055 45.0074 30.6884C43.0903 28.7713 40.4902 27.6943 37.779 27.6943ZM43.7975 36.2684L38.6863 41.3796C38.5675 41.4993 38.4262 41.5944 38.2705 41.6593C38.1147 41.7241 37.9477 41.7575 37.779 41.7575C37.6104 41.7575 37.4433 41.7241 37.2876 41.6593C37.1319 41.5944 36.9906 41.4993 36.8718 41.3796L33.0384 37.5462C32.9193 37.427 32.8248 37.2856 32.7603 37.1299C32.6958 36.9743 32.6626 36.8074 32.6626 36.6389C32.6626 36.4704 32.6958 36.3036 32.7603 36.1479C32.8248 35.9923 32.9193 35.8508 33.0384 35.7317C33.1575 35.6126 33.299 35.518 33.4547 35.4536C33.6103 35.3891 33.7772 35.3559 33.9456 35.3559C34.1141 35.3559 34.281 35.3891 34.4366 35.4536C34.5923 35.518 34.7337 35.6126 34.8529 35.7317L37.779 38.6706L41.983 34.4539C42.2236 34.2133 42.55 34.0781 42.8902 34.0781C43.2305 34.0781 43.5569 34.2133 43.7975 34.4539C44.0381 34.6945 44.1733 35.0208 44.1733 35.3611C44.1733 35.7014 44.0381 36.0278 43.7975 36.2684Z" fill="#F9F9FF"/>
</g>
<defs>
<linearGradient id="paint0_linear_3612_8086" x1="12.3359" y1="1" x2="12.3359" y2="44.7014" gradientUnits="userSpaceOnUse">
<stop stop-color="#164B77"/>
<stop offset="0.52043" stop-color="#00B7AA"/>
</linearGradient>
<linearGradient id="paint1_linear_3612_8086" x1="4" y1="25" x2="4" y2="62.9583" gradientUnits="userSpaceOnUse">
<stop stop-color="#164B77"/>
<stop offset="0.52043" stop-color="#00B7AA"/>
</linearGradient>
<clipPath id="clip0_3612_8086">
<rect width="48" height="48" fill="white"/>
</clipPath>
</defs>
</svg>
