<svg width="48" height="48" viewBox="0 0 48 48" fill="none" xmlns="http://www.w3.org/2000/svg">
<path d="M42.4615 9.23032H35.0769V7.38416C35.0769 4.3297 32.5929 1.8457 29.5385 1.8457H18.4615C15.4071 1.8457 12.9231 4.3297 12.9231 7.38416V9.23032H5.53846C2.484 9.23032 0 11.7143 0 14.7688V22.1534C0 22.8069 0.143078 23.4199 0.354462 23.9995H18.4615V22.1534C18.4615 21.1343 19.2877 20.3072 20.3077 20.3072H27.6923C28.7123 20.3072 29.5385 21.1343 29.5385 22.1534V23.9995H47.6455C47.8569 23.4199 48 22.8069 48 22.1534V14.7688C48 11.7143 45.516 9.23032 42.4615 9.23032ZM31.3846 9.23032H16.6154V7.38416C16.6154 6.36601 17.4425 5.53801 18.4615 5.53801H29.5385C30.5575 5.53801 31.3846 6.36601 31.3846 7.38416V9.23032ZM29.5385 27.6919H46.1538V36.9226C46.1538 42.0125 42.0129 46.1534 36.9231 46.1534H11.0769C5.98708 46.1534 1.84615 42.0125 1.84615 36.9226V27.6919H18.4615V29.538C18.4615 30.5571 19.2877 31.3842 20.3077 31.3842H27.6923C28.7123 31.3842 29.5385 30.5571 29.5385 29.538V27.6919ZM25.8462 23.9995V27.6919H22.1538V23.9995H25.8462Z" fill="url(#paint0_linear_3612_8149)" fill-opacity="0.9"/>
<defs>
<linearGradient id="paint0_linear_3612_8149" x1="0" y1="1.8457" x2="2.31337e-06" y2="85.938" gradientUnits="userSpaceOnUse">
<stop stop-color="#164B77"/>
<stop offset="0.52043" stop-color="#00B7AA"/>
</linearGradient>
</defs>
</svg>
