<svg width="96" height="96" viewBox="0 0 96 96" fill="none" xmlns="http://www.w3.org/2000/svg">
<g clip-path="url(#clip0_1743:138)">
<path d="M78.9375 42.375C78.9375 51.0374 75.5061 59.0251 69.2065 64.875C64.1997 69.6562 63.1311 73.3689 62.0625 78.9375C62.0625 78.9375 59.3628 82.3872 57.6746 84.75H38.9436L33.9375 78.9375C32.3621 73.3125 31.3499 69.2622 26.5686 64.7058C19.144 57.5625 15.769 47.1562 17.5686 36.8621C19.6501 24.5999 29.2126 14.644 41.3628 12.1128C43.5564 11.6624 45.8064 11.4375 48 11.4375C55.0876 11.4375 62.0061 13.7996 67.5183 18.356C74.7751 24.2622 78.9375 33.0374 78.9375 42.375Z" fill="#FFE470"/>
<path d="M78.9375 42.375C78.9375 51.0374 75.5061 59.0251 69.2065 64.875C64.1997 69.6562 63.1311 73.3689 62.0625 78.9375C62.0625 78.9375 59.3628 82.3872 57.6746 84.75H48V11.4375C55.0876 11.4375 62.0061 13.7996 67.5183 18.356C74.7751 24.2622 78.9375 33.0374 78.9375 42.375Z" fill="#FFD400"/>
<path d="M8.4375 45.1875H2.8125C1.2583 45.1875 0 43.9299 0 42.375C0 40.8208 1.2583 39.5625 2.8125 39.5625H8.4375C9.9917 39.5625 11.25 40.8208 11.25 42.375C11.25 43.9299 9.9917 45.1875 8.4375 45.1875Z" fill="#FDBF00"/>
<path d="M93.1875 45.1875H87.5625C86.0083 45.1875 84.75 43.9299 84.75 42.375C84.75 40.8208 86.0083 39.5625 87.5625 39.5625H93.1875C94.7417 39.5625 96 40.8208 96 42.375C96 43.9299 94.7417 45.1875 93.1875 45.1875Z" fill="#FF9F00"/>
<path d="M13.8984 25.5C13.4202 25.5 12.9368 25.3791 12.4951 25.1235L7.62232 22.311C6.27686 21.5339 5.81543 19.8149 6.59253 18.4687C7.37036 17.1226 9.09229 16.6611 10.4348 17.439L15.3076 20.2515C16.6531 21.0286 17.1145 22.7476 16.3374 24.0937C15.8159 24.9946 14.8711 25.5 13.8984 25.5Z" fill="#FDBF00"/>
<path d="M86.9685 67.6875C86.4902 67.6875 86.0068 67.5667 85.5652 67.3111L80.6924 64.4986C79.3469 63.7215 78.8855 62.0025 79.6626 60.6563C80.4375 59.3101 82.1594 58.8516 83.5049 59.6265L88.3777 62.439C89.7231 63.2161 90.1846 64.9351 89.4075 66.2813C88.886 67.1822 87.9412 67.6875 86.9685 67.6875Z" fill="#FF9F00"/>
<path d="M28.3154 10.4971C27.3428 10.4971 26.3979 9.9917 25.8765 9.09083L23.064 4.21802C22.2861 2.87256 22.7476 1.15284 24.0937 0.375737C25.4341 -0.399165 27.156 0.0629934 27.936 1.40552L30.7485 6.27833C31.5264 7.62378 31.0649 9.34351 29.7187 10.1206C29.2764 10.3762 28.793 10.4971 28.3154 10.4971Z" fill="#FDBF00"/>
<path d="M9.0315 67.6875C8.05884 67.6875 7.11402 67.1822 6.59253 66.2813C5.81543 64.9351 6.27686 63.2161 7.62232 62.439L12.4951 59.6265C13.8325 58.8516 15.5545 59.3101 16.3374 60.6563C17.1145 62.0025 16.6531 63.7215 15.3076 64.4986L10.4348 67.3111C9.99317 67.5667 9.50977 67.6875 9.0315 67.6875Z" fill="#FDBF00"/>
<path d="M82.1016 25.5C81.1289 25.5 80.1841 24.9946 79.6626 24.0937C78.8855 22.7476 79.3469 21.0286 80.6924 20.2515L85.5652 17.439C86.9026 16.6611 88.6304 17.1226 89.4075 18.4687C90.1846 19.8149 89.7231 21.5339 88.3777 22.311L83.5049 25.1235C83.0632 25.3791 82.5798 25.5 82.1016 25.5Z" fill="#FF9F00"/>
<path d="M67.6846 10.5264C67.207 10.5264 66.7236 10.4055 66.2812 10.1499C64.9351 9.37282 64.4736 7.65309 65.2515 6.30763L68.064 1.43483C68.844 0.0923004 70.5579 -0.369125 71.9062 0.405044C73.2524 1.18288 73.7139 2.90187 72.936 4.24733L70.1235 9.12013C69.602 10.021 68.6572 10.5264 67.6846 10.5264Z" fill="#FF9F00"/>
<path d="M66.8438 40.4062C65.7751 39.2812 63.9749 39.2812 62.9062 40.4062L59.25 44.0061L55.5938 40.4062C54.5251 39.2812 52.7249 39.2812 51.6562 40.4062L48 44.0061L44.3438 40.4062C43.2751 39.2812 41.4749 39.2812 40.4062 40.4062L36.75 44.0061L33.0938 40.4062C32.0251 39.2812 30.2249 39.2812 29.1562 40.4062C28.0312 41.4749 28.0312 43.2751 29.1562 44.3438L34.5564 49.8003L45.1875 65.7188V81.75C45.1875 83.3247 46.4246 84.75 48 84.75C49.5754 84.75 50.8125 83.3247 50.8125 81.75V65.7188L61.4436 49.8003L66.8438 44.3438C67.9688 43.2751 67.9688 41.4749 66.8438 40.4062ZM48 59.8125L40.3499 48.3376L42.375 46.3689L46.0312 49.9688C46.5374 50.5312 47.269 50.8125 48 50.8125C48.731 50.8125 49.4626 50.5312 49.9688 49.9688L53.625 46.3689L55.6501 48.3376L48 59.8125Z" fill="#FDBF00"/>
<path d="M66.8438 44.3438L61.4436 49.8003L50.8125 65.7188V81.75C50.8125 83.3247 49.5754 84.75 48 84.75V59.8125L55.6501 48.3376L53.625 46.3689L49.9688 49.9688C49.4626 50.5312 48.731 50.8125 48 50.8125V44.0061L51.6562 40.4062C52.7249 39.2812 54.5251 39.2812 55.5938 40.4062L59.25 44.0061L62.907 40.4062C63.9756 39.2812 65.7751 39.2812 66.8438 40.4062C67.9688 41.4749 67.9688 43.2751 66.8438 44.3438Z" fill="#FF9F00"/>
<path d="M33.9375 78.9375V87.5625C33.9375 92.231 37.7058 96 42.375 96H53.625C58.2942 96 62.0625 92.231 62.0625 87.5625V78.9375H33.9375Z" fill="#DEECF1"/>
<path d="M62.0625 78.9375V87.5625C62.0625 92.231 58.2942 96 53.625 96H48V78.9375H62.0625Z" fill="#A8D3D8"/>
</g>
<defs>
<clipPath id="clip0_1743:138">
<rect width="96" height="96" fill="white"/>
</clipPath>
</defs>
</svg>
