<svg width="96" height="96" viewBox="0 0 96 96" fill="none" xmlns="http://www.w3.org/2000/svg">
<g clip-path="url(#clip0_1743:65)">
<path d="M25.0436 88.6453L26.82 89.7806C32.6413 92.4488 39.1153 93.9379 45.9378 93.9379C53.6739 93.9379 60.9614 92.0228 67.3574 88.6451H25.0436V88.6453Z" fill="#1C2E7A"/>
<path d="M16.1138 82.9378L17.3167 83.7066H74.8377C85.2307 75.2844 91.8758 62.4193 91.8758 48C91.8758 22.6292 71.3088 2.06213 45.938 2.06213C39.1154 2.06213 32.6414 3.55145 26.8201 6.21938L7.49634 73.1537C9.89465 76.8114 12.8 80.1062 16.1138 82.9378V82.9378Z" fill="#FFDD40"/>
<path d="M66.3264 6.21939H26.8202C10.9941 13.473 0 29.4518 0 48C0 52.572 0.671062 56.9865 1.91475 61.1543H32.7092V56.631C32.7092 55.1916 33.8319 53.9636 35.2656 53.8354L35.5217 53.8125V47.4855C35.5217 45.2153 37.3688 43.3682 39.639 43.3682H72.7284V12.6216C72.7284 9.09133 69.8565 6.21939 66.3264 6.21939V6.21939Z" fill="#167CC1"/>
<path d="M3.92981 29.3882C5.83462 30.8737 7.56206 32.7142 9.08044 34.9296C18.4179 48.5546 27.2627 45.9367 36.0559 45.4612C36.7639 44.2129 38.1043 43.3682 39.639 43.3682H68.6034V16.7374H12.2827C8.84325 20.4386 6.00675 24.7071 3.92981 29.3882V29.3882Z" fill="#73C3F9"/>
<path d="M18.1534 16.7376H12.2829C8.84325 20.4386 6.00693 24.7071 3.92981 29.3882C5.83462 30.8738 7.56206 32.7143 9.08044 34.9296C12.1528 39.4127 15.1719 42.1371 18.1534 43.758V16.7376Z" fill="#4FABF7"/>
<path d="M45.3937 24.7176C53.8346 35.0486 61.3811 37.6069 68.6034 37.6402V16.7374H36.0186C39.4504 18.6484 42.5974 21.2951 45.3937 24.7176Z" fill="#9BD8F9"/>
<path d="M66.3265 10.3444H19.6234C16.8145 12.3111 14.2339 14.5817 11.9338 17.1124H68.6035V12.6216C68.6035 11.3873 67.5608 10.3444 66.3265 10.3444Z" fill="#2A428C"/>
<path d="M18.1534 14.5599C18.1534 13.2199 18.4538 11.9471 18.9874 10.803C16.425 12.6623 14.0586 14.7746 11.9338 17.1126H18.1534V14.5599Z" fill="#1C2E7A"/>
<path d="M13.8466 15.1346H47.0288C47.8054 15.1346 48.4351 14.505 48.4351 13.7284C48.4351 12.9518 47.8054 12.3221 47.0288 12.3221H17.0026C15.9076 13.2115 14.8547 14.1501 13.8466 15.1346V15.1346Z" fill="#3C58A0"/>
<path d="M63.2887 15.1346H61.4559C60.6793 15.1346 60.0497 14.505 60.0497 13.7284C60.0497 12.9518 60.6793 12.3221 61.4559 12.3221H63.2887C64.0654 12.3221 64.695 12.9518 64.695 13.7284C64.695 14.505 64.0656 15.1346 63.2887 15.1346Z" fill="#3C58A0"/>
<path d="M56.9164 15.1346H55.0834C54.3067 15.1346 53.6771 14.505 53.6771 13.7284C53.6771 12.9518 54.3067 12.3221 55.0834 12.3221H56.9164C57.693 12.3221 58.3226 12.9518 58.3226 13.7284C58.3226 14.505 57.693 15.1346 56.9164 15.1346Z" fill="#3C58A0"/>
<path d="M58.8986 23.4874H41.7814V28.416H58.8986C60.2597 28.416 61.3629 27.3127 61.3629 25.9517C61.3629 24.5906 60.2597 23.4874 58.8986 23.4874V23.4874Z" fill="#E9EFFF"/>
<path d="M49.6572 25.9517C49.6572 24.5906 50.7604 23.4874 52.1215 23.4874H41.7816V28.416H52.1215C50.7604 28.416 49.6572 27.3127 49.6572 25.9517V25.9517Z" fill="#D3DCFB"/>
<path d="M41.9691 23.4874H39.2031C37.842 23.4874 36.7388 24.5906 36.7388 25.9517C36.7388 27.3127 37.842 28.416 39.2031 28.416H41.9691V23.4874Z" fill="#3C58A0"/>
<path d="M9.38962 34.7175C7.76962 32.3537 5.97769 30.4883 4.08937 29.0278C1.46325 34.8111 0 41.2346 0 48C0 52.572 0.671062 56.9865 1.91475 61.1543H32.7092V56.631C32.7092 55.1916 33.8319 53.9636 35.2656 53.8354L35.5217 53.8125V47.4855C35.5217 46.5842 35.8136 45.7502 36.3066 45.0715C27.3928 45.5141 18.7215 48.3343 9.38962 34.7175V34.7175Z" fill="#4FABF7"/>
<path d="M18.1534 43.3429C15.2798 41.734 12.3684 39.0641 9.38962 34.7177C7.76962 32.3539 5.97769 30.4885 4.08937 29.028C1.46325 34.8113 0 41.2346 0 48C0 52.572 0.671062 56.9865 1.91475 61.1543H18.1534V43.3429Z" fill="#1E9EF4"/>
<path d="M32.7092 86.6908V72.7787H17.7795L16.7398 80.5369C16.6187 81.4401 16.393 82.2379 16.1138 82.9378C19.3294 85.6854 22.9283 87.9969 26.82 89.7806H35.7105V89.4994H35.5176C33.969 89.4994 32.7092 88.2396 32.7092 86.6908V86.6908Z" fill="#D3DCFB"/>
<path d="M32.7092 86.6908V72.7787H23.4742L23.1646 73.1537C23.1646 73.1537 25.9121 74.6256 25.9121 77.4381C25.9121 80.2506 25.9121 83.4051 25.9121 83.4051C25.9121 83.4051 25.9756 87.2735 22.7047 87.6341C24.0352 88.4158 25.4081 89.1334 26.8201 89.7804H35.7107V89.4992H35.5177C33.969 89.4994 32.7092 88.2396 32.7092 86.6908V86.6908Z" fill="#BEC8F7"/>
<path d="M7.49628 73.1537H32.7092V60.7793H1.80322C3.0861 65.2176 5.02091 69.3786 7.49628 73.1537V73.1537Z" fill="#E9EFFF"/>
<path d="M18.1534 65.1235V60.7793H1.80322C3.0861 65.2176 5.02091 69.3784 7.49628 73.1537H23.1647C20.2032 71.6897 18.1534 68.635 18.1534 65.1235V65.1235Z" fill="#D3DCFB"/>
<path d="M26.5339 69.7264C28.0581 69.7264 29.2937 68.4908 29.2937 66.9666C29.2937 65.4424 28.0581 64.2068 26.5339 64.2068C25.0097 64.2068 23.774 65.4424 23.774 66.9666C23.774 68.4908 25.0097 69.7264 26.5339 69.7264Z" fill="#BEC8F7"/>
<path d="M89.2174 43.0869H39.639C37.2199 43.0869 35.2405 45.0664 35.2405 47.4855V53.9304C35.3316 53.9211 35.424 53.9164 35.5178 53.9164H49.9253C51.4221 53.9164 52.6401 55.1342 52.6401 56.631V83.4053H93.6113C93.6137 83.3455 93.6158 83.2856 93.6158 83.2255V47.4853C93.616 45.0662 91.6365 43.0869 89.2174 43.0869V43.0869Z" fill="#167CC1"/>
<path d="M68.4989 82.5373C66.2849 80.3874 67.0562 78.0161 67.8102 76.6811C68.1136 76.1439 67.9 75.4556 67.3407 75.1954C64.5657 73.9041 65.0367 71.2496 65.3273 70.26C65.4046 69.9971 65.3736 69.7147 65.2469 69.4719L62.5712 64.3421C62.4976 64.2009 62.3948 64.0755 62.2656 63.9823C60.5552 62.7467 60.8959 60.9596 61.2886 59.943C61.4597 59.4998 61.3071 58.9924 60.9231 58.7124C59.0337 57.3339 59.476 55.275 59.8782 54.2192C60.0316 53.8164 59.9312 53.3573 59.614 53.0653C57.4268 51.0527 58.0911 48.9291 58.6206 47.9147C58.8085 47.5547 58.7924 47.1163 58.5616 46.7824C57.7547 45.6148 58.0969 44.496 58.4862 43.8011C58.6116 43.5771 58.6532 43.3253 58.6156 43.0871H39.6387C37.2194 43.0871 35.2401 45.0666 35.2401 47.4857V53.9304C35.3312 53.9213 35.4239 53.9164 35.5172 53.9164H49.9247C51.4216 53.9164 52.6395 55.1342 52.6395 56.631V83.4052H68.8116C68.8435 83.0927 68.7392 82.7707 68.4989 82.5373V82.5373Z" fill="#0E62A8"/>
<path d="M39.4592 53.1662V53.9162H49.9251C51.4219 53.9162 52.6399 55.134 52.6399 56.6309V83.4051H88.5383C89.0127 83.4051 89.3972 83.0205 89.3972 82.5462V53.1662H39.4592Z" fill="#FF4155"/>
<path d="M39.4592 53.9162H49.9251C51.4219 53.9162 52.6399 55.134 52.6399 56.6309V83.4051H68.812C68.8435 83.0925 68.7392 82.7706 68.4989 82.5372C66.2849 80.3873 67.0562 78.016 67.8102 76.681C68.1135 76.1438 67.9 75.4555 67.3407 75.1952C64.5657 73.9039 65.0367 71.2495 65.3273 70.2598C65.4045 69.997 65.3736 69.7146 65.2469 69.4718L62.5712 64.342C62.4975 64.2008 62.3948 64.0753 62.2656 63.9822C60.5552 62.7465 60.8959 60.9595 61.2885 59.9429C61.4597 59.4996 61.3071 58.9922 60.9231 58.7123C59.0337 57.3338 59.476 55.2749 59.8782 54.219C60.015 53.86 59.9487 53.4565 59.7081 53.1662H39.4592V53.9162Z" fill="#E80054"/>
<path d="M94.482 83.2178H52.6399V86.6908C52.6399 88.1878 51.4221 89.4056 49.9251 89.4056H49.0508V89.7806H90.955C93.7412 89.7806 95.9998 87.522 95.9998 84.7358C96 83.8975 95.3203 83.2178 94.482 83.2178V83.2178Z" fill="#E9EFFF"/>
<path d="M52.6399 86.6908C52.6399 88.1878 51.4221 89.4056 49.9251 89.4056H49.0508V89.7806H69.1512C69.0925 89.6505 69.0092 89.5311 68.9007 89.4325C66.5095 87.2586 67.6658 85.0855 68.5768 83.9755C68.7574 83.7555 68.8345 83.4831 68.8146 83.2178H52.6397V86.6908H52.6399Z" fill="#D3DCFB"/>
<path d="M88.5383 47.3057H40.3182C39.8438 47.3057 39.4592 47.6903 39.4592 48.1646V53.5412H89.3972V48.1646C89.3972 47.6903 89.0127 47.3057 88.5383 47.3057V47.3057Z" fill="#FF7186"/>
<path d="M58.621 47.9145C58.7204 47.7244 58.7609 47.5127 58.7447 47.3057H40.3182C39.8438 47.3057 39.4592 47.6903 39.4592 48.1646V53.5412H59.9048C59.8532 53.3625 59.757 53.1964 59.6144 53.0651C57.4272 51.0525 58.0915 48.9287 58.621 47.9145V47.9145Z" fill="#FF4155"/>
<path d="M49.925 88.3744H35.5175C33.8139 88.3744 32.4277 86.9884 32.4277 85.2846V55.2248C32.4277 53.521 33.8137 52.135 35.5175 52.135H49.925C51.6287 52.135 53.0149 53.521 53.0149 55.2248V85.2846C53.0149 86.9884 51.6287 88.3744 49.925 88.3744V88.3744Z" fill="#FFDD40"/>
<path d="M43.7363 55.2235H45.1519V52.1352H35.5178C33.8142 52.1352 32.428 53.5212 32.428 55.225V85.2848C32.428 86.9886 33.814 88.3746 35.5178 88.3746H43.7365C42.0329 88.3746 40.6467 86.9886 40.6467 85.2848V58.3131C40.6465 56.6095 42.0325 55.2235 43.7363 55.2235Z" fill="#FFB332"/>
<path d="M37.7098 64.6716H37.1919C36.4153 64.6716 35.7856 64.0421 35.7856 63.2653C35.7856 62.4885 36.4153 61.8591 37.1919 61.8591H37.7098C38.4864 61.8591 39.116 62.4885 39.116 63.2653C39.116 64.0419 38.4864 64.6716 37.7098 64.6716Z" fill="#FCF2C8"/>
<path d="M37.7098 70.0764H37.1919C36.4153 70.0764 35.7856 69.4468 35.7856 68.6702C35.7856 67.8934 36.4153 67.2639 37.1919 67.2639H37.7098C38.4864 67.2639 39.116 67.8934 39.116 68.6702C39.116 69.4468 38.4864 70.0764 37.7098 70.0764Z" fill="#FCF2C8"/>
<path d="M37.7098 75.4813H37.1919C36.4153 75.4813 35.7856 74.8519 35.7856 74.075C35.7856 73.2984 36.4153 72.6688 37.1919 72.6688H37.7098C38.4864 72.6688 39.116 73.2984 39.116 74.075C39.116 74.8517 38.4864 75.4813 37.7098 75.4813Z" fill="#FCF2C8"/>
<path d="M37.7098 80.8862H37.1919C36.4153 80.8862 35.7856 80.2568 35.7856 79.4799C35.7856 78.7031 36.4153 78.0737 37.1919 78.0737H37.7098C38.4864 78.0737 39.116 78.7031 39.116 79.4799C39.116 80.2568 38.4864 80.8862 37.7098 80.8862Z" fill="#FCF2C8"/>
<path d="M48.2509 64.6716H42.0527C41.2761 64.6716 40.6465 64.0421 40.6465 63.2653C40.6465 62.4885 41.2761 61.8591 42.0527 61.8591H48.2509C49.0275 61.8591 49.6572 62.4885 49.6572 63.2653C49.6572 64.0419 49.0275 64.6716 48.2509 64.6716Z" fill="#FCF2C8"/>
<path d="M48.2509 70.0764H42.0527C41.2761 70.0764 40.6465 69.4468 40.6465 68.6702C40.6465 67.8934 41.2761 67.2639 42.0527 67.2639H48.2509C49.0275 67.2639 49.6572 67.8934 49.6572 68.6702C49.6572 69.4468 49.0275 70.0764 48.2509 70.0764Z" fill="#FCF2C8"/>
<path d="M48.2509 75.4813H42.0527C41.2761 75.4813 40.6465 74.8519 40.6465 74.075C40.6465 73.2984 41.2761 72.6688 42.0527 72.6688H48.2509C49.0275 72.6688 49.6572 73.2984 49.6572 74.075C49.6572 74.8517 49.0275 75.4813 48.2509 75.4813Z" fill="#FCF2C8"/>
<path d="M48.2509 80.8862H42.0527C41.2761 80.8862 40.6465 80.2568 40.6465 79.4799C40.6465 78.7031 41.2761 78.0737 42.0527 78.0737H48.2509C49.0275 78.0737 49.6572 78.7031 49.6572 79.4799C49.6572 80.2568 49.0275 80.8862 48.2509 80.8862Z" fill="#FCF2C8"/>
<path d="M49.9251 50.7287H35.5176C33.0387 50.7287 31.0217 52.7457 31.0217 55.2248V85.2846C31.0217 87.7637 33.0387 89.7805 35.5176 89.7805H49.9251C52.4042 89.7805 54.4212 87.7635 54.4212 85.2846V55.2248C54.4212 52.7457 52.4042 50.7287 49.9251 50.7287V50.7287ZM51.6087 85.2846C51.6087 86.2144 50.8549 86.968 49.9251 86.968H35.5176C34.588 86.968 33.8342 86.2142 33.8342 85.2846V55.2246C33.8342 54.2948 34.588 53.541 35.5178 53.541H38.1115C38.2785 53.541 38.4141 53.6764 38.4141 53.8435C38.4141 54.8329 39.2235 55.6424 40.213 55.6424H45.2301C46.2195 55.6424 47.029 54.8329 47.029 53.8435C47.029 53.6764 47.1644 53.541 47.3316 53.541H49.9253C50.8551 53.541 51.6089 54.2948 51.6089 55.2246V85.2846H51.6087Z" fill="#167CC1"/>
<path d="M73.2555 69.3737C74.1994 64.5206 71.0305 59.8213 66.1775 58.8774C61.3244 57.9334 56.6251 61.1024 55.6812 65.9554C54.7372 70.8085 57.9062 75.5078 62.7592 76.4517C67.6122 77.3957 72.3116 74.2267 73.2555 69.3737Z" fill="#E9EFFF"/>
<path d="M67.3407 75.1952C64.5657 73.9039 65.0367 71.2495 65.3273 70.2599C65.4045 69.997 65.3736 69.7146 65.2469 69.4718L62.5712 64.342C62.4976 64.2008 62.3948 64.0754 62.2656 63.9822C60.5552 62.7465 60.8959 60.9595 61.2886 59.9429C61.3726 59.7255 61.3776 59.4932 61.3169 59.2795C57.9087 60.5434 55.4796 63.8234 55.4796 67.6712C55.4796 72.6132 59.4859 76.6195 64.4279 76.6195C65.6665 76.6195 66.8462 76.3677 67.9189 75.9126C67.8484 75.6087 67.6469 75.3377 67.3407 75.1952V75.1952Z" fill="#D3DCFB"/>
<path d="M68.1504 66.9829L63.128 64.1524C62.6013 63.8556 61.95 64.2362 61.95 64.8407V70.5017C61.95 71.1062 62.6013 71.4868 63.128 71.19L68.1504 68.3595C68.6866 68.0575 68.6866 67.2851 68.1504 66.9829Z" fill="#FF4155"/>
<path d="M41.1474 86.9682H35.5175C34.5879 86.9682 33.8342 86.2144 33.8342 85.2848V55.2248C33.8342 54.295 34.5879 53.5412 35.5177 53.5412H38.1114C38.2785 53.5412 38.414 53.6766 38.414 53.8437C38.414 54.8331 39.2235 55.6425 40.2129 55.6425H42.1864C40.1908 53.3084 41.7992 51.2592 42.2921 50.7287H35.5177C33.0388 50.7287 31.0219 52.7457 31.0219 55.2248V85.2846C31.0219 87.7637 33.0388 89.7805 35.5177 89.7805H40.8013C39.7764 88.3238 41.0212 87.0874 41.1474 86.9682Z" fill="#0E62A8"/>
</g>
<defs>
<clipPath id="clip0_1743:65">
<rect width="96" height="96" fill="white"/>
</clipPath>
</defs>
</svg>
