<svg width="72" height="72" viewBox="0 0 72 72" fill="none" xmlns="http://www.w3.org/2000/svg">
<path d="M35.6501 36.981L36 37.0946L36.3499 36.9798C36.4928 36.9337 50.625 32.1525 50.625 18V10.9743L49.329 11.1746C42.1391 12.285 36.8471 7.13022 36.7943 7.07847L35.9977 6.2876L35.2058 7.08072C35.1529 7.13247 29.9014 12.285 22.6721 11.1757L21.375 10.9743V18C21.375 32.1525 35.5084 36.9337 35.6501 36.981ZM23.625 13.5438C29.6685 13.9815 34.2292 10.836 36 9.37797C37.7708 10.836 42.345 13.9781 48.375 13.5438V18C48.375 29.4671 38.106 33.9232 36.0045 34.7152C33.9683 33.9266 23.625 29.3625 23.625 18V13.5438Z" fill="#00B7AA"/>
<path d="M44.6703 18.7065L43.0796 17.1157L33.75 26.4454L30.0453 22.7407L28.4546 24.3315L33.75 29.6269L44.6703 18.7065Z" fill="#00B7AA"/>
<path d="M64.125 21.375H57.375V32.625H50.1075C52.9639 29.1229 55.125 24.3855 55.125 18.0585V5.37973L53.5703 6.0221C44.3295 9.84598 37.1464 1.84948 36.8449 1.50748L35.9989 0.547852L35.1551 1.50748C34.8536 1.84948 27.6671 9.84485 18.4309 6.0221L16.875 5.37973V18.0585C16.875 24.3855 19.0361 29.1229 21.8925 32.625H14.625V21.375H7.875C4.15237 21.375 1.125 24.4024 1.125 28.125V64.125C1.125 67.8476 4.15237 70.875 7.875 70.875H64.125C67.8476 70.875 70.875 67.8476 70.875 64.125V28.125C70.875 24.4024 67.8476 21.375 64.125 21.375ZM59.625 23.625H64.125C66.6068 23.625 68.625 25.6432 68.625 28.125C68.625 30.6067 66.6068 32.625 64.125 32.625H59.625V23.625ZM19.125 8.65573C27.2003 11.0666 33.7421 5.94448 36 3.83848C38.2567 5.9456 44.7975 11.0722 52.875 8.6546V18.0574C52.875 33.9007 38.2973 38.6797 36.0045 39.3322C33.8231 38.6887 19.125 33.7534 19.125 18.0585V8.65573ZM7.875 23.625H12.375V32.625H7.875C5.39325 32.625 3.375 30.6067 3.375 28.125C3.375 25.6432 5.39325 23.625 7.875 23.625ZM64.125 68.625H7.875C5.39325 68.625 3.375 66.6067 3.375 64.125V33.1425C4.57087 34.2157 6.14475 34.875 7.875 34.875H23.9873C29.2838 39.9004 35.6175 41.5642 35.7266 41.5912L36 41.6599L36.2734 41.5912C36.3825 41.5642 42.7163 39.9004 48.0128 34.875H64.125C65.8552 34.875 67.4291 34.2157 68.625 33.1425V64.125C68.625 66.6067 66.6068 68.625 64.125 68.625Z" fill="#00B7AA"/>
<path d="M12.375 64.125H14.625V66.375H12.375V64.125Z" fill="#00B7AA"/>
<path d="M16.875 64.125H19.125V66.375H16.875V64.125Z" fill="#00B7AA"/>
<path d="M21.375 64.125H23.625V66.375H21.375V64.125Z" fill="#00B7AA"/>
<path d="M25.875 64.125H28.125V66.375H25.875V64.125Z" fill="#00B7AA"/>
<path d="M7.875 64.125H10.125V66.375H7.875V64.125Z" fill="#00B7AA"/>
<path d="M61.875 57.375H50.625C48.1432 57.375 46.125 59.3932 46.125 61.875C46.125 64.3568 48.1432 66.375 50.625 66.375H61.875C64.3568 66.375 66.375 64.3568 66.375 61.875C66.375 59.3932 64.3568 57.375 61.875 57.375ZM61.875 64.125H50.625C49.3841 64.125 48.375 63.1159 48.375 61.875C48.375 60.6341 49.3841 59.625 50.625 59.625H61.875C63.1159 59.625 64.125 60.6341 64.125 61.875C64.125 63.1159 63.1159 64.125 61.875 64.125Z" fill="#00B7AA"/>
<path d="M61.875 46.125H50.625C48.1432 46.125 46.125 48.1432 46.125 50.625C46.125 53.1068 48.1432 55.125 50.625 55.125H61.875C64.3568 55.125 66.375 53.1068 66.375 50.625C66.375 48.1432 64.3568 46.125 61.875 46.125ZM61.875 52.875H50.625C49.3841 52.875 48.375 51.8659 48.375 50.625C48.375 49.3841 49.3841 48.375 50.625 48.375H61.875C63.1159 48.375 64.125 49.3841 64.125 50.625C64.125 51.8659 63.1159 52.875 61.875 52.875Z" fill="#00B7AA"/>
<path d="M46.125 41.625H66.375V43.875H46.125V41.625Z" fill="#00B7AA"/>
<path d="M64.125 37.125H66.375V39.375H64.125V37.125Z" fill="#00B7AA"/>
<path d="M59.625 37.125H61.875V39.375H59.625V37.125Z" fill="#00B7AA"/>
<path d="M55.125 37.125H57.375V39.375H55.125V37.125Z" fill="#00B7AA"/>
<path d="M50.625 37.125H52.875V39.375H50.625V37.125Z" fill="#00B7AA"/>
<path d="M46.125 37.125H48.375V39.375H46.125V37.125Z" fill="#00B7AA"/>
<path d="M29.5639 53.8673C30.0802 52.5071 30.375 51.039 30.375 49.5C30.375 42.6769 24.8231 37.125 18 37.125C11.1769 37.125 5.625 42.6769 5.625 49.5C5.625 56.3231 11.1769 61.875 18 61.875C22.3526 61.875 26.1799 59.6104 28.3871 56.2039L32.0085 61.875H41.625V59.625H33.2415L29.5639 53.8673ZM15.057 52.875C14.7937 51.8265 14.625 50.697 14.625 49.5C14.625 48.303 14.7937 47.1735 15.057 46.125H20.9385C21.2051 47.1735 21.375 48.303 21.375 49.5C21.375 50.697 21.2051 51.8265 20.9396 52.875H15.057ZM20.1825 55.125C19.4794 56.7979 18.6154 58.1197 17.9887 58.9567C17.3655 58.1186 16.5083 56.7979 15.8096 55.125H20.1825ZM7.875 49.5C7.875 48.3154 8.08988 47.1825 8.46563 46.125H12.7451C12.5179 47.1825 12.375 48.3086 12.375 49.5C12.375 50.6914 12.5179 51.8175 12.7451 52.875H8.46563C8.08988 51.8175 7.875 50.6846 7.875 49.5ZM15.8096 43.875C16.5071 42.2021 17.3655 40.8814 17.9887 40.0433C18.6165 40.8803 19.4794 42.201 20.1825 43.875H15.8096ZM23.2526 46.125H27.5344C27.9101 47.1825 28.125 48.3154 28.125 49.5C28.125 50.6846 27.9101 51.8175 27.5344 52.875H23.2526C23.481 51.8175 23.625 50.6914 23.625 49.5C23.625 48.3086 23.481 47.1825 23.2526 46.125ZM26.4128 43.875H22.608C21.9983 42.1864 21.213 40.7711 20.5065 39.7024C22.95 40.3279 25.0436 41.8342 26.4128 43.875ZM15.4699 39.708C14.769 40.7768 13.9894 42.1886 13.3852 43.875H9.58725C10.9519 41.841 13.0365 40.338 15.4699 39.708ZM9.58725 55.125H13.3852C13.9894 56.8114 14.769 58.2244 15.4699 59.292C13.0365 58.662 10.9519 57.159 9.58725 55.125ZM20.5065 59.2976C21.213 58.2289 21.9994 56.8136 22.608 55.125H26.4128C25.0436 57.1658 22.95 58.6721 20.5065 59.2976Z" fill="#00B7AA"/>
<path d="M34.875 55.125H37.125V57.375H34.875V55.125Z" fill="#00B7AA"/>
<path d="M39.375 55.125H41.625V57.375H39.375V55.125Z" fill="#00B7AA"/>
</svg>
