<svg width="70" height="72" viewBox="0 0 70 72" fill="none" xmlns="http://www.w3.org/2000/svg">
<path d="M66.24 32.7091C66.1474 28.8645 65.3702 25.1457 63.9226 21.6345C64.4232 21.2944 64.8101 20.8 65.0099 20.2222C65.2625 19.4916 65.2023 18.6799 64.8445 17.9955C62.6231 13.7423 59.5733 10.0828 55.7804 7.119C55.3227 6.76139 54.6615 6.84225 54.3036 7.30027C53.946 7.75814 54.027 8.41936 54.4848 8.77711C58.0398 11.5549 60.8979 14.9842 62.9797 18.9699C63.0717 19.1458 63.0864 19.3463 63.0213 19.5345C62.9559 19.7238 62.8195 19.8733 62.6371 19.9554L57.6696 22.1953C57.328 22.349 56.9226 22.2131 56.7464 21.8856C52.4622 13.9236 44.1878 8.97736 35.1523 8.97736C26.1167 8.97736 17.8423 13.9236 13.5582 21.8856C13.3818 22.2131 12.9763 22.3492 12.6351 22.1953L7.66725 19.9553C7.485 19.8733 7.3486 19.7238 7.28321 19.5346C7.2181 19.3465 7.23286 19.1457 7.32483 18.9697C12.7587 8.56659 23.4215 2.10403 35.1523 2.10403C40.6337 2.10403 46.0499 3.55613 50.8152 6.30338C51.3185 6.59292 51.9619 6.42066 52.2521 5.91736C52.5422 5.41392 52.3694 4.7707 51.8661 4.48045C46.7817 1.54927 41.002 0 35.1523 0C29.0311 0 23.021 1.68581 17.7717 4.87533C12.5403 8.05373 8.28305 12.5907 5.45986 17.9955C5.10225 18.6802 5.04206 19.4918 5.29477 20.2224C5.49474 20.8004 5.88174 21.2947 6.3825 21.6347C4.95094 25.1072 4.17342 28.7821 4.06711 32.5818C2.13619 33.3025 0.757221 35.1651 0.757221 37.3442V46.0052C0.757221 46.5863 1.22817 47.0572 1.80924 47.0572C2.3903 47.0572 2.86125 46.5863 2.86125 46.0052V37.3442C2.86125 35.7024 4.19691 34.3668 5.83871 34.3668H8.58047C10.2223 34.3668 11.5579 35.7026 11.5579 37.3442V52.6049C11.5579 54.2467 10.2223 55.5823 8.58047 55.5823H5.83856C4.19677 55.5823 2.86111 54.2465 2.86111 52.6049V50.6254C2.86111 50.0444 2.39016 49.5734 1.8091 49.5734C1.22803 49.5734 0.75708 50.0444 0.75708 50.6254V52.6049C0.75708 55.4068 3.03661 57.6865 5.83871 57.6865H8.58047C11.3824 57.6865 13.6621 55.407 13.6621 52.6049V37.3442C13.6621 35.1765 12.2973 33.3226 10.3823 32.5938C10.4835 29.7096 11.0778 26.91 12.1512 24.2495C13.4046 24.6092 14.7787 24.0583 15.4113 22.8825C19.328 15.6033 26.8924 11.0814 35.1525 11.0814C43.4127 11.0814 50.9771 15.6032 54.8938 22.8825C55.3978 23.8192 56.3726 24.3613 57.3818 24.3613C57.6396 24.3613 57.8996 24.325 58.1546 24.2519C59.2143 26.8793 59.8062 29.6428 59.9179 32.4894C57.8469 33.1315 56.3383 35.065 56.3383 37.3442V52.6049C56.3383 54.5508 57.4384 56.244 59.0487 57.0974C57.5998 60.3543 54.5473 62.6721 51.0055 63.1641C50.6584 62.5598 50.1759 62.0318 49.5798 61.6289C49.0985 61.3036 48.4444 61.4303 48.1192 61.9118C47.7939 62.3932 47.9206 63.0471 48.4021 63.3725C49.1013 63.8449 49.5187 64.6296 49.5187 65.4718V67.365C49.5187 68.7606 48.3834 69.896 46.9877 69.896H41.8511C40.4555 69.896 39.3201 68.7607 39.3201 67.365V65.4718C39.3201 64.0762 40.4554 62.9408 41.8511 62.9408H43.9986C44.5796 62.9408 45.0506 62.4698 45.0506 61.8888C45.0506 61.3077 44.5796 60.8368 43.9986 60.8368H41.8511C39.2954 60.8368 37.2161 62.916 37.2161 65.4718V67.365C37.2161 69.9207 39.2954 72 41.8511 72H46.9877C48.7725 72 50.3239 70.9853 51.098 69.5029C54.5056 69.1943 57.6856 67.8672 60.3192 65.6436C62.883 63.4793 64.7036 60.6645 65.6123 57.4743C67.7093 56.8484 69.243 54.9028 69.243 52.6049V37.3442C69.2429 35.2827 68.0082 33.5052 66.24 32.7091ZM10.2193 23.4141C9.07364 26.2377 8.42691 29.2058 8.29078 32.2627H6.1845C6.32161 28.8923 7.02614 25.6312 8.2853 22.5422L10.2193 23.4141ZM62.0136 32.2627C61.8775 29.2057 61.2309 26.2377 60.0851 23.4142L62.0194 22.542C63.2784 25.631 63.9828 28.8925 64.1199 32.2627H62.0136ZM51.6225 67.3251V65.4718C51.6225 65.3801 51.6195 65.2887 51.6141 65.1978C55.8379 64.4974 59.4413 61.6373 61.0901 57.6747C61.1991 57.6817 61.3088 57.6865 61.4196 57.6865H63.3356C61.5484 62.7823 56.973 66.5577 51.6225 67.3251ZM67.1388 52.6049C67.1388 54.2467 65.8032 55.5823 64.1615 55.5823H61.4196C59.7778 55.5823 58.4423 54.2465 58.4423 52.6049V37.3442C58.4423 35.7024 59.778 34.3668 61.4196 34.3668H64.1615C65.8033 34.3668 67.1388 35.7026 67.1388 37.3442V52.6049Z" fill="#00B7AA"/>
<path d="M37.0158 49.0936C36.886 49.0936 36.7543 49.0695 36.6263 49.0186C36.0849 48.8035 35.8207 48.1901 36.0361 47.6489L40.3944 36.6912C40.6096 36.1499 41.2232 35.8854 41.764 36.101C42.3055 36.3161 42.5697 36.9295 42.3542 37.4707L37.996 48.4284C37.8316 48.8417 37.435 49.0936 37.0158 49.0936Z" fill="#00B7AA"/>
<path d="M47.1738 49.0936C47.032 49.0936 46.888 49.0649 46.7498 49.0041C46.2165 48.7697 45.9742 48.1473 46.2087 47.614L50.3755 38.1355H45.9631C45.3805 38.1355 44.9084 37.6634 44.9084 37.0808C44.9084 36.4982 45.3805 36.0261 45.9631 36.0261H51.9913C52.3475 36.0261 52.6798 36.206 52.8744 36.5042C53.0691 36.8025 53.1001 37.1791 52.9568 37.5052L48.1399 48.463C47.9662 48.8582 47.5795 49.0936 47.1738 49.0936Z" fill="#00B7AA"/>
<path d="M31.5279 49.0933C31.5248 49.0933 31.5217 49.0933 31.5186 49.0933C30.9361 49.0882 30.468 48.6119 30.473 48.0296C30.4788 47.3674 30.4846 46.6283 30.4902 45.8592H26.0722C25.6991 45.8592 25.3537 45.662 25.164 45.3407C24.9743 45.0194 24.9686 44.6217 25.1488 44.2949C25.7649 43.1783 28.8699 37.5686 29.4994 36.7966C30.0249 36.1521 30.7331 35.8896 31.3948 36.0943C32.0641 36.3016 32.5397 36.9526 32.6063 37.7526C32.6392 38.1473 32.6299 41.0751 32.6141 43.7497H32.9535C33.536 43.7497 34.0082 44.2218 34.0082 44.8044C34.0082 45.387 33.536 45.8591 32.9535 45.8591H32.6C32.5927 46.8464 32.5861 47.6474 32.5826 48.0476C32.5774 48.627 32.1061 49.0933 31.5279 49.0933ZM27.8636 43.7498H30.5041C30.5147 41.948 30.5216 40.2097 30.5187 39.1013C29.8862 40.1616 28.8829 41.9232 27.8636 43.7498Z" fill="#00B7AA"/>
<path d="M20.6375 49.2028C18.5319 49.2028 18.377 49.1512 18.2354 49.104C17.8839 48.9868 17.6213 48.7212 17.5149 48.3753C17.3314 47.7789 17.5877 47.4433 18.2727 46.5464C18.8299 45.8169 19.8673 44.4586 21.6052 41.9753C22.1215 41.2378 22.4545 40.5773 22.5954 40.0109L22.6328 39.718C22.6014 38.7808 21.8293 38.0281 20.8845 38.0281C20.0503 38.0281 19.3285 38.6207 19.1681 39.4371C19.0557 40.0086 18.5014 40.3803 17.9299 40.2688C17.3584 40.1564 16.986 39.6022 17.0982 39.0306C17.4524 37.2275 19.0447 35.9187 20.8844 35.9187C23.0119 35.9187 24.7429 37.6497 24.7429 39.7772C24.7429 39.8217 24.7401 39.8665 24.7343 39.9106L24.6801 40.3346C24.6756 40.3699 24.6695 40.4048 24.6614 40.4394C24.4664 41.2805 24.0195 42.2042 23.3331 43.1847C22.0382 45.0346 21.1256 46.2708 20.5077 47.0908C21.5453 47.0942 22.8828 47.0815 24.1393 47.0656C24.7223 47.0611 25.1999 47.5246 25.2072 48.1068C25.2145 48.6894 24.7484 49.1674 24.1659 49.1747C22.6059 49.1947 21.4694 49.2028 20.6375 49.2028Z" fill="#00B7AA"/>
</svg>
