<svg width="72" height="72" viewBox="0 0 72 72" fill="none" xmlns="http://www.w3.org/2000/svg">
<path d="M71.0021 41.8325C69.9932 40.4229 68.3125 39.4756 66.6161 39.3603C65.2313 39.2671 63.9765 39.7347 63.0838 40.6797C62.8879 40.8869 62.6766 41.1146 62.453 41.3585C61.4654 40.4537 60.1712 39.8715 58.8665 39.7829C57.4812 39.6901 56.2268 40.1574 55.3342 41.1022C53.3912 43.159 49.9507 47.177 47.2487 50.3757C46.8963 50.1673 46.5192 49.9954 46.1204 49.8665C44.8289 49.3103 27.0253 41.7068 19.1336 41.7068C6.38576 41.7068 0.529252 48.5588 0.286251 48.8503C-0.0865485 49.2978 -0.0260795 49.9614 0.420126 50.3354C0.866473 50.7097 1.53248 50.651 1.90795 50.2058C1.92145 50.1899 3.2896 48.5879 6.08411 47.0094C8.65982 45.5547 13.0147 43.8203 19.1335 43.8203C26.7152 43.8203 45.1455 51.7476 45.3308 51.8276C45.6696 51.9737 46.019 52.0855 46.3284 52.292C46.6205 52.4869 46.8819 52.7275 47.101 53.0019C47.5265 53.535 47.793 54.1945 47.849 54.8748C47.9667 56.3002 47.1667 57.6774 45.8753 58.2861C45.061 58.6701 44.2 58.6816 43.3445 58.4472L31.8137 55.2714C31.2585 55.1184 30.6671 55.4546 30.5142 56.0096C30.3613 56.5647 30.6973 57.1561 31.2523 57.3089L42.7671 60.4803C44.1661 60.9119 45.695 60.7707 46.9913 60.0909C48.308 59.4006 49.2771 58.2386 49.7197 56.8196C49.8643 56.3566 49.9459 55.8843 49.9679 55.4122L53.0606 55.0865C53.3343 55.0577 53.586 54.9232 53.7622 54.7117C53.8384 54.6202 61.4216 45.5165 64.6203 42.1308C65.9498 40.7228 68.3236 41.7208 69.2836 43.0621C70.7599 45.1247 68.9253 47.3763 68.3279 48.0174C65.3922 51.1671 60.0089 57.6566 59.0413 58.8263L37.1313 69.7812L25.8586 65.0348C25.3279 64.8113 24.6981 65.0677 24.4746 65.5987C24.2511 66.1294 24.5076 66.7591 25.0384 66.9826L36.7592 71.9176C37.0411 72.0364 37.3686 72.0256 37.642 71.8889L60.1864 60.6166C60.3183 60.5506 60.4349 60.4578 60.5288 60.3439C60.5907 60.269 66.7528 52.8074 69.8742 49.4581C72.1718 46.9933 72.6043 44.0708 71.0021 41.8325ZM52.413 53.0298L49.6594 53.3198C49.4642 52.7671 49.1827 52.2478 48.8278 51.7816C51.1294 49.0572 54.8695 44.6722 56.8704 42.5541C57.4485 41.9419 58.1967 41.8553 58.7229 41.892C59.5513 41.9484 60.4008 42.3392 61.0397 42.9302C57.8692 46.5094 53.5526 51.6648 52.413 53.0298Z" fill="#00B7AA"/>
<path d="M20.6704 62.8509L16.1618 60.9525C16.032 60.8978 15.8925 60.8696 15.7516 60.8696H1.0977C0.514099 60.8696 0.0408936 61.3427 0.0408936 61.9264C0.0408936 62.5102 0.514099 62.9832 1.0977 62.9832H15.5381L19.85 64.7987C20.4173 65.0376 21.0822 64.7271 21.2679 64.1424C21.4311 63.6291 21.1663 63.0596 20.6704 62.8509Z" fill="#00B7AA"/>
<path d="M56.1824 35.2362L51.6825 35.8791C55.3417 31.9586 57.3885 26.8225 57.3885 21.3467C57.3885 9.5762 47.8123 0 36.0418 0C24.2711 0 14.6951 9.5762 14.6951 21.3467C14.6951 26.0696 16.2062 30.5453 19.0652 34.2896C21.8321 37.9136 25.7557 40.6018 30.1134 41.8591C30.6898 42.0252 31.3019 41.6627 31.4363 41.0793C31.5607 40.54 31.2303 39.9817 30.6993 39.8283C22.5206 37.4686 16.8085 29.8685 16.8085 21.3466C16.8085 10.7413 25.4366 2.11332 36.0418 2.11332C46.6471 2.11332 55.275 10.7413 55.275 21.3466C55.275 26.5892 53.1938 31.4872 49.498 35.092V29.5189C49.498 28.9352 49.0249 28.4621 48.4412 28.4621C47.8574 28.4621 47.3844 28.9352 47.3844 29.5189V37.4094C47.3844 38.0413 47.9646 38.5455 48.5907 38.4557L56.4812 37.3284C57.0513 37.247 57.4595 36.7029 57.378 36.1328C57.2965 35.5633 56.7517 35.1556 56.1824 35.2362Z" fill="#00B7AA"/>
<path d="M36.0418 20.2896H34.9145C33.6326 20.2896 32.5897 19.2466 32.5897 17.9648C32.5897 16.6829 33.6327 15.6398 34.9145 15.6398H39.4234C40.0071 15.6398 40.4802 15.1668 40.4802 14.583C40.4802 13.9993 40.0071 13.5262 39.4234 13.5262H37.0984V12.3285C37.0984 11.7448 36.6254 11.2717 36.0416 11.2717C35.458 11.2717 34.9848 11.7448 34.9848 12.3285V13.5262H34.9144C32.4671 13.5262 30.476 15.5174 30.476 17.9647C30.476 20.412 32.4671 22.4031 34.9144 22.4031H36.0416C37.3236 22.4031 38.3666 23.4461 38.3666 24.7279C38.3666 26.0097 37.3236 27.0528 36.0416 27.0528H31.5328C30.9492 27.0528 30.476 27.5258 30.476 28.1096C30.476 28.6933 30.9492 29.1664 31.5328 29.1664H34.9848V30.3641C34.9848 30.9478 35.458 31.4209 36.0416 31.4209C36.6254 31.4209 37.0984 30.9478 37.0984 30.3641V29.0384C39.0371 28.5629 40.4801 26.8113 40.4801 24.7281C40.4802 22.2808 38.4891 20.2896 36.0418 20.2896Z" fill="#00B7AA"/>
</svg>
