<svg width="72" height="72" viewBox="0 0 72 72" fill="none" xmlns="http://www.w3.org/2000/svg">
<g clip-path="url(#clip0)">
<path d="M47.4566 55.1025C46.9847 55.0229 46.5013 54.9828 46.0196 54.9828H41.4196V52.0483C44.069 50.2801 45.818 47.2649 45.818 43.8476V38.5692C45.818 36.751 45.3187 34.9739 44.3738 33.4309L42.5732 34.5334C43.3148 35.7446 43.707 37.1404 43.707 38.5692V39.6761L43.4296 39.1636C42.5853 37.603 40.9587 36.6334 39.1844 36.6334H32.7448C30.9705 36.6334 29.344 37.603 28.4997 39.1636L28.2228 39.6761V38.5692C28.2228 34.2999 31.6956 30.8271 35.9649 30.8271C38.0243 30.8271 39.9628 31.627 41.4229 33.0788L42.9116 31.5814C41.0532 29.7335 38.5862 28.7156 35.9649 28.7156C30.5316 28.7156 26.1113 33.1359 26.1113 38.5692V43.8476C26.1113 47.2649 27.8608 50.2806 30.5102 52.0483V54.9828H25.9102C21.1702 54.9828 17.314 58.839 17.314 63.5796V72.0001H19.4255V63.5796C19.4255 60.0035 22.3342 57.0944 25.9102 57.0944H30.5915C31.0342 59.6602 33.2744 61.6191 35.9649 61.6191C38.6555 61.6191 40.8956 59.6602 41.3383 57.0944H46.0196C46.3843 57.0944 46.7496 57.1246 47.1061 57.185L47.4566 55.1025ZM39.308 56.1644C39.308 58.0079 37.8084 59.5075 35.9649 59.5075C34.1214 59.5075 32.6218 58.0079 32.6218 56.1644V53.1162C33.666 53.4941 34.7916 53.7007 35.9649 53.7007C37.1382 53.7007 38.2638 53.4941 39.308 53.1162V56.1644ZM35.9649 51.5897C31.7813 51.5897 28.3646 48.2537 28.2294 44.103L30.3575 40.1683C30.8321 39.2905 31.7473 38.745 32.7448 38.745H39.1844C40.1826 38.745 41.0977 39.2905 41.5723 40.1683L43.7004 44.1025C43.5647 48.2537 40.1479 51.5897 35.9649 51.5897Z" fill="#00B7AA"/>
<path d="M49.7438 55.8298L48.8281 57.7321C51.0616 58.8071 52.5042 61.1027 52.5042 63.5796V72.0001H54.6157V63.5796C54.6157 60.2963 52.7036 57.2548 49.7438 55.8298Z" fill="#00B7AA"/>
<path d="M46.17 66.9326H48.2816V72.0001H46.17V66.9326Z" fill="#00B7AA"/>
<path d="M23.6481 66.9326H25.7596V72.0001H23.6481V66.9326Z" fill="#00B7AA"/>
<path d="M18.6992 9.95038L16.2581 5.00488L13.8169 9.95038L8.35889 10.7436L12.3085 14.5937L11.3763 20.0298L16.2581 17.4634L21.1398 20.0298L20.2076 14.5937L24.1572 10.7436L18.6992 9.95038ZM18.3356 16.1703L16.2581 15.0777L14.1805 16.1703L14.5771 13.8566L12.8962 12.218L15.2193 11.8807L16.2581 9.7757L17.2968 11.8807L19.6199 12.218L17.939 13.8566L18.3356 16.1703Z" fill="#00B7AA"/>
<path d="M39.1097 9.95019L36.6686 5.00415L34.228 9.95019L28.7694 10.7434L32.719 14.5936L31.7868 20.0296L36.6686 17.4632L41.5509 20.0296L40.6182 14.593L44.5677 10.7434L39.1097 9.95019ZM38.7466 16.1701L36.6686 15.0775L34.5911 16.1701L34.9877 13.8564L33.3068 12.2178L35.6298 11.8805L36.6686 9.77551L37.7073 11.8805L40.0304 12.2178L38.3495 13.8564L38.7466 16.1701Z" fill="#00B7AA"/>
<path d="M55.6716 5.00415L53.2305 9.95019L47.7725 10.7434L51.722 14.593L50.7899 20.0296L55.6716 17.4632L60.554 20.0296L59.6212 14.593L63.5708 10.7434L58.1128 9.95019L55.6716 5.00415ZM57.7492 16.1701L55.6716 15.0775L53.5936 16.1701L53.9907 13.8564L52.3098 12.2178L54.6329 11.8805L55.6716 9.77551L56.7104 11.8805L59.0335 12.2178L57.3525 13.8564L57.7492 16.1701Z" fill="#00B7AA"/>
<path d="M68.0587 0H55.0942V2.11157H68.0587C69.0287 2.11157 69.8181 2.90094 69.8181 3.87103V22.1699C69.8181 23.1405 69.0287 23.9299 68.0587 23.9299H20.1292V31.3934L9.55481 23.9299H3.87103C2.90094 23.9299 2.11157 23.1405 2.11157 22.1699V12.9743H0V22.1699C0 24.3045 1.73639 26.0409 3.87103 26.0409H8.88519L22.2407 35.4688V26.0409H68.0587C70.1933 26.0409 71.9297 24.3045 71.9297 22.1699V3.87103C71.9297 1.73639 70.1933 0 68.0587 0Z" fill="#00B7AA"/>
<path d="M2.11157 3.87103C2.11157 2.90094 2.90094 2.11157 3.87103 2.11157H52.9832V0H3.87103C1.73639 0 0 1.73639 0 3.87103V10.8627H2.11157V3.87103Z" fill="#00B7AA"/>
<path d="M21.5365 63.5795H23.6481C23.6481 62.332 24.6627 61.3168 25.9102 61.3168V59.2058C23.4987 59.2058 21.5365 61.168 21.5365 63.5795Z" fill="#00B7AA"/>
<path d="M67.566 9.50153V4.22314H62.2876V6.33417H65.4544V9.50153H67.566Z" fill="#00B7AA"/>
<path d="M4.22314 16.3987V21.6776H9.50153V19.566H6.33417V16.3987H4.22314Z" fill="#00B7AA"/>
<path d="M30.6865 67.2847H32.7975V69.3957H30.6865V67.2847Z" fill="#00B7AA"/>
<path d="M34.9091 67.2847H37.0206V69.3957H34.9091V67.2847Z" fill="#00B7AA"/>
<path d="M39.1322 67.2847H41.2432V69.3957H39.1322V67.2847Z" fill="#00B7AA"/>
</g>
<defs>
<clipPath id="clip0">
<rect width="72" height="72" fill="white"/>
</clipPath>
</defs>
</svg>
