<svg width="108" height="108" viewBox="0 0 108 108" fill="none" xmlns="http://www.w3.org/2000/svg">
<g clip-path="url(#clip0_3581_3490)">
<path d="M83.3575 36.3581V78.8658C83.3575 84.6159 78.6789 89.2944 72.9288 89.2944H53.7147L41.6787 97.6897L26.9238 107.983V89.2944H10.4286C4.67855 89.2944 0 84.6159 0 78.8658V36.3581C0 30.6059 4.67855 25.9294 10.4286 25.9294H72.9288C78.6789 25.9294 83.3575 30.6059 83.3575 36.3581Z" fill="#F5D34F"/>
<path d="M83.3584 36.3581V78.8658C83.3584 84.6159 78.6799 89.2945 72.9298 89.2945H53.7157L41.6797 97.6897V25.9294H72.9298C78.6799 25.9294 83.3584 30.6059 83.3584 36.3581Z" fill="#FFA320"/>
<path d="M105.632 13.8196L63.9795 55.4724L52.0547 55.9631L52.5453 44.0383L94.1981 2.38567C97.3556 -0.77182 102.476 -0.773296 105.634 2.3842C107.212 3.9622 108.002 6.03254 108.001 8.10118C108.001 10.1715 107.21 12.2416 105.632 13.8196Z" fill="#619CED"/>
<path d="M14.5156 42.1504H41.6778V48.4785H14.5156V42.1504Z" fill="#FFA320"/>
<path d="M14.5156 54.4332H41.6778V60.7612H14.5156V54.4332Z" fill="#FFA320"/>
<path d="M14.5156 66.7159H68.6944V73.044H14.5156V66.7159Z" fill="#FFA320"/>
<path d="M105.632 13.8196L63.9795 55.4724L52.0547 55.9631L105.634 2.3842C107.212 3.96221 108.002 6.03254 108.001 8.10118C108.001 10.1715 107.21 12.2416 105.632 13.8196Z" fill="#4773CC"/>
<path d="M66.7493 52.7026L63.9795 55.4724L52.0547 55.9633L52.5453 44.0383L55.3151 41.2685L66.7493 52.7026Z" fill="#514C7E"/>
<path d="M66.7493 52.7026L63.9795 55.4724L52.0547 55.9633L61.0321 46.9857L66.7493 52.7026Z" fill="#2D2F5C"/>
<path d="M41.6797 66.7159H68.6963V73.044H41.6797V66.7159Z" fill="#F78002"/>
</g>
<defs>
<clipPath id="clip0_3581_3490">
<rect width="108" height="108" fill="white"/>
</clipPath>
</defs>
</svg>
