<svg width="1440" height="404" viewBox="0 0 1440 404" fill="none" xmlns="http://www.w3.org/2000/svg">
<path d="M1440 92.2313V404H0V226.33V111.48H46.5778V169.982H105.904L129.378 197.301H153.189V55.7613H207.979V92.2313H254.483V162.631H316.946V74.2973H366.243V111.459H391.877L414.068 85.6407H439.316V0H509.901V127.101H582.054V157.731H610.022V111.48H716.633V162.631H757.413V92.2313H819.612V197.301H823.245V55.7613H878.056V92.2313H924.538V162.631H986.986V74.2973H1036.28V111.459H1061.95L1084.14 85.6407H1109.37V0H1179.94V127.101H1252.13V157.731H1280.1V111.48H1336.23V162.631H1427.45V92.2313H1440Z" fill="url(#paint0_linear_3618_4058)"/>
<path d="M0 400.774V176.847H54.2352V229.45H116.55L135.567 248.467H342.347L374.519 216.301H439.464V162.277H496.255V235.117H600.844L641.148 194.813H770.472V262.731H827.934L855.902 234.758H926.667L946.697 254.794H1034.31V179.514H1096.62V204.361H1145.99V151.684H1191.31V231.299H1318.37L1330.26 243.181H1440V400.774H0Z" fill="url(#paint1_linear_3618_4058)"/>
<defs>
<linearGradient id="paint0_linear_3618_4058" x1="719.997" y1="55.1434" x2="719.997" y2="255.518" gradientUnits="userSpaceOnUse">
<stop stop-color="#E8EDF1"/>
<stop offset="1" stop-color="white"/>
</linearGradient>
<linearGradient id="paint1_linear_3618_4058" x1="719.997" y1="141.043" x2="719.997" y2="308.627" gradientUnits="userSpaceOnUse">
<stop stop-color="#E8EDF1"/>
<stop offset="1" stop-color="white"/>
</linearGradient>
</defs>
</svg>
