<svg width="96" height="96" viewBox="0 0 96 96" fill="none" xmlns="http://www.w3.org/2000/svg">
<g clip-path="url(#clip0_1743:239)">
<path d="M76.5788 40.0419C76.4699 40.0982 76.3473 40.1278 76.2239 40.1278C76.1005 40.1278 75.9777 40.098 75.8688 40.0419C66.5958 35.2532 60.9634 27.7682 59.6888 18.6949C54.5511 16.1863 48.7786 14.7767 42.6762 14.7767C21.2337 14.7767 3.85132 32.1592 3.85132 53.6015C3.85132 75.0439 21.2339 92.4264 42.6762 92.4264C64.1185 92.4264 81.5011 75.0439 81.5011 53.6015C81.5011 48.4007 80.4758 43.44 78.6207 38.907C77.9609 39.3002 77.281 39.6793 76.5788 40.0419Z" fill="#D8ECFE"/>
<path d="M10.8191 64.3209C11.363 63.777 12.2448 63.777 12.7887 64.3209L13.3546 64.8868C12.2712 61.3153 11.6862 57.5271 11.6862 53.6016C11.6862 33.4815 26.9911 16.9365 46.5939 14.9724C45.3056 14.8434 43.9989 14.7767 42.6764 14.7767C21.2339 14.7767 3.85156 32.1592 3.85156 53.6016C3.85156 58.8328 4.88863 63.8211 6.76437 68.3756L10.8191 64.3209Z" fill="#C4E2FF"/>
<path d="M60.2229 67.5574C58.0738 69.7063 55.2163 70.89 52.1775 70.89C52.0374 70.89 51.897 70.8874 51.7565 70.8821L48.9995 70.7803C48.8542 70.7751 48.7095 70.7724 48.5647 70.7724C46.4308 70.7724 44.3842 71.3387 42.5947 72.3979L53.6737 83.4769L71.0966 66.054L66.4115 61.3689L60.2229 67.5574Z" fill="#FFE5C2"/>
<path d="M51.7496 71.0696L48.9924 70.9676C46.7795 70.8859 44.612 71.4412 42.734 72.5374L53.5408 83.3441L59.5548 77.3301L53.2486 71.0239C52.7531 71.0702 52.2528 71.0884 51.7496 71.0696Z" fill="#FED2A4"/>
<path d="M58.5331 95.592L50.8979 87.9568C50.354 87.4129 50.354 86.531 50.8979 85.9871L72.5643 64.3207C73.1083 63.7768 73.9901 63.7768 74.534 64.3207L82.1692 71.9559C82.7131 72.4999 82.7131 73.3817 82.1692 73.9256L60.5028 95.592C59.9589 96.1359 59.0771 96.1359 58.5331 95.592Z" fill="#FE646F"/>
<path d="M59.0092 87.957C58.4653 87.413 58.4653 86.5312 59.0092 85.9873L77.6049 67.3916L74.5342 64.3207C73.9903 63.7768 73.1084 63.7768 72.5645 64.3207L50.8979 85.9873C50.354 86.5312 50.354 87.413 50.8979 87.957L58.5331 95.5922C59.0771 96.1361 59.9589 96.1361 60.5028 95.5922L63.5735 92.5213L59.0092 87.957Z" fill="#FD4755"/>
<path d="M73.5554 48.7918C72.2262 47.3708 70.1573 47.0929 68.5388 47.9586C68.3768 48.0452 68.197 47.8719 68.2838 47.7101C69.131 46.1308 68.8881 44.1212 67.5556 42.7888C66.2234 41.4566 64.2143 41.2136 62.6352 42.06C62.4755 42.1457 62.2983 41.9685 62.384 41.8088C63.2303 40.2296 62.9873 38.2208 61.6551 36.8884C60.3226 35.5558 58.313 35.3132 56.7337 36.1601C56.5718 36.2469 56.3986 36.0671 56.4852 35.9051C57.3522 34.2842 57.0723 32.2112 55.6452 30.8822C53.9898 29.3404 51.3835 29.4589 49.7838 31.0586L49.418 31.4244L49.1031 31.4741L44.0384 36.5387L44.0729 36.7693L47.1383 39.8348C47.9346 40.6311 48.4103 41.7118 48.38 42.8376C48.3505 43.9268 47.8908 44.9321 47.0841 45.6709C46.3713 46.3234 45.4349 46.6826 44.4473 46.6826C44.4471 46.6826 44.4471 46.6826 44.447 46.6826C43.3471 46.6826 42.2682 46.2345 41.4871 45.4536L41.222 45.7187L42.341 46.8377C43.0866 47.5834 43.5513 48.5803 43.5734 49.6346C43.601 50.9526 42.9972 52.1749 41.9061 52.9663C41.3948 53.3372 40.7945 53.5783 40.169 53.6659C38.893 53.8444 37.66 53.4272 36.7722 52.5394L34.846 50.6132L34.5809 50.8783C35.5197 51.8171 35.9311 53.1377 35.6716 54.4898C35.5816 54.9587 35.4027 55.4098 35.1447 55.8116C34.3124 57.1082 32.893 57.7956 31.4032 57.6645C30.4482 57.5805 29.5621 57.1301 28.8843 56.4521L26.6373 54.2051L26.3714 54.471C27.197 55.3059 27.6095 56.4375 27.5076 57.6248C27.4443 58.3637 27.1733 59.0771 26.7241 59.6672C25.9497 60.6844 24.784 61.2561 23.5385 61.2561C22.4819 61.2561 21.4883 60.8466 20.7378 60.1044L14.5223 66.3199L31.4678 83.2654L40.3859 74.3473C42.6599 72.0733 45.778 70.8488 48.992 70.9674L51.7491 71.0694C54.9629 71.1883 58.081 69.9638 60.355 67.6898L73.3782 54.6666C74.9821 53.0633 75.1043 50.4478 73.5554 48.7918Z" fill="#D88A55"/>
<path d="M47.3476 39.7783C48.0575 40.4882 48.4546 41.3902 48.5459 42.3169L56.9748 33.888C56.9622 32.8371 56.5571 31.7899 55.7551 30.9879C54.1257 29.3586 51.4841 29.3586 49.8549 30.9879L44.2061 36.6367L47.3476 39.7783Z" fill="#C57A44"/>
<path d="M27.7458 63.117L33.2795 57.5835C31.7825 58.1664 30.0192 57.8522 28.8132 56.646L26.5051 54.3379L26.5041 54.3388C28.135 55.9875 28.1095 58.6519 26.4421 60.2679C24.8114 61.8484 22.2181 61.8324 20.6056 60.2375L14.6553 66.1875L31.6008 83.133L36.9498 77.7842L27.7458 68.5804C26.2372 67.0717 26.2372 64.6256 27.7458 63.117Z" fill="#C57A44"/>
<path d="M47.3475 39.7783L37.6785 30.1093C36.0492 28.4799 33.4075 28.4799 31.7783 30.1093C30.1489 31.7387 30.1489 34.3804 31.7783 36.0095C30.1489 34.3802 27.5074 34.3802 25.878 36.0095C24.2487 37.6389 24.2487 40.2806 25.878 41.9098C24.2487 40.2804 21.607 40.2804 19.9776 41.9098C18.3482 43.5392 18.3482 46.1809 19.9776 47.81L21.7834 49.6159C20.154 47.9865 17.5125 47.9865 15.8832 49.6159C14.2538 51.2452 14.2538 53.8869 15.8832 55.5161L20.5887 60.2216C22.2 61.833 24.8059 61.8534 26.4424 60.2675C28.1155 58.6462 28.1365 55.9687 26.4891 54.3214L28.8135 56.6458C30.4249 58.2572 33.0308 58.2776 34.6673 56.6917C36.3404 55.0704 36.3614 52.3929 34.714 50.7455L36.6404 52.6717C38.2517 54.2831 40.8576 54.3035 42.4941 52.7177C44.1672 51.0964 44.1882 48.4189 42.5408 46.7715L41.3554 45.5861C42.9492 47.1797 45.5494 47.331 47.2118 45.809C48.9756 44.1937 49.0212 41.4519 47.3475 39.7783Z" fill="#FFE5C2"/>
<path d="M45.3837 28.311H37.9339C36.6732 28.311 35.6511 29.3331 35.6511 30.5938V31.5414C35.6511 34.3657 37.9407 36.6553 40.765 36.6553L44.206 36.6369L49.4183 31.4244C48.9501 29.6357 47.3243 28.311 45.3837 28.311Z" fill="#FFBD86"/>
<path d="M44.964 43.8859L35.3874 34.3093C33.9114 32.8333 33.7772 30.5289 34.9755 28.8966C33.8269 28.8287 32.6556 29.2316 31.7781 30.1093C30.1487 31.7387 30.1487 34.3802 31.7781 36.0096L41.3546 45.5861C42.9484 47.1799 45.5486 47.3312 47.211 45.8092C47.4298 45.6088 47.6196 45.3898 47.7844 45.1584C46.7552 45.093 45.7402 44.6619 44.964 43.8859Z" fill="#FED2A4"/>
<path d="M40.6845 50.6411L29.9225 39.8792C28.5487 38.5054 28.3382 36.414 29.2809 34.8144C28.0676 34.6826 26.8078 35.0796 25.8778 36.0096C24.2484 37.6389 24.2484 40.2806 25.8778 41.9098L36.6397 52.6717C38.2511 54.2831 40.8572 54.3036 42.4935 52.7177C42.7693 52.4505 42.9956 52.1526 43.1814 51.8374C42.2689 51.7382 41.3831 51.3398 40.6845 50.6411Z" fill="#FED2A4"/>
<path d="M32.7648 54.6975L23.9291 45.8618C22.53 44.4626 22.3359 42.3188 23.3396 40.7087C22.139 40.5902 20.8968 40.9901 19.9772 41.9098C18.3478 43.5392 18.3478 46.1809 19.9772 47.8103L28.8129 56.646C30.4243 58.2574 33.0302 58.2778 34.6667 56.692C34.917 56.4495 35.1255 56.1812 35.3019 55.8985C34.3753 55.8068 33.4738 55.4065 32.7648 54.6975Z" fill="#FED2A4"/>
<path d="M24.5674 58.2825L19.8619 53.577C18.4615 52.1765 18.2684 50.0297 19.2752 48.4192C18.0653 48.291 16.8102 48.6887 15.8828 49.616C14.2534 51.2454 14.2534 53.8871 15.8828 55.5163L20.5883 60.2218C22.1997 61.8332 24.8055 61.8534 26.442 60.2677C26.6905 60.027 26.898 59.7609 27.0735 59.4802C26.1578 59.3827 25.2683 58.9835 24.5674 58.2825Z" fill="#FED2A4"/>
<path d="M34.4551 87.957L26.8199 95.5922C26.276 96.1361 25.3941 96.1361 24.8502 95.5922L3.18383 73.9256C2.63989 73.3817 2.63989 72.4999 3.18383 71.9559L10.819 64.3207C11.363 63.7768 12.2448 63.7768 12.7887 64.3207L34.4551 85.9873C34.999 86.5312 34.999 87.413 34.4551 87.957Z" fill="#97D729"/>
<path d="M11.1284 73.9256C10.5845 73.3817 10.5845 72.4999 11.1284 71.9559L15.7761 67.3082L12.7887 64.3207C12.2448 63.7768 11.363 63.7768 10.819 64.3207L3.18383 71.9559C2.63989 72.4999 2.63989 73.3817 3.18383 73.9256L24.8502 95.592C25.3941 96.1359 26.276 96.1359 26.8199 95.592L29.8073 92.6045L11.1284 73.9256Z" fill="#8BC727"/>
<path d="M76.2239 0C71.1824 0 66.4263 5.03325 62.2278 3.66412C61.7367 3.504 61.2059 3.77813 61.0311 4.26412C59.8628 7.51312 59.2236 11.0143 59.2236 14.6657C59.2236 26.5314 65.9429 35.127 75.7831 40.2086C76.0589 40.3511 76.3893 40.3511 76.6651 40.2086C86.5053 35.127 93.2245 26.5314 93.2245 14.6657C93.2245 11.0143 92.5851 7.51312 91.417 4.26412C91.2423 3.77813 90.7115 3.504 90.2204 3.66412C86.0215 5.03325 81.2652 0 76.2239 0V0Z" fill="#FED402"/>
<path d="M73.7037 29.3034C68.6118 28.1524 64.7969 23.5948 64.7969 18.1599C64.7969 15.3399 65.8257 12.7573 67.525 10.7621C67.6296 7.81293 68.1511 4.97043 69.0297 2.28955C66.6421 3.40086 64.3626 4.3603 62.2278 3.66411C61.7367 3.50399 61.2059 3.77811 61.0311 4.26411C59.8628 7.51311 59.2236 11.0143 59.2236 14.6657C59.2236 26.5314 65.9429 35.127 75.7831 40.2086C76.0589 40.3511 76.3893 40.3511 76.6651 40.2086C78.7426 39.1357 80.6789 37.9044 82.4444 36.5205C79.0491 34.5602 76.0816 32.1501 73.7037 29.3034Z" fill="#FAC600"/>
<path d="M76.2239 28.1805C81.7582 28.1805 86.2446 23.6941 86.2446 18.1598C86.2446 12.6254 81.7582 8.13901 76.2239 8.13901C70.6896 8.13901 66.2031 12.6254 66.2031 18.1598C66.2031 23.6941 70.6896 28.1805 76.2239 28.1805Z" fill="#97D729"/>
<path d="M73.304 18.1598C73.304 13.8759 75.9929 10.2219 79.7744 8.78851C78.6706 8.37001 77.4746 8.13901 76.2241 8.13901C70.6899 8.13901 66.2034 12.6255 66.2034 18.1598C66.2034 23.694 70.6899 28.1805 76.2241 28.1805C77.4746 28.1805 78.6706 27.9495 79.7744 27.531C75.9929 26.0976 73.304 22.4436 73.304 18.1598Z" fill="#8BC727"/>
<path d="M76.2237 29.5868C69.9229 29.5868 64.7969 24.4607 64.7969 18.1598C64.7969 11.8588 69.9229 6.73276 76.2237 6.73276C82.5244 6.73276 87.6507 11.8588 87.6507 18.1598C87.6507 24.4607 82.5246 29.5868 76.2237 29.5868ZM76.2237 9.54544C71.4737 9.54544 67.6094 13.4098 67.6094 18.1599C67.6094 22.9101 71.4737 26.7744 76.2237 26.7744C80.9738 26.7744 84.8382 22.9101 84.8382 18.1599C84.8382 13.4098 80.9738 9.54544 76.2237 9.54544Z" fill="#E8B800"/>
<path d="M75.5462 22.566C75.1733 22.566 74.8157 22.4179 74.5517 22.1541L70.4087 18.0111C69.8595 17.4619 69.8595 16.5714 70.4087 16.0224C70.9583 15.4733 71.8485 15.4733 72.3975 16.0224L75.546 19.1711L80.0498 14.6674C80.5992 14.1182 81.4894 14.1182 82.0386 14.6674C82.5878 15.2166 82.5878 16.107 82.0386 16.656L76.5405 22.1541C76.2769 22.4179 75.9192 22.566 75.5462 22.566Z" fill="white"/>
</g>
<defs>
<clipPath id="clip0_1743:239">
<rect width="96" height="96" fill="white"/>
</clipPath>
</defs>
</svg>
