<svg width="108" height="108" viewBox="0 0 108 108" fill="none" xmlns="http://www.w3.org/2000/svg">
<g clip-path="url(#clip0_3581_3504)">
<path d="M95.2823 0H30.2649C23.2414 0 17.5469 5.69366 17.5469 12.718V50.0227C17.5469 57.0462 23.2414 62.7407 30.2649 62.7407H68.3754V76.1484C68.3754 78.2644 70.933 79.3232 72.4294 77.8277L87.5163 62.7399H95.2823C102.307 62.7399 108 57.0462 108 50.0219V12.718C108 5.69366 102.307 0 95.2823 0V0Z" fill="#FF8354"/>
<path d="M36.971 20.7163H37.1761C38.2152 20.7163 39.0573 21.5584 39.0573 22.5966V37.9975H46.0817C47.1199 37.9975 47.962 38.8396 47.962 39.8779C47.962 40.9169 47.1199 41.759 46.0817 41.759H37.0056C35.9476 41.759 35.0898 40.9012 35.0898 39.8432V22.5966C35.0898 21.5584 35.9319 20.7163 36.971 20.7163Z" fill="#FFF7F2"/>
<path d="M52.5589 20.7164H52.7649C53.8031 20.7164 54.6452 21.5585 54.6452 22.5967V39.8779C54.6452 40.9169 53.8031 41.759 52.7649 41.759H52.5589C51.5198 41.759 50.6777 40.9169 50.6777 39.8779V22.5967C50.6777 21.5585 51.5198 20.7164 52.5589 20.7164Z" fill="#FFF7F2"/>
<path d="M58.9135 20.7164H59.2027C60.0061 20.7164 60.7205 21.2264 60.9817 21.9861L64.8947 33.3833L65.6594 36.0868H65.8942L66.7174 33.3833L70.7977 21.9639C71.0647 21.2149 71.7741 20.7155 72.5684 20.7155H72.8469C74.1521 20.7155 75.0609 22.0141 74.6135 23.241L68.5746 39.8087C68.147 40.9796 67.0338 41.7582 65.7879 41.7582C64.5306 41.7582 63.4099 40.9664 62.9914 39.7807L57.1403 23.2229C56.7077 22.0001 57.6158 20.7164 58.9135 20.7164Z" fill="#FFF7F2"/>
<path d="M81.0827 24.4778V29.3566H87.6366C88.6748 29.3566 89.5169 30.1987 89.5169 31.2377C89.5169 32.2767 88.6748 33.1188 87.6366 33.1188H81.0827V37.9968H88.5767C89.6158 37.9968 90.4579 38.8389 90.4579 39.8779C90.4579 40.9161 89.6158 41.7582 88.5767 41.7582H79.0302C77.973 41.7582 77.1152 40.9005 77.1152 39.8433V22.6313C77.1152 21.5741 77.973 20.7164 79.0302 20.7164H88.5767C89.6158 20.7164 90.4579 21.5585 90.4579 22.5967C90.4579 23.6357 89.6158 24.4778 88.5767 24.4778H81.0827Z" fill="#FFF7F2"/>
<path d="M95.2823 0H30.2649C23.2414 0 17.5469 5.69366 17.5469 12.718V15.6712C17.5469 8.64679 23.2414 2.95312 30.2649 2.95312H95.2823C102.307 2.95312 108 8.64679 108 15.6712V12.718C108 5.69366 102.307 0 95.2823 0Z" fill="#FFAC8C"/>
<path d="M47.2236 87.4402L38.3964 84.5398H14.6849L5.83456 87.4427C2.35327 88.5839 0 91.8328 0 95.4962V108H53.0541V95.4929C53.0541 91.8311 50.7025 88.583 47.2236 87.4402Z" fill="#5FD4E3"/>
<path d="M18.041 80.7512H35.0149V87.9329H18.041V80.7512Z" fill="#5FD4E3"/>
<path d="M29.465 95.1139H23.5884L22.2832 87.9329H30.7701L29.465 95.1139Z" fill="#6770E6"/>
<path d="M12.1641 85.3209L20.6518 94.4613L26.5276 87.9329L18.0406 80.7512L12.1641 85.3209Z" fill="#69EBFC"/>
<path d="M31.04 108L29.4646 95.1139H23.588L22.0117 108H31.04Z" fill="#5861C7"/>
<path d="M36.1637 46.0247C35.7542 44.4411 34.0065 42.1974 27.3867 42.1974C17.1579 42.1974 15.7019 43.7119 12.9795 41.0957C10.6823 38.8891 9.33425 49.511 12.3961 52.8843C11.1033 57.6626 12.1374 62.4474 12.1374 62.4474H40.9156C40.9156 62.4474 43.3306 51.2693 36.1637 46.0247Z" fill="#333399"/>
<path d="M12.9798 43.7217C15.7014 46.3379 17.1582 44.8226 27.387 44.8226C34.0068 44.8226 35.7544 47.0663 36.164 48.6499C39.9666 51.4325 41.0715 55.8861 41.271 59.4539C41.4704 55.765 40.9842 49.5522 36.164 46.0248C35.7544 44.4419 34.0068 42.1974 27.387 42.1974C17.1582 42.1974 15.7022 43.7119 12.9798 41.0966C11.467 39.6431 10.3653 43.7547 10.6644 47.695C10.8836 44.8086 11.8081 42.5954 12.9798 43.7217Z" fill="#5861C7"/>
<path d="M33.0491 73.5719H20.0039V82.4131L26.5265 87.9329L33.0548 82.409L33.0491 73.5719Z" fill="#FFE4D1"/>
<path d="M15.0448 62.9508C15.0448 62.9508 13.8039 60.6775 11.3229 60.6775C8.84193 60.6775 7.08357 71.5869 15.0448 69.7684V62.9508Z" fill="#FFE4D1"/>
<path d="M38.0098 62.9508C38.0098 62.9508 39.2498 60.6775 41.7317 60.6775C44.2126 60.6775 45.9702 71.5869 38.0098 69.7684V62.9508Z" fill="#FFE4D1"/>
<path d="M26.528 48.3319C7.51804 48.3319 11.1526 79.5094 26.528 79.5094C41.9033 79.5094 45.5379 48.3319 26.528 48.3319Z" fill="#FFEFE4"/>
<path d="M26.3911 46.6073C26.3911 46.6073 13.5215 44.7921 13.5215 61.3045C13.5215 61.3045 15.1422 54.4796 18.8592 52.6182C20.5912 51.7514 21.2248 53.9473 26.3911 53.9473C31.5575 53.9473 32.1911 51.7514 33.9231 52.6182C37.6409 54.4796 39.2608 61.3045 39.2608 61.3045C39.2608 44.7921 26.3911 46.6073 26.3911 46.6073Z" fill="#333399"/>
<path d="M26.5275 46.6353C26.5275 46.6353 13.5977 44.811 13.5977 61.4018C13.5977 61.4018 15.2258 54.5438 18.9609 52.6742C20.7003 51.8033 21.3372 54.0099 26.5283 54.0099C31.7185 54.0099 32.3554 51.8033 34.0948 52.6742C37.8307 54.5438 39.4581 61.4018 39.4581 61.4018C39.4573 44.811 26.5275 46.6353 26.5275 46.6353Z" fill="#333399"/>
<path d="M40.8909 85.3209L32.4031 94.4613L26.5273 87.9329L35.0143 80.7512L40.8909 85.3209Z" fill="#69EBFC"/>
<path d="M0 105.047H53.0541V108H0V105.047Z" fill="#58C3D1"/>
<path d="M22.3726 105.047L22.0117 108H31.04L30.6791 105.047H22.3726Z" fill="#5058B5"/>
<path d="M44.1769 72.6614H40.0941C39.7076 72.6614 39.3945 72.3483 39.3945 71.961V59.9598C39.3945 59.5725 39.7076 59.2594 40.0941 59.2594H44.1769C44.5633 59.2594 44.8764 59.5725 44.8764 59.9598V71.961C44.8773 72.3474 44.5633 72.6614 44.1769 72.6614Z" fill="#D476E2"/>
<path d="M44.7559 69.4446V62.4754C45.9399 62.4754 46.9007 63.4353 46.9007 64.6202V67.3006C46.9007 68.4846 45.9399 69.4446 44.7559 69.4446Z" fill="#B665C2"/>
<path d="M8.29828 69.4446C7.11423 69.4446 6.1543 68.4846 6.1543 67.3006V64.6202C6.1543 63.4353 7.11423 62.4754 8.29828 62.4754V69.4446Z" fill="#B665C2"/>
<path d="M13.0812 72.6614H8.99921C8.61194 72.6614 8.29883 72.3483 8.29883 71.961V59.9598C8.29883 59.5725 8.61194 59.2594 8.99921 59.2594H13.0812C13.4684 59.2594 13.7816 59.5725 13.7816 59.9598V71.961C13.7816 72.3474 13.4684 72.6614 13.0812 72.6614Z" fill="#D476E2"/>
<path d="M43.042 59.2586H41.1064C41.1064 51.8107 35.0469 45.7512 27.599 45.7512H25.5152C18.0673 45.7512 12.0078 51.8107 12.0078 59.2586H10.0723C10.0723 50.7437 17.0002 43.8157 25.5152 43.8157H27.599C36.114 43.8157 43.042 50.7437 43.042 59.2586Z" fill="#B665C2"/>
<path d="M41.1065 72.6614C41.1065 76.5621 37.9326 79.736 34.0327 79.736H33.0349C32.7341 79.3183 32.2447 79.0447 31.6893 79.0447H29.2075C28.2912 79.0447 27.5488 79.7879 27.5488 80.7042C27.5488 81.6205 28.2912 82.3629 29.2075 82.3629H31.6893C32.2438 82.3629 32.7341 82.0893 33.0349 81.6715H34.0327C38.9996 81.6715 43.0412 77.6299 43.0412 72.6622H41.1065V72.6614Z" fill="#B665C2"/>
</g>
<defs>
<clipPath id="clip0_3581_3504">
<rect width="108" height="108" fill="white"/>
</clipPath>
</defs>
</svg>
