<svg width="108" height="108" viewBox="0 0 108 108" fill="none" xmlns="http://www.w3.org/2000/svg">
<g clip-path="url(#clip0_3581_3535)">
<path d="M108.016 25.1658C108.016 39.4132 96.3211 50.3688 82.8013 50.3449C80.9578 50.3407 79.0821 50.1339 77.1956 49.7046C76.6689 49.5843 76.1174 49.7483 75.7442 50.1397C71.3389 54.7655 65.8983 57.0372 62.127 58.1281C60.7177 58.5352 59.5941 56.9103 60.4799 55.7427C62.8411 52.6322 64.7944 49.0685 66.3523 45.6944C66.6363 45.0788 66.477 44.3554 65.9701 43.9055C48.9316 28.765 59.5247 0 82.8013 0C96.7282 0 108.016 11.2654 108.016 25.1658Z" fill="#FFE477"/>
<path d="M108.015 25.1658C108.015 39.4132 96.3206 50.3688 82.8008 50.3449V0C96.7276 0 108.015 11.2654 108.015 25.1658Z" fill="#FFD422"/>
<path d="M85.9636 25.4831V28.2351C85.9636 30.0042 84.5593 31.447 82.8008 31.5121C82.7612 31.5146 82.7191 31.5146 82.6778 31.5146C80.864 31.5146 79.392 30.0454 79.392 28.2351V25.1238C79.392 22.787 80.7327 20.6949 82.8008 19.6848C83.0568 19.5579 83.3242 19.4491 83.6025 19.3593C84.8945 18.9374 85.7317 17.6907 85.6375 16.3271C85.5385 14.8925 84.3339 13.6903 82.8966 13.5915C82.8644 13.5898 82.8314 13.5873 82.8008 13.5849C81.0935 13.5206 79.7115 14.8752 79.7115 16.5429C79.7115 18.3557 78.2419 19.8224 76.4265 19.8224C74.6126 19.8224 73.1406 18.3557 73.1406 16.5429C73.1406 11.3082 77.4213 6.96588 82.8008 7.0285C82.9824 7.0285 83.1641 7.03509 83.3482 7.04828C88.0639 7.3721 91.8674 11.1673 92.1935 15.8763C92.4866 20.1264 89.9397 24.0287 85.9636 25.4831Z" fill="#FF6379"/>
<path d="M86.5905 37.0937C86.5905 39.2105 84.9055 40.9326 82.8011 40.996C82.759 40.9985 82.7194 40.9985 82.6781 40.9985C80.5183 40.9985 78.7656 39.2517 78.7656 37.0937C78.7656 34.9382 80.5183 33.1889 82.6781 33.1889C82.7194 33.1889 82.759 33.1889 82.8011 33.1914C84.9055 33.2573 86.5905 34.9794 86.5905 37.0937Z" fill="#FF6379"/>
<path d="M86.5902 37.0937C86.5902 39.2105 84.9052 40.9326 82.8008 40.996V33.1914C84.9052 33.2573 86.5902 34.9794 86.5902 37.0937Z" fill="#FF415B"/>
<path d="M85.9636 25.4831V28.2351C85.9636 30.0042 84.5593 31.447 82.8008 31.5121V19.6848C83.0567 19.5579 83.3242 19.4491 83.6024 19.3593C84.8945 18.9374 85.7316 17.6907 85.6375 16.3271C85.5384 14.8925 84.3339 13.6903 82.8965 13.5915C82.8644 13.5898 82.8313 13.5873 82.8008 13.5849V7.0285C82.9824 7.0285 83.164 7.0351 83.3481 7.04828C88.0639 7.3721 91.8674 11.1673 92.1935 15.8763C92.4866 20.1264 89.9396 24.0288 85.9636 25.4831Z" fill="#FF415B"/>
<path d="M86.5467 85.0573C87.8297 86.3377 87.8297 88.4142 86.5459 89.6946L76.9195 99.303C59.2709 116.917 38.2705 105.115 20.6326 87.5119C2.9849 69.8986 -8.82265 48.9433 8.81932 31.3358L11.713 28.4477L18.4457 21.7257C19.7295 20.4445 21.8099 20.4445 23.0929 21.7249L37.6265 36.2302C38.9095 37.5106 38.9095 39.587 37.6265 40.8675L30.8914 47.5895L23.556 54.9138C22.8328 55.6356 22.8328 56.8048 23.556 57.5266L50.6791 84.5967C51.4014 85.3177 52.5738 85.3177 53.297 84.5967L67.3683 70.552C68.6521 69.2716 70.7326 69.2716 72.0155 70.5529L86.5467 85.0573Z" fill="#FF6379"/>
<path d="M86.5469 85.0573C87.8298 86.3377 87.8298 88.4142 86.546 89.6946L76.9197 99.303C59.2711 116.917 38.2707 105.115 20.6328 87.5119L37.1165 71.0604L50.6792 84.5967C51.4016 85.3177 52.574 85.3177 53.2963 84.5967L67.3685 70.552C68.6514 69.2716 70.7319 69.2716 72.0157 70.5529L86.5469 85.0573Z" fill="#FF415B"/>
<path d="M86.5466 89.6946L79.814 96.4149L60.6348 77.274L67.3691 70.5528C68.6529 69.2716 70.7333 69.2716 72.0163 70.5528L86.5466 85.0573C87.8304 86.3377 87.8304 88.4142 86.5466 89.6946Z" fill="#FFA7B3"/>
<path d="M37.6264 40.8675L30.8913 47.5895L11.7129 28.4477L18.4456 21.7257C19.7293 20.4445 21.8098 20.4445 23.0928 21.7249L37.6264 36.2302C38.9094 37.5106 38.9094 39.587 37.6264 40.8675Z" fill="#FFC9D0"/>
</g>
<defs>
<clipPath id="clip0_3581_3535">
<rect width="108" height="108" fill="white"/>
</clipPath>
</defs>
</svg>
