<svg width="381" height="324" viewBox="0 0 381 324" fill="none" xmlns="http://www.w3.org/2000/svg">
<path d="M184.819 323.471C265.966 323.471 331.749 257.688 331.749 176.541C331.749 95.394 265.966 29.6113 184.819 29.6113C103.672 29.6113 37.8894 95.394 37.8894 176.541C37.8894 257.688 103.672 323.471 184.819 323.471Z" fill="#F5F5FE"/>
<path d="M10.1472 32.9228C9.94929 31.7273 11.5322 29.3155 13.2588 29.355C13.9461 29.3696 14.6167 29.5487 15.302 29.5154C17.1285 29.4258 18.0762 28.0033 18.7802 26.8266C19.4841 25.6498 20.8858 24.3064 22.6666 24.6043C25.2304 25.0354 26.5217 28.4178 29.4355 25.8768C31.3433 24.2148 31.487 21.8905 33.6468 20.2784C35.1298 19.1725 37.5395 18.5164 39.5285 19.1287C42.1215 19.9264 43.0879 22.4986 45.8497 22.9464C48.9092 23.4421 51.1086 21.1136 52.0854 19.437C53.2705 17.4 53.71 15.1986 54.7264 13.1262C55.6657 11.208 57.5547 8.63791 60.9413 8.69414C63.803 8.74205 65.0651 10.554 66.471 11.9911C68.2976 13.8615 72.0965 20.5804 76.3557 19.7702C78.0157 19.4536 78.8467 18.1353 80.3442 17.5438C82.7539 16.594 85.8239 17.8999 87.2756 19.5411C88.7273 21.1823 89.3021 23.1651 90.9433 24.7168C91.3682 25.1187 91.8826 25.4978 92.5491 25.6811C94.8401 26.308 96.9729 24.3793 99.4264 24.2356C101.12 24.1357 102.69 24.9313 103.663 25.9018C104.635 26.8724 105.166 28.0179 105.91 29.0822C106.118 29.378 106.354 29.6779 106.726 29.8799C107.803 30.4568 109.315 29.9694 110.634 29.7445C113.891 29.1843 117.59 30.6797 118.509 32.927H10.1472V32.9228Z" fill="#F5F5FE"/>
<path d="M353.643 21.3594C353.818 20.3056 352.422 18.1811 350.9 18.2145C350.294 18.227 349.702 18.3853 349.098 18.3561C347.488 18.277 346.653 17.0231 346.032 15.9859C345.412 14.9487 344.177 13.7636 342.606 14.0281C340.346 14.4072 339.207 17.3897 336.639 15.1507C334.958 13.6845 334.831 11.6371 332.928 10.2146C331.622 9.2399 329.495 8.66089 327.744 9.20032C325.457 9.90429 324.607 12.1703 322.172 12.566C319.475 13.0034 317.536 10.9519 316.676 9.47108C315.63 7.67575 315.243 5.73463 314.35 3.90806C313.521 2.21686 311.856 -0.0491732 308.872 0.000812796C306.348 0.0424678 305.237 1.63994 303.998 2.90833C302.388 4.55787 299.039 10.4791 295.286 9.76475C293.822 9.48566 293.091 8.32349 291.77 7.8028C289.646 6.96553 286.941 8.11729 285.662 9.56272C284.383 11.0102 283.875 12.7556 282.429 14.126C282.054 14.4801 281.6 14.8154 281.013 14.9758C278.993 15.5277 277.114 13.8282 274.952 13.7032C273.461 13.6158 272.076 14.3176 271.218 15.1716C270.36 16.0276 269.893 17.0377 269.237 17.975C269.054 18.2353 268.848 18.4998 268.517 18.6768C267.569 19.185 266.234 18.756 265.072 18.556C262.202 18.0624 258.94 19.3787 258.13 21.3615H353.643V21.3594Z" fill="#F5F5FE"/>
<path d="M148.55 167.521C141.86 174.404 147.927 191.222 158.597 188.79C170.061 186.174 168.336 168.308 157.97 165.376C153.928 164.23 150.704 165.305 148.55 167.521Z" fill="#9B87FF"/>
<path d="M201.712 189.706C199.165 192.172 196.212 194.08 192.702 194.882C186.021 196.409 179.748 193.468 174.176 190.081C168.222 186.461 162.284 182.794 156.667 178.661C152.651 175.708 148.54 172.567 146.036 168.154C143.135 163.034 142.966 156.882 143.558 151.169C143.962 147.266 142.142 143.765 141.34 140.045C139.78 132.803 141.377 124.254 148.132 120.099C151.578 117.978 155.186 118.293 158.816 119.851C161.597 121.046 164.19 122.706 167.099 123.533C173.297 125.293 180.018 122.869 186.088 121.621C190.482 120.717 195.289 120.244 199.625 121.694C204.451 123.308 206.746 126.838 209.381 130.925C211.633 134.417 215.048 137.052 217.77 140.16C221.417 144.323 222.525 149.586 221.299 154.951C219.497 162.824 214.969 169.589 211.037 176.495C208.523 180.911 205.588 185.955 201.712 189.706Z" fill="#0B2D4E"/>
<path d="M151.993 264.45C160.016 252.087 165.008 236.916 158.037 222.957C157.331 221.543 156.481 220 154.979 219.5C151.753 218.427 147.375 219.581 144.568 221.227C134.833 226.937 128.878 237.684 123.409 247.246C117.727 257.181 112.793 267.522 107.085 277.44C104.773 281.458 102.436 285.527 101.197 289.995C100.109 293.906 99.9907 298.386 101.474 302.214C107.882 318.764 125.504 298.492 130.869 292.367C138.526 283.628 145.674 274.197 151.993 264.45Z" fill="#00998F"/>
<path d="M191.973 189.5C191.115 190.416 190.113 191.189 188.98 191.751C186.056 193.201 182.553 193.13 179.435 192.172C176.315 191.214 173.516 189.439 170.85 187.557C163.642 182.464 154.728 175.727 150.437 167.898C147.792 163.072 145.83 157.376 148.361 152.108C150.535 147.582 154.952 144.24 160.007 143.765C160.42 143.725 160.857 143.709 161.232 143.888C161.657 144.09 161.93 144.508 162.173 144.908C163.996 147.901 165.452 151.163 167.68 153.893C170.104 156.863 173.104 159.083 176.371 161.068C181.655 164.276 187.458 166.64 192.427 170.314C196.016 172.967 196.112 178.938 195.237 183.081C194.735 185.449 193.619 187.742 191.973 189.5Z" fill="#061F33"/>
<path d="M232.296 246.777C234.834 237.89 236.153 228.799 230.396 222.746C227.797 220.012 223.165 218.108 219.376 216.755C211.985 214.115 204.426 210.567 196.514 209.415C188.17 208.202 178.892 207.454 170.577 209.19C165.296 210.292 160.355 212.331 155.634 214.532C149.294 217.486 144.778 219.471 142.746 225.544C140.49 232.283 139.12 239.205 138.355 246.164C136.118 266.533 139.078 286.951 139.007 307.33C139.001 309.334 139.032 311.415 140.094 313.217C142.187 316.769 147.875 316.817 151.972 316.811C165.477 316.791 178.981 316.773 192.486 316.753C198.105 316.745 202.398 317.314 207.673 318.21C212.112 318.964 215.923 317.113 218.054 313.7C220.07 310.469 220.224 306.696 220.438 303.066C221.28 288.941 223.704 274.88 227.674 261.123C228.794 257.227 230.765 252.133 232.296 246.777Z" fill="#00B7AA"/>
<path d="M199.623 220.928C202.481 216.51 203.131 210.988 199.386 206.732C197.674 204.786 194.646 204.566 192.057 204.522C186.96 204.435 181.851 204.932 176.888 205.999C172.156 207.017 167.332 208.739 165.283 213.127C163.76 216.388 164.292 220.162 166.297 223.145C168.12 225.855 171.142 227.861 174.514 228.599C179.958 229.79 186.331 229.631 191.528 227.625C194.783 226.37 197.703 223.898 199.623 220.928Z" fill="#00998F"/>
<path d="M146.584 316.073C152.02 318.527 157.96 319.767 163.888 320.717C180.475 323.377 197.38 323.929 214.18 323.161C217.77 322.998 221.665 322.654 224.314 320.325C226.285 318.591 227.216 316.041 227.876 313.556C230.125 305.093 230.094 296.249 230.048 287.516C230.013 280.703 229.975 273.888 229.94 267.076C229.928 264.703 231.535 250.265 227.684 250.429C227.27 250.446 226.889 250.652 226.549 250.884C224.633 252.197 223.648 254.396 222.752 256.483C219.945 263.029 217.589 273.505 211.745 278.087C205.609 282.9 198.54 285.141 191.103 287.448C178.207 291.45 163.821 293.188 152.899 301.427C151.081 302.8 149.346 304.321 147.661 305.844C146.145 307.215 144.064 308.633 143.156 310.551C141.746 313.537 143.964 314.889 146.584 316.073Z" fill="#00998F"/>
<path d="M261.379 270.723C263.43 274.422 265.467 278.127 267.469 281.858C271.53 289.426 279.072 306.24 266.998 310.395C260.914 312.489 257.436 310.441 253.414 306.009C238.202 289.243 225.231 270.45 214.952 250.285C211.126 242.779 200.969 223.222 213.307 218.752C217.202 217.342 221.694 217.669 225.343 219.633C227.011 220.531 228.492 221.739 229.906 223.001C238.81 230.943 245.152 241.188 250.792 251.581C254.279 258.002 257.849 264.354 261.379 270.723Z" fill="#00B7AA"/>
<path d="M199.867 297.867C200.929 297.688 201.994 297.515 203.06 297.349C208.244 296.545 213.405 295.593 218.539 294.493C228.705 292.315 238.931 290.442 249.28 289.468C250.378 289.364 251.476 289.272 252.573 289.189C257.212 288.839 262.073 288.718 266.315 290.88C270.558 293.042 273.926 298.165 272.88 303.114C272.145 306.59 269.423 309.21 266.403 310.533C263.381 311.855 260.057 312.091 256.795 312.311C246.231 313.024 235.666 313.738 225.102 314.45C219.872 314.8 214.64 315.163 209.41 315.527C204.416 315.875 199.344 316.573 194.338 316.577C192.219 316.579 189.855 316.194 188.077 314.815C185.607 312.899 184.124 308.81 183.89 305.615C183.77 303.955 184.103 301.939 185.407 300.91C186.104 300.358 186.99 300.19 187.841 300.036C191.853 299.305 195.85 298.544 199.867 297.867Z" fill="#00B7AA"/>
<path d="M158.962 301.616H108.868V311.424H158.962V301.616Z" fill="#B8D1CE"/>
<path d="M117.463 302.568L104.821 238.205C104.488 236.505 102.996 235.279 101.263 235.279H17.2202C16.0039 235.279 14.9605 235.881 14.3065 236.774L14.2961 236.764L10.4159 241.352L13.8587 240.596L26.3052 303.966C26.6384 305.665 28.1297 306.892 29.8625 306.892H113.908C116.188 306.892 117.905 304.807 117.463 302.568Z" fill="#B8D1CE"/>
<path d="M26.0199 311.424H110.065C112.348 311.424 114.062 309.339 113.623 307.1L100.98 242.737C100.647 241.038 99.1557 239.811 97.4229 239.811H13.3776C11.0949 239.811 9.3808 241.896 9.82026 244.135L22.4626 308.498C22.7958 310.197 24.2871 311.424 26.0199 311.424Z" fill="white"/>
<path d="M52.4563 274.022C53.231 278.365 57.3799 281.882 61.7203 281.882C66.0629 281.882 68.9037 278.363 68.0644 274.022C67.2271 269.68 63.0783 266.162 58.8003 266.162C54.5223 266.162 51.6794 269.682 52.4563 274.022Z" fill="#B8D1CE"/>
<path d="M187.91 313.63C185.413 314.144 183.461 316.337 180.976 317.073C179.202 317.597 177.305 317.316 175.601 316.677C174.035 316.09 172.439 315.775 170.831 315.259C169.578 314.857 167.884 314.011 166.539 314.292C163.009 315.027 159.489 317.539 156.29 319.17C155.571 319.537 154.782 319.914 153.988 319.764C153.195 319.614 152.532 318.651 152.984 317.981C152.064 318.841 150.845 320.561 149.36 319.893C148.752 319.62 148.388 318.816 148.723 318.241C148.213 318.801 147.677 319.378 146.971 319.657C146.267 319.936 145.343 319.816 144.928 319.18C144.732 318.883 144.674 318.516 144.655 318.16C144.595 316.935 144.964 315.725 145.476 314.609C147.996 309.108 153.695 305.028 158.545 301.752C159.403 301.173 160.278 300.586 161.267 300.282C162.153 300.011 163.094 299.982 164.019 299.977C170.032 299.95 176.049 300.923 181.749 302.841C182.982 303.256 184.34 302.904 185.569 302.673C186.479 302.502 187.431 302.333 188.318 302.593C189.314 302.883 190.084 303.672 190.69 304.512C191.805 306.057 192.657 308.104 192.523 310.045C192.423 311.52 192.311 313.111 190.576 313.419C189.872 313.544 189.149 313.467 188.439 313.542C188.258 313.567 188.083 313.594 187.91 313.63Z" fill="#F8A17A"/>
<path d="M188.976 224.692C192.65 223.513 195.676 221.231 196.809 217.6C197.838 214.305 196.216 210.598 195.926 207.274C195.649 204.087 195.614 200.884 195.822 197.693C196.016 194.744 196.297 191.672 195.843 188.731C195.585 187.051 194.662 187.338 192.963 186.672C191.263 186.005 189.357 185.997 187.508 186.003C183.726 186.011 173.868 185.738 171.529 189.056C170.456 190.581 170.371 192.497 170.321 194.311C170.259 196.502 169.871 199.337 169.513 202.392C169.353 203.752 169.453 205.108 169.244 206.458C169.011 207.97 168.436 209.419 167.934 210.869C166.033 216.349 167.813 221.56 173.739 224.069C177.994 225.867 184.065 226.269 188.976 224.692Z" fill="#F8A17A"/>
<path d="M195.827 188.729C195.568 187.049 194.646 187.336 192.946 186.67C191.247 186.003 189.341 185.995 187.491 186.001C183.709 186.009 173.851 185.737 171.513 189.054C170.44 190.579 170.355 192.495 170.305 194.309C170.242 196.5 169.855 199.335 169.496 202.39C169.336 203.75 169.436 205.106 169.228 206.456C169.051 207.607 168.674 208.722 168.284 209.83C171.95 211.192 176.09 211.494 179.914 210.552C186.804 208.857 192.021 204.569 195.743 198.993C195.762 198.56 195.774 198.127 195.804 197.694C195.999 194.742 196.281 191.67 195.827 188.729Z" fill="#E5785C"/>
<path d="M201.319 167.139C201.29 162.089 200.592 157.298 199.292 153.32C193.685 136.156 172.275 131.916 159.383 144.237C145.005 157.977 150.508 190.826 165.652 202.365C169.701 205.449 175.203 206.535 180.121 205.216C195 201.226 201.412 182.914 201.319 167.139Z" fill="#F8A17A"/>
<path d="M199.292 153.32C193.685 136.156 172.275 131.916 159.383 144.237C157.754 145.793 156.394 147.605 155.259 149.594C156.017 150.242 156.817 150.796 157.518 151.219C162.95 154.485 168.857 156.957 174.995 158.536C177.634 159.215 180.412 159.773 182.576 161.431C183.817 162.382 184.753 163.613 185.509 164.978C186.417 166.619 187.066 168.454 187.677 170.232C189.012 174.129 189.599 178.228 190.141 182.296C190.197 182.718 190.27 183.175 190.58 183.466C190.876 183.743 191.313 183.799 191.717 183.789C194.092 183.729 195.237 181.452 197.087 180.246C198.199 179.519 199.311 178.78 200.367 177.976C201.027 174.362 201.337 170.686 201.317 167.137C201.287 162.089 200.592 157.298 199.292 153.32Z" fill="#E5785C"/>
<path d="M187.933 164.313C188.622 166.059 189.028 167.962 189.401 169.806C190.22 173.844 190.272 177.983 190.282 182.086C190.282 182.51 190.297 182.975 190.568 183.304C190.824 183.616 191.251 183.731 191.655 183.773C194.017 184.02 195.447 181.911 197.436 180.955C199.5 179.963 201.581 178.959 203.385 177.547C208.517 173.525 207.344 166.888 207.182 160.985C207.092 157.742 206.996 154.454 206.044 151.352C205.007 147.97 202.987 144.95 200.583 142.355C193.64 134.861 183.161 130.966 173.014 131.606C167.991 131.922 162.323 134.049 158.743 137.665C155.657 140.785 159.418 145.021 161.961 147.041C166.924 150.982 172.462 154.2 178.344 156.561C180.872 157.576 183.555 158.49 185.486 160.414C186.592 161.52 187.36 162.862 187.933 164.313Z" fill="#0B2D4E"/>
<path d="M198.505 167.562C205.093 163.961 207.119 173.082 205.986 177.62C205.518 179.494 204.778 181.323 203.614 182.864C202.048 184.941 197.566 188.388 194.983 186.115C193.81 185.084 193.69 183.333 193.654 181.773C193.558 177.589 194.04 170.005 198.505 167.562Z" fill="#F8A17A"/>
<path d="M293.693 272.997C294.62 271.083 294.453 269.069 293.87 267.245C293.307 265.379 292.306 263.771 291.221 262.015C290.125 260.282 289.004 258.393 288.319 256.119C287.624 253.82 287.824 251.241 288.461 249.06C289.842 244.612 292.668 241.335 294.617 237.982C295.594 236.285 296.392 234.562 296.709 232.655C297.063 230.766 296.942 228.754 296.013 226.856C297.621 228.264 298.402 230.545 298.506 232.755C298.606 234.987 298.044 237.251 297.188 239.242C295.496 243.281 292.964 246.561 291.977 250.106C291.416 251.862 291.279 253.561 291.677 255.263C292.008 257.008 292.92 258.768 293.741 260.678C294.611 262.542 295.444 264.698 295.63 266.914C295.819 269.099 295.319 271.567 293.693 272.997Z" fill="white"/>
<path d="M301.838 311.218H287.276C284.4 311.218 282.069 308.888 282.069 306.011V275.443H307.045V306.011C307.045 308.888 304.713 311.218 301.838 311.218Z" fill="#9B87FF"/>
<path d="M308.789 283.534C302.799 283.534 297.944 288.46 297.944 294.537C297.944 300.615 302.799 305.541 308.789 305.541C314.779 305.541 319.634 300.615 319.634 294.537C319.634 288.46 314.779 283.534 308.789 283.534ZM308.789 301.617C304.936 301.617 301.812 298.447 301.812 294.537C301.812 290.628 304.936 287.458 308.789 287.458C312.642 287.458 315.766 290.628 315.766 294.537C315.766 298.449 312.642 301.617 308.789 301.617Z" fill="#9B87FF"/>
<path opacity="0.2" d="M285.803 297.639C285.06 297.639 284.454 297.03 284.454 296.289V278.877C284.454 278.134 285.062 277.527 285.803 277.527C286.547 277.527 287.153 278.136 287.153 278.877V296.289C287.153 297.03 286.545 297.639 285.803 297.639Z" fill="white"/>
<path d="M301.276 275.443V304.893C301.276 308.386 298.444 311.218 294.951 311.218H300.718C304.211 311.218 307.043 308.386 307.043 304.893V275.443H301.276Z" fill="#8070F2"/>
<path d="M145.726 149.267C142.898 141.345 137.226 134.961 140.488 126.074C142.412 120.834 147.315 117.422 152.876 117.339C155.49 117.299 158.108 117.953 160.378 119.253C163.09 120.807 164.85 123.341 168.003 124.191C175.397 126.182 183.053 120.546 190.122 119.232C197.12 117.932 204.564 120.228 207.986 126.907C209.335 129.542 209.91 132.587 211.685 134.955C214.65 138.912 220.42 140.266 222.765 144.619C226.597 151.727 218.724 161.991 214.717 167.452" stroke="#0B2D4E" stroke-width="4" stroke-miterlimit="10"/>
<path d="M177.048 197.606C175.434 197.606 173.808 197.487 172.181 197.248L172.472 195.271C178.385 196.144 184.28 195.319 189.522 192.891C190.947 192.23 192.152 191.537 193.211 190.77C195.135 189.375 196.789 187.555 197.988 185.503L199.713 186.511C198.374 188.8 196.53 190.833 194.383 192.389C193.219 193.232 191.903 193.988 190.361 194.703C186.21 196.625 181.68 197.606 177.048 197.606Z" fill="#8070F2"/>
<path d="M166.406 193.697C168.813 191.631 174.17 191.808 175.936 193.953C177.244 195.544 176.847 197.562 175.405 198.908C173.7 200.499 171.592 200.405 169.465 199.926C166.804 199.324 163.502 196.188 166.406 193.697Z" fill="#8070F2"/>
<path d="M164.319 131.246C164.9 131.264 165.477 131.31 166.056 131.293C166.635 131.304 167.212 131.277 167.788 131.252C168.942 131.179 170.092 131.06 171.235 130.896C173.526 130.581 175.801 130.144 178.113 129.838C180.418 129.519 182.776 129.373 185.121 129.529C185.708 129.565 186.296 129.627 186.881 129.715C187.466 129.802 188.05 129.913 188.626 130.06C189.78 130.348 190.909 130.777 191.957 131.373C192.477 131.679 192.975 132.027 193.438 132.418C193.894 132.814 194.319 133.247 194.704 133.716C195.081 134.191 195.416 134.699 195.699 135.238C195.979 135.78 196.195 136.355 196.343 136.95C196.497 137.544 196.549 138.164 196.533 138.777C196.524 139.395 196.399 139.993 196.27 140.566C196.139 141.139 195.995 141.693 195.91 142.24C195.818 142.788 195.808 143.334 195.862 143.884C195.974 144.985 196.372 146.058 196.86 147.089C197.347 148.124 197.934 149.12 198.478 150.155C199.011 151.192 199.484 152.277 199.757 153.421C199.89 153.991 199.973 154.577 199.969 155.164C199.961 155.749 199.867 156.332 199.678 156.882C199.98 155.755 199.867 154.572 199.544 153.479C199.219 152.379 198.701 151.346 198.122 150.353C197.543 149.359 196.914 148.376 196.372 147.333C195.831 146.293 195.381 145.169 195.218 143.961C195.139 143.361 195.135 142.738 195.22 142.138C195.302 141.541 195.443 140.968 195.56 140.408C195.677 139.847 195.779 139.3 195.774 138.758C195.779 138.214 195.724 137.669 195.579 137.14C195.435 136.613 195.245 136.096 194.987 135.609C194.727 135.124 194.421 134.661 194.075 134.23C193.721 133.805 193.329 133.41 192.909 133.047C192.484 132.689 192.025 132.376 191.546 132.095C190.58 131.539 189.524 131.129 188.431 130.85C187.337 130.564 186.208 130.408 185.069 130.315C182.786 130.121 180.491 130.244 178.196 130.483C175.903 130.731 173.606 131.083 171.288 131.302C170.129 131.406 168.963 131.464 167.801 131.475C166.633 131.477 165.468 131.395 164.319 131.246Z" fill="#73B8D4"/>
<path d="M201.271 164.969C191.974 167.354 188.379 184.87 198.753 188.357C209.9 192.103 217.743 175.96 210.429 168.052C207.575 164.965 204.264 164.201 201.271 164.969Z" fill="#9B87FF"/>
<path d="M204.318 167.217C197.899 168.248 193.946 181.883 200.56 185.636C207.669 189.669 214.338 177.526 210.158 170.532C208.527 167.804 206.384 166.886 204.318 167.217Z" fill="#8070F2"/>
<path d="M205.615 166.194L203.135 165.907C204.818 151.369 204.101 132.795 191.134 126.863C184.994 124.054 179.392 122.04 169.407 124.004C167.949 123.808 166.826 123.267 166.826 123.267C175.855 118.855 185.546 121.559 192.173 124.591C206.503 131.15 207.392 150.836 205.615 166.194Z" fill="#9B87FF"/>
<path d="M239.885 150.986H325.134C329.831 150.986 333.673 147.143 333.673 142.447V97.3884C333.673 92.6918 329.831 88.8491 325.134 88.8491H239.885C235.188 88.8491 231.346 92.6918 231.346 97.3884V142.447C231.346 147.143 235.188 150.986 239.885 150.986Z" fill="#164B77"/>
<path d="M244.815 167.342V138.787L267.177 150.986L244.815 167.342Z" fill="#164B77"/>
<path d="M295.713 122.717H248.805C247.774 122.717 246.931 121.873 246.931 120.842V119.17C246.931 118.139 247.774 117.295 248.805 117.295H295.713C296.744 117.295 297.588 118.139 297.588 119.17V120.842C297.588 121.873 296.744 122.717 295.713 122.717Z" fill="white"/>
<path d="M316.214 122.717H303.359C302.328 122.717 301.484 121.873 301.484 120.842V119.17C301.484 118.139 302.328 117.295 303.359 117.295H316.214C317.245 117.295 318.088 118.139 318.088 119.17V120.842C318.088 121.873 317.245 122.717 316.214 122.717Z" fill="white"/>
<path d="M269.306 104.984H316.214C317.245 104.984 318.088 105.828 318.088 106.859V108.531C318.088 109.562 317.245 110.406 316.214 110.406H269.306C268.275 110.406 267.431 109.562 267.431 108.531V106.859C267.431 105.828 268.275 104.984 269.306 104.984Z" fill="white"/>
<path d="M248.807 104.984H261.662C262.693 104.984 263.537 105.828 263.537 106.859V108.531C263.537 109.562 262.693 110.406 261.662 110.406H248.807C247.776 110.406 246.933 109.562 246.933 108.531V106.859C246.933 105.828 247.776 104.984 248.807 104.984Z" fill="white"/>
<path d="M280.636 133.97H248.807C247.776 133.97 246.933 133.126 246.933 132.095V130.423C246.933 129.392 247.776 128.548 248.807 128.548H280.636C281.667 128.548 282.511 129.392 282.511 130.423V132.095C282.511 133.126 281.667 133.97 280.636 133.97Z" fill="white"/>
<path d="M329.47 168.591C327.179 168.579 324.955 168.283 323.384 166.036C320.304 161.622 315.599 157.661 310.326 162.149C307.283 164.738 309.572 170.062 306.954 172.623C304.638 174.887 301.695 174.515 300.51 178.272C298.768 183.802 304.259 188.646 306.021 193.428C307.499 197.441 304.173 198.97 302.678 202.096C301.526 204.506 302.118 207.089 303.373 209.394C305.587 213.458 310.496 216.73 309.359 221.993C308.41 226.385 307.529 230.299 311.402 233.627C314.058 235.91 318.988 237.989 318.613 242.212C318.48 243.708 317.447 244.98 317.161 246.453C316.713 248.785 318.223 251.054 319.977 252.653C323.968 256.294 327.473 259.728 330.462 264.31C331.738 266.268 336.854 270.688 334.808 273.364C338.524 268.499 342.45 263.781 345.826 258.668C348.602 254.461 352.787 248.309 349.94 243.129C349.054 241.517 347.405 240.317 346.955 238.534C346.141 235.314 349.302 232.33 350.479 229.591C352.324 225.29 350.97 220.296 347.717 217.069C346.178 215.543 344.51 213.862 344.283 211.706C344.037 209.353 345.512 207.158 346.182 204.985C346.799 202.984 347.184 200.855 347.409 198.774C347.567 197.306 347.63 195.804 347.284 194.367C346.628 191.637 344.168 190.119 342.348 188.179C338.014 183.566 340.292 178.141 338.399 172.78C336.697 167.962 333.005 168.61 329.47 168.591Z" fill="#00B7AA"/>
<path d="M335.271 278.848C336.881 260.403 335.402 241.81 331.995 223.645C328.744 206.314 324.478 188.925 318.009 172.498C315.872 167.071 313.473 161.743 310.744 156.586" stroke="#26A8D1" stroke-width="5" stroke-miterlimit="10"/>
<path d="M296.182 181.319C305.26 184.524 313.921 188.915 321.873 194.344C323.891 195.721 325.013 196.144 326.694 197.914" stroke="#26A8D1" stroke-width="5" stroke-miterlimit="10"/>
<path d="M330.999 217.675C322.285 212.044 312.402 208.23 302.166 206.545" stroke="#26A8D1" stroke-width="5" stroke-miterlimit="10"/>
<path d="M334.446 241.471C326.336 234.444 316.451 229.481 305.969 227.177" stroke="#26A8D1" stroke-width="5" stroke-miterlimit="10"/>
<path d="M326.244 197.306C326.877 187.546 329.306 177.907 333.374 169.012" stroke="#26A8D1" stroke-width="5" stroke-miterlimit="10"/>
<path d="M330.889 216.871C335.008 208.055 340.961 200.101 348.259 193.661" stroke="#26A8D1" stroke-width="5" stroke-miterlimit="10"/>
<path d="M334.986 242.148C335.554 239.424 336.554 236.791 337.933 234.375C339.538 231.563 341.638 229.07 343.777 226.642C345.316 224.892 346.884 223.166 348.476 221.462" stroke="#26A8D1" stroke-width="5" stroke-miterlimit="10"/>
<path d="M357.614 202.211C359.279 202.519 360.932 202.613 362.384 201.199C365.229 198.425 369.19 196.202 372.396 200.187C374.245 202.486 371.848 206.031 373.393 208.251C374.76 210.215 376.946 210.35 377.286 213.241C377.784 217.494 373.131 220.248 371.19 223.474C369.561 226.179 371.762 227.75 372.414 230.224C372.916 232.132 372.129 233.923 370.9 235.42C368.732 238.061 364.719 239.755 364.814 243.731C364.896 247.048 364.994 250.008 361.722 251.887C359.478 253.174 355.615 254.001 355.305 257.117C355.194 258.218 355.769 259.287 355.769 260.395C355.771 262.148 354.363 263.586 352.868 264.504C349.469 266.593 346.451 268.599 343.647 271.508C342.45 272.752 338.128 275.251 339.24 277.473C337.218 273.431 335.023 269.465 333.284 265.287C331.853 261.851 329.668 256.81 332.451 253.447C333.317 252.401 334.677 251.758 335.252 250.527C336.289 248.304 334.408 245.701 333.934 243.552C333.19 240.177 334.865 236.741 337.67 234.85C338.997 233.954 340.442 232.967 340.905 231.434C341.409 229.76 340.642 227.964 340.457 226.296C340.286 224.759 340.303 223.161 340.425 221.622C340.513 220.535 340.677 219.437 341.125 218.442C341.979 216.551 343.974 215.791 345.564 214.637C349.346 211.89 348.444 207.639 350.56 204.013C352.46 200.755 355.048 201.736 357.614 202.211Z" fill="#00998F"/>
<path d="M338.147 281.385C339.532 267.782 343.179 254.501 348.165 241.794C352.922 229.674 358.423 217.65 365.39 206.629C367.691 202.988 370.169 199.456 372.86 196.092" stroke="#3DC8E8" stroke-width="5" stroke-miterlimit="10"/>
<path d="M380 216.051C372.971 217.119 366.081 219.104 359.562 221.943C357.908 222.664 357.036 222.814 355.569 223.866" stroke="#3DC8E8" stroke-width="5" stroke-miterlimit="10"/>
<path d="M349.713 237.603C356.813 234.725 364.511 233.325 372.169 233.521" stroke="#3DC8E8" stroke-width="5" stroke-miterlimit="10"/>
<path d="M343.918 254.388C350.775 250.412 358.631 248.181 366.554 247.961" stroke="#3DC8E8" stroke-width="5" stroke-miterlimit="10"/>
<path d="M355.982 223.486C356.873 216.32 356.446 208.99 354.728 201.976" stroke="#3DC8E8" stroke-width="5" stroke-miterlimit="10"/>
<path d="M349.904 237.037C348.136 230.072 344.918 223.478 340.517 217.796" stroke="#3DC8E8" stroke-width="5" stroke-miterlimit="10"/>
<path d="M343.433 254.803C343.398 252.749 343.037 250.7 342.371 248.756C341.596 246.494 340.417 244.397 339.203 242.337C338.328 240.854 337.431 239.386 336.512 237.93" stroke="#3DC8E8" stroke-width="5" stroke-miterlimit="10"/>
<path d="M321.966 276.673H355.973L350.008 310.708H327.933L321.966 276.673Z" fill="#EFB126"/>
<path d="M317.803 276.673H360.137V267.12H317.803V276.673Z" fill="#164B77"/>
<path opacity="0.1" d="M355.182 281.187H322.758L321.966 276.673H355.973L355.182 281.187Z" fill="#231F20"/>
<path d="M367.349 323.852H6.65262C2.97919 323.852 0 320.942 0 317.352C0 313.763 2.97919 310.852 6.65262 310.852H367.347C371.021 310.852 374 313.763 374 317.352C374.002 320.942 371.023 323.852 367.349 323.852Z" fill="#29CCC0"/>
<path d="M85.7844 97.2589H72.3235C66.6001 97.2589 61.9181 101.941 61.9181 107.664C61.9181 111.203 63.7093 114.342 66.4293 116.224V123.547L73.9189 118.07H85.7844C91.5078 118.07 96.1898 113.388 96.1898 107.664C96.1898 101.943 91.5057 97.2589 85.7844 97.2589Z" fill="#29CCC0"/>
<path d="M73.0446 108.027C73.2443 107.179 72.7181 106.329 71.8694 106.129C71.0207 105.929 70.1708 106.456 69.9712 107.304C69.7715 108.153 70.2976 109.003 71.1464 109.203C71.9951 109.402 72.845 108.876 73.0446 108.027Z" fill="white"/>
<path d="M80.1668 108.781C80.7834 108.164 80.7834 107.165 80.1668 106.548C79.5503 105.931 78.5507 105.931 77.9342 106.548C77.3177 107.165 77.3177 108.164 77.9342 108.781C78.5507 109.397 79.5503 109.397 80.1668 108.781Z" fill="white"/>
<path d="M87.7063 108.781C88.3228 108.164 88.3228 107.165 87.7063 106.548C87.0897 105.931 86.0901 105.931 85.4736 106.548C84.8571 107.165 84.8571 108.164 85.4736 108.781C86.0901 109.397 87.0897 109.397 87.7063 108.781Z" fill="white"/>
<path d="M257.193 192.866C255.116 189.315 249.878 187.532 244.815 193.449C239.752 187.53 234.512 189.315 232.437 192.866C227.322 201.617 244.815 211.914 244.815 211.914C244.815 211.914 262.308 201.617 257.193 192.866Z" fill="#29CCC0"/>
<path d="M171.106 99.2001H145.078C143.704 99.2001 142.579 98.0754 142.579 96.7008V80.9989C142.579 79.6243 143.704 78.4996 145.078 78.4996H171.104C172.479 78.4996 173.604 79.6243 173.604 80.9989V96.7008C173.606 98.0754 172.481 99.2001 171.106 99.2001Z" fill="#29CCC0"/>
<path d="M143.081 79.1641L156.665 92.3354C157.444 93.0893 158.743 93.0893 159.52 92.3354L173.104 79.1641" stroke="white" stroke-width="4" stroke-miterlimit="10"/>
<path d="M143.081 98.5316L154.226 89.9714" stroke="white" stroke-width="4" stroke-miterlimit="10"/>
<path d="M173.104 98.5316L161.959 89.9714" stroke="white" stroke-width="4" stroke-miterlimit="10"/>
<path d="M118.338 179.98H87.4984C86.1176 179.98 84.9991 178.861 84.9991 177.481V157.586C84.9991 156.205 86.1176 155.087 87.4984 155.087H118.338C119.719 155.087 120.837 156.205 120.837 157.586V177.481C120.837 178.859 119.719 179.98 118.338 179.98Z" fill="#29CCC0"/>
<path d="M102.917 187.844L109.201 179.37H96.6333L102.917 187.844Z" fill="#29CCC0"/>
<path d="M112.346 170.732H110.796V166.488L110.811 165.79L110.836 165.028C110.577 165.286 110.398 165.455 110.298 165.534L109.455 166.211L108.707 165.278L111.071 163.397H112.346V170.732Z" fill="white"/>
<path d="M100.853 163.151H95.7668C93.6049 163.151 91.8346 164.919 91.8346 167.083C91.8346 168.42 92.5115 169.608 93.5383 170.318V173.086L96.3687 171.016H100.853C103.015 171.016 104.785 169.247 104.785 167.083C104.785 164.919 103.015 163.151 100.853 163.151Z" fill="white"/>
</svg>
