<svg width="48" height="48" viewBox="0 0 48 48" fill="none" xmlns="http://www.w3.org/2000/svg">
<path d="M31.9146 16.8735L33.0457 17.9989C34.2358 16.8183 35.18 15.4157 35.8242 13.8714C36.4684 12.3271 36.8 10.6715 36.8 8.99947C36.8 7.32745 36.4684 5.67186 35.8242 4.12757C35.18 2.58327 34.2358 1.18063 33.0457 0L31.9146 1.12543C32.956 2.1583 33.7822 3.3855 34.346 4.73669C34.9098 6.08788 35.2 7.53648 35.2 8.99947C35.2 10.4625 34.9098 11.9111 34.346 13.2623C33.7822 14.6134 32.956 15.8406 31.9146 16.8735V16.8735Z" fill="#F9F9FF"/>
<path d="M16.0852 16.8735C15.0438 15.8406 14.2175 14.6134 13.6537 13.2623C13.0899 11.9111 12.7997 10.4625 12.7997 8.99947C12.7997 7.53648 13.0899 6.08788 13.6537 4.73669C14.2175 3.3855 15.0438 2.1583 16.0852 1.12543L14.954 0C13.764 1.18063 12.8198 2.58327 12.1755 4.12757C11.5313 5.67186 11.1997 7.32745 11.1997 8.99947C11.1997 10.6715 11.5313 12.3271 12.1755 13.8714C12.8198 15.4157 13.764 16.8183 14.954 17.9989L16.0852 16.8735Z" fill="#F9F9FF"/>
<path d="M17.2093 15.7528L18.3437 14.6298C16.8433 13.1362 16.0005 11.111 16.0005 8.99942C16.0005 6.88782 16.8433 4.86263 18.3437 3.36908L17.2093 2.24603C15.4106 4.03801 14.4004 6.46695 14.4004 8.99942C14.4004 11.5319 15.4106 13.9608 17.2093 15.7528V15.7528Z" fill="#F9F9FF"/>
<path d="M29.6572 14.6298L30.7916 15.7528C32.5903 13.9608 33.6005 11.5319 33.6005 8.99942C33.6005 6.46695 32.5903 4.03801 30.7916 2.24603L29.6572 3.36908C31.1576 4.86263 32.0004 6.88782 32.0004 8.99942C32.0004 11.111 31.1576 13.1362 29.6572 14.6298V14.6298Z" fill="#F9F9FF"/>
<path d="M19.4747 13.5021L20.6059 12.3766C20.1601 11.9332 19.8065 11.4067 19.5652 10.8272C19.3239 10.2478 19.1997 9.62673 19.1997 8.99953C19.1997 8.37233 19.3239 7.75128 19.5652 7.17183C19.8065 6.59239 20.1601 6.0659 20.6059 5.62244L19.4747 4.49701C18.8804 5.08828 18.4089 5.79023 18.0873 6.56277C17.7656 7.33532 17.6001 8.16333 17.6001 8.99953C17.6001 9.83573 17.7656 10.6637 18.0873 11.4363C18.4089 12.2088 18.8804 12.9108 19.4747 13.5021V13.5021Z" fill="#F9F9FF"/>
<path d="M28.5257 13.5021C29.1201 12.9108 29.5915 12.2088 29.9132 11.4363C30.2348 10.6637 30.4004 9.83573 30.4004 8.99953C30.4004 8.16333 30.2348 7.33532 29.9132 6.56277C29.5915 5.79023 29.1201 5.08828 28.5257 4.49701L27.3945 5.62244C27.8403 6.0659 28.194 6.59239 28.4352 7.17183C28.6765 7.75128 28.8007 8.37233 28.8007 8.99953C28.8007 9.62673 28.6765 10.2478 28.4352 10.8272C28.194 11.4067 27.8403 11.9332 27.3945 12.3766L28.5257 13.5021Z" fill="#F9F9FF"/>
<path d="M39.9991 43.224H34.2151L27.9992 20.0388V16.9586C27.9992 16.7475 27.9149 16.545 27.7648 16.3958C27.6148 16.2465 27.4113 16.1627 27.1992 16.1627H24.7992V12.0716C25.5533 11.8779 26.2105 11.4172 26.6476 10.7759C27.0848 10.1345 27.2718 9.3566 27.1737 8.58788C27.0755 7.81917 26.6989 7.11246 26.1145 6.60021C25.5301 6.08797 24.778 5.80536 23.9992 5.80536C23.2203 5.80536 22.4682 6.08797 21.8838 6.60021C21.2994 7.11246 20.9228 7.81917 20.8247 8.58788C20.7265 9.3566 20.9136 10.1345 21.3507 10.7759C21.7878 11.4172 22.445 11.8779 23.1992 12.0716V16.1627H20.7992C20.587 16.1627 20.3835 16.2465 20.2335 16.3958C20.0835 16.545 19.9992 16.7475 19.9992 16.9586V20.0388L13.7832 43.224H7.99922C7.78704 43.224 7.58356 43.3078 7.43353 43.4571C7.2835 43.6064 7.19922 43.8088 7.19922 44.0199V47.2036C7.19922 47.4147 7.2835 47.6171 7.43353 47.7664C7.58356 47.9156 7.78704 47.9995 7.99922 47.9995H39.9991C40.2113 47.9995 40.4148 47.9156 40.5648 47.7664C40.7148 47.6171 40.7991 47.4147 40.7991 47.2036V44.0199C40.7991 43.8088 40.7148 43.6064 40.5648 43.4571C40.4148 43.3078 40.2113 43.224 39.9991 43.224ZM32.5591 43.224H25.9272L31.1591 38.0187L32.5591 43.224ZM30.6871 36.2437L24.7992 42.1017V37.1829L29.6471 32.3597L30.6871 36.2437ZM28.1272 26.7086L29.1671 30.5847L24.7992 34.9384V30.0196L28.1272 26.7086ZM27.6552 24.9337L24.7992 27.7751V20.9382H26.5832L27.6552 24.9337ZM26.3992 17.7545V19.3463H24.7992V17.7545H26.3992ZM22.3992 8.99938C22.3992 8.68454 22.493 8.37677 22.6688 8.115C22.8446 7.85322 23.0945 7.64919 23.3869 7.52871C23.6792 7.40822 24.0009 7.3767 24.3113 7.43812C24.6217 7.49954 24.9068 7.65115 25.1305 7.87377C25.3543 8.0964 25.5067 8.38004 25.5684 8.68882C25.6302 8.99761 25.5985 9.31768 25.4774 9.60855C25.3563 9.89942 25.1512 10.148 24.8881 10.3229C24.625 10.4979 24.3156 10.5912 23.9992 10.5912C23.5752 10.59 23.169 10.4218 22.8692 10.1236C22.5694 9.82533 22.4004 9.42117 22.3992 8.99938V8.99938ZM21.5992 17.7545H23.1992V19.3463H21.5992V17.7545ZM21.4152 20.9382H23.1992V27.7751L20.3432 24.9337L21.4152 20.9382ZM19.8712 26.7086L23.1992 30.0196V34.9384L18.8312 30.5847L19.8712 26.7086ZM18.3512 32.3597L23.1992 37.1829V42.1017L17.3112 36.2437L18.3512 32.3597ZM16.8392 38.0187L22.0712 43.224H15.4392L16.8392 38.0187ZM39.1991 46.4077H8.79921V44.8158H39.1991V46.4077Z" fill="#F9F9FF"/>
<path d="M40 7.40759H41.6V8.99943H40V7.40759Z" fill="#F9F9FF"/>
<path d="M43.1992 7.40759H44.7992V8.99943H43.1992V7.40759Z" fill="#F9F9FF"/>
<path d="M46.3999 7.40759H47.9999V8.99943H46.3999V7.40759Z" fill="#F9F9FF"/>
<path d="M6.39941 7.40759H7.99941V8.99943H6.39941V7.40759Z" fill="#F9F9FF"/>
<path d="M3.2002 7.40759H4.80019V8.99943H3.2002V7.40759Z" fill="#F9F9FF"/>
<path d="M0 7.40759H1.6V8.99943H0V7.40759Z" fill="#F9F9FF"/>
</svg>
